<?xml version="1.0" encoding="utf-8"?>
<!-- Generator: Adobe Illustrator 28.3.0, SVG Export Plug-In . SVG Version: 6.00 Build 0)  -->
<svg version="1.1" id="Layer_1" xmlns="http://www.w3.org/2000/svg" xmlns:xlink="http://www.w3.org/1999/xlink" x="0px" y="0px"
	 viewBox="0 0 1200 316" style="enable-background:new 0 0 1200 316;" xml:space="preserve">
<style type="text/css">
	.st0{fill:#AF2830;}
	.st1{fill:#8AC340;}
	.st2{fill:#00944B;}
	.st3{fill:none;}
	.st4{fill:#722B82;}
	.st5{fill:#E72429;}
	.st6{fill:#2A3B8E;}
	.st7{fill:#FFFFFF;}
	.st8{fill:#9D2235;}
	.st9{fill:#787C82;}
</style>
<g>
	<g>
		<g>
			<path class="st0" d="M396.9,189c7.4,0,10.3-3.5,10.3-9.5c0-6,0-29.4,0-29.4h-189V189C218.2,189,389.5,189,396.9,189z"/>
			<path class="st1" d="M162.6,127.9c-1.7,1.7-2.4,2.4-3.7,3.4c-1.2,1-2.3,1.8-3.3,2.5c-1,0.6-1.7,1-2.3,1.2
				c-0.7,0.3-1.1,0.3-1.3,0.3c-0.1,0-0.2,0-0.3,0c0-0.1-0.1-0.3-0.1-0.6c0-0.4,0-1.3,0.7-3.4c0.7-2.1,1.8-4.6,3.2-7.5
				c1.4-2.9,3.3-6.2,5.7-9.9c0.8-1.2,1.6-2.5,2.5-3.8c0.9-1.3,1.7-2.6,2.5-3.8c2.8-4.1,5.3-8.1,7.6-11.8c2.3-3.8,3.7-7.3,4.3-10.5
				c0.2-1.2-0.1-2.4-0.8-3.4c-0.8-1-1.8-1.7-3-1.9c-1.3-0.2-2.5,0.1-3.5,0.8c-1.1,0.7-1.7,1.7-1.9,2.9c-0.2,1-0.6,2.3-1.3,3.7
				c-0.7,1.5-1.6,3.1-2.5,4.7c-1,1.7-2,3.4-3.2,5.1c-1.2,1.8-2.3,3.5-3.4,5.2c-0.9,1.3-1.8,2.6-2.6,3.9c-0.8,1.2-1.7,2.5-2.5,3.9
				c-4.6,7.2-7.7,13.3-9.4,17.9c-1.3,1.4-2.6,2.7-4,3.9c-2,1.9-3.6,3.1-4.7,3.5c-1.3,0.5-1.7,0.5-1.7,0.5c0,0-0.2-0.2-0.3-1
				c-0.1-0.8,0-2,0.3-3.4c0.3-1.5,0.9-3.4,1.9-5.7c0.9-2.3,2.4-5,4.2-8c0,0,0-0.1,0-0.1c0.1-0.3,0.3-0.6,0.6-1
				c0.7-1.1,0.9-2.3,0.6-3.5c-0.3-1.2-1-2.2-2.1-2.9c-1.1-0.7-2.3-0.9-3.5-0.6c-1.2,0.3-2.2,1-2.8,2.1c-0.2,0.2-0.3,0.4-0.4,0.6
				c-0.1,0.2-0.3,0.4-0.4,0.7c-2.3,3.8-4.7,7.2-7.1,10.1c-2.4,2.9-4.7,5.4-6.8,7.3c-2.1,1.9-3.9,3.3-5.5,4.1
				c-1.4,0.7-2.4,0.9-3.1,0.5c-0.1-0.1-0.3-0.2-0.7-0.7c-0.1-0.1-0.3-0.6-0.2-1.9c0.1-1.2,0.5-2.6,1.2-4.3c0.1-0.1,0.1-0.2,0.2-0.3
				c0.2-0.4,0.5-0.9,0.6-1.4c0.1-0.1,0.1-0.2,0.2-0.3c1.3-2.5,3.1-5.1,5.2-7.6c2.1-2.6,4.5-5,7.1-7.1c2.6-2.2,5.1-3.8,7.7-5
				c4-1.8,7.1-1.8,9.5,0.1c1.1,0.9,2.1,1.2,3.1,1c1-0.2,1.7-0.6,2.2-1.3c0.5-0.7,0.6-1.6,0.5-2.6c-0.1-1-0.7-2-1.8-2.8
				c-2.5-2-5.4-3.2-8.7-3.5c-3.3-0.3-6.8,0.4-10.4,2c-3.2,1.4-6.3,3.4-9.3,5.9c-3,2.5-5.7,5.3-8.1,8.3c-2.1,2.7-3.9,5.4-5.3,8.3
				c-0.2,0.3-0.4,0.6-0.6,0.9c-0.4,0.7-0.8,1.4-1.3,2.1c-0.4,0.7-0.9,1.3-1.4,1.9c-1.7,1.8-3.7,3.5-6,4.9c-2.3,1.4-4.7,2.5-7.1,3.4
				c-1.8,0.6-3.7,1.1-5.6,1.4c-1.9,0.4-3.8,0.5-5.7,0.5c-1.9-0.1-3.7-0.4-5.4-0.9c-1.7-0.5-3.4-1.4-5-2.6c-2.3-1.7-3.8-3.9-4.4-6.8
				c-0.6-2.9-0.7-6-0.2-9.1c0.5-3.2,1.4-6.4,2.8-9.4c1.3-3.1,2.7-5.7,4.2-7.9c2.6-3.7,5.6-7.2,8.8-10c3.3-2.9,9.2-6.8,14.1-8.7
				c4.5-1.7,8.3-1.9,11-0.4c2.3,1.3,3.3,3.4,3.5,4.5c0.4,1.7,1.6,2.8,3.5,3c2.7,0.3,6-1.5,6.9-3.6c1.7-4.1-2.4-8.6-6.8-11.4
				c-1.9-1.2-4.1-2.1-6.4-2.5c-2.4-0.4-4.9-0.5-7.3-0.1c-2.4,0.4-4.7,0.9-7,1.8c-2.3,0.8-4.5,1.9-6.7,3.1c-2.1,1.2-4.1,2.5-6,3.8
				c-4.2,3-8,6.4-11.3,10.3c-3.4,3.9-6.2,8.2-8.4,12.8c-1.1,2.3-2.1,4.8-2.8,7.4c-0.8,2.7-1.2,5.3-1.4,8c-0.2,2.7-0.1,5.3,0.3,8
				c0.4,2.7,1.3,5.2,2.6,7.6c2,3.7,4.8,6.5,8.4,8.5c3.6,2,7.4,3.2,11.4,3.6c1.2,0.1,2.4,0.2,3.6,0.2c3.5,0,7.1-0.6,10.6-1.7
				c4.7-1.5,9-3.6,12.9-6.2c0.1,0,0.1-0.1,0.2-0.1c0.1,0.1,0.1,0.3,0.2,0.4c0.9,1.9,2.4,3.5,4.3,4.6c1.4,0.9,3.1,1.4,4.9,1.4
				c1.8,0,3.6-0.4,5.3-1.2c1.7-0.9,3.3-2,4.8-3.2c1.5-1.3,2.9-2.7,4.2-4.3c0.5-0.6,1-1.2,1.4-1.8c0,0.5,0,0.9,0,1.4
				c0.1,1.4,0.3,2.7,0.6,3.8c0.3,1.1,0.7,2,1.2,2.9c0.5,0.9,1,1.4,1.5,1.7c1.7,1,3.3,1.6,4.8,1.6c0.1,0,0.2,0,0.3,0
				c1.7,0,3.4-0.5,5-1.4c1.6-0.9,3.2-2.1,4.7-3.6c0.3,0.8,0.7,1.5,1.2,2.1c0.7,0.8,1.4,1.4,2.1,1.9c0.8,0.5,1.6,0.8,2.3,1.1
				c0.8,0.3,1.7,0.5,2.6,0.5c0.1,0,0.1,0,0.2,0c1.5,0,3.2-0.5,4.8-1.5c1.7-1,3.4-2.3,5-3.9c1.6-1.5,2.5-2.5,4.8-5.2
				C169.2,130.7,165.5,125,162.6,127.9z"/>
			<g>
				<path class="st2" d="M233.4,91.7v7.1v5.7h19.4c0.5,1.8,0.7,3.8,0.7,6s-0.2,4.1-0.7,6h-19.4v25c-1.9,0.4-4.3,0.5-7.2,0.5
					c-2.9,0-5.3-0.2-7.2-0.5V80l0.6-0.5h38.8c0.4,1.5,0.5,3.4,0.5,5.6c0,2.3-0.6,3.9-1.9,5c-1.2,1.1-3.2,1.6-5.9,1.6H233.4z"/>
				<path class="st2" d="M254.2,102.6c0.3-1.2,0.9-2.6,1.7-4c0.8-1.5,1.7-2.6,2.5-3.2c5.6,0.4,9.4,3.2,11.6,8.2
					c2.3-5.4,6.1-8.2,11.3-8.2c1.6,0,3.6,0.2,6,0.7c0,1.9-0.3,4.1-1,6.7c-0.6,2.6-1.5,4.8-2.6,6.6c-1-0.4-2.6-0.7-4.6-0.9
					c-3,0-5.5,1.5-7.4,4.6v28.2c-2,0.4-4.3,0.5-7,0.5c-2.7,0-5.1-0.2-7.1-0.5v-29.3C257.6,107.5,256.5,104.4,254.2,102.6z"/>
				<path class="st2" d="M324,123.3h-23.6c0.1,2.7,0.8,4.8,2.1,6.3c1.3,1.5,3.3,2.2,6.2,2.2c1.4,0,3.1-0.2,5-0.6
					c1.9-0.4,4.1-1.1,6.5-2c2,2.1,3.2,4.8,3.7,8.3c-4.8,3.4-10.7,5.2-17.8,5.2c-3.8,0-7-0.6-9.6-1.8c-2.6-1.2-4.7-2.9-6.3-5.1
					c-1.6-2.2-2.7-4.7-3.4-7.7c-0.7-3-1-6.2-1-9.7c0-3.4,0.4-6.5,1.2-9.4c0.8-2.9,2.1-5.4,3.7-7.5c1.7-2.1,3.8-3.8,6.3-5
					c2.6-1.2,5.6-1.8,9-1.8c2.9,0,5.5,0.5,7.8,1.4c2.3,1,4.3,2.3,5.9,4c1.6,1.7,2.9,3.7,3.8,6.1c0.9,2.4,1.3,4.9,1.3,7.7
					C325.1,117.7,324.8,120.8,324,123.3z M300.3,113.5h11.9v-1c0-2.2-0.5-4.1-1.5-5.5c-1-1.4-2.5-2.2-4.5-2.2c-1.9,0-3.3,0.7-4.3,2
					S300.4,110.4,300.3,113.5z"/>
				<path class="st2" d="M327.1,138.2c0.1-1.6,0.5-3.3,1.2-5.2c0.8-1.9,1.6-3.4,2.7-4.4c4.8,2.5,9,3.8,12.6,3.8c1.7,0,3-0.3,3.9-0.9
					c0.9-0.6,1.4-1.3,1.4-2.3c0-1.8-1.4-3.2-4.2-4.1l-5-1.9c-7.5-2.8-11.3-7.3-11.3-13.6c0-4.6,1.6-8.2,4.8-10.9
					c3.2-2.7,7.4-4,12.8-4c2.7,0,5.6,0.4,8.8,1.1c3.2,0.8,5.8,1.6,7.9,2.7c0.1,1.7-0.2,3.6-1,5.6c-0.8,2-1.8,3.5-2.9,4.3
					c-5.1-2.3-9.3-3.4-12.7-3.4c-1.2,0-2.1,0.3-2.8,0.8c-0.6,0.5-1,1.2-1,2.1c0,1.4,1.1,2.6,3.4,3.4l5.6,2c8,2.8,12.1,7.7,12.1,14.6
					c0,4.5-1.7,8.1-5,10.8s-8.1,4-14.2,4C338,142.7,332.3,141.2,327.1,138.2z"/>
				<path class="st2" d="M404.8,111.4V130c0,4,0.7,7,2.3,8.9c-2.3,2-5,3.1-8.3,3.1c-3.1,0-5.3-0.7-6.4-2.2c-1.1-1.4-1.7-3.6-1.7-6.6
					V114c0-2.1-0.3-3.6-0.8-4.6c-0.6-1-1.6-1.5-3.2-1.5c-0.9,0-2,0.2-3.1,0.7c-1.2,0.5-2.4,1.3-3.6,2.4v30.2c-2,0.4-4.3,0.5-6.9,0.5
					c-2.6,0-4.9-0.2-6.9-0.5v-66l0.6-0.6h5.6c2.9,0,4.9,0.6,6,1.9c1.1,1.3,1.7,3.5,1.7,6.6v17.1c4-3.3,8.1-5,12.1-5
					c4,0,7.1,1.5,9.3,4.4C403.7,102.6,404.8,106.5,404.8,111.4z"/>
			</g>
			<g>
				<path class="st3" d="M204.1,61.5c0.1,0.4,0.2,0.9,0.3,1.5C204.3,62.5,204.2,62,204.1,61.5z"/>
				<path class="st3" d="M185.3,114.4c0.5-0.6,0.9-1.2,1.4-1.9c-1.2,1.5-2.3,2.9-3.3,4.3C184,116,184.6,115.2,185.3,114.4z"/>
				<path class="st4" d="M187,145.8c-2.4,5.2-3.5,9.7-3.3,13.5c1.8,1.1,4,1.6,6.3,1.3c5.3-0.7,9-5.5,8.2-10.8c-0.1-1-0.5-2-0.9-2.8
					c-0.4,0.1-0.9,0.2-1.3,0.3C192.8,147.8,189.7,147.2,187,145.8z"/>
				<path class="st0" d="M199.5,88.9c-3.6-0.2-6.8-2.3-8.6-5.3c-7.5,1.4-13,8.1-12.6,15.8c0.2,5,2.8,9.4,6.7,12.1
					c3.8-4.4,10.1-12.6,14.2-21.8C199.3,89.4,199.4,89.1,199.5,88.9z"/>
				<path class="st5" d="M199.5,88.9c3.4-8,3.6-16.1,3.2-21.5c-1-0.3-2-0.4-3-0.4c-5.9,0.2-10.5,5.4-10.3,11.4
					c0.1,1.9,0.7,3.6,1.6,5.2C192.7,86.6,195.9,88.7,199.5,88.9z"/>
				<path class="st6" d="M203.9,120.8c-0.7,0.9-1.4,1.8-2.1,2.7c-6.9,8.4-11.8,15.8-14.7,22.3c2.7,1.3,5.8,1.9,8.9,1.5
					c0.5-0.1,0.9-0.2,1.3-0.3c7.6-1.7,12.8-9,11.7-16.8C208.5,126.4,206.6,123.2,203.9,120.8z"/>
				<polygon class="st2" points="204.2,47.8 201.6,47 204.2,47.8 				"/>
				<path class="st2" d="M200.1,122.2c11.3-13.8,14.2-25.8,15-30.7c1.2-13.2-2.3-27.8-10.7-43.3l0,0c11.7,26.7,10.7,46.2-3.3,65.1
					l0,0c-22.7,27.6-27.2,45.6-14.6,58.6l0,0l0,0c-3.5-3.7-5-7.8-5-12.2C180.9,150.5,187,138.2,200.1,122.2z"/>
				<polygon class="st2" points="186.9,172.2 186.7,172.2 186.9,175.1 				"/>
				<path class="st1" d="M201.1,113.4L201.1,113.4c14.1-18.9,15.1-38.4,3.4-65.1l0,0l-0.2-0.4l0,0l-2.6-0.8l-1.2,2.5l0.2,0.4
					c1.7,3.9,2.8,7.7,3.6,11.3l0,0c0,0.1,0,0.1,0,0.2c0.1,0.5,0.2,1,0.3,1.5c0.8,5,1.8,16.4-3.2,27.6c-3.5,7.8-9.4,15.3-14.6,22
					c-0.5,0.6-0.9,1.2-1.4,1.9c-0.7,0.8-1.3,1.6-1.9,2.5c-0.6,0.8-1.1,1.5-1.6,2.2c-12.7,18.4-12.2,41.5,1.8,55.8l0.3,0.3l2.9-0.1
					l0.2-2.9v0l-0.4-0.3l0,0C173.8,159,178.3,140.9,201.1,113.4z"/>
			</g>
			<g>
				<path class="st7" d="M266.7,165.2l0.2,1.6v1.4h4.5c0.1,0.4,0.2,0.8,0.2,1.3c0,0.5-0.1,0.9-0.2,1.3h-4.5v5.5
					c-0.4,0.1-1,0.1-1.7,0.1c-0.7,0-1.2,0-1.7-0.1v-13.7l0.1-0.1h8.6c0.1,0.3,0.1,0.8,0.1,1.3c0,0.5-0.1,0.9-0.4,1.1
					c-0.3,0.2-0.7,0.4-1.3,0.4H266.7z"/>
				<path class="st7" d="M292.1,175.4c-1.5-1.2-2.2-3.2-2.2-6c0-1.2,0.1-2.3,0.4-3.2c0.3-0.9,0.7-1.7,1.2-2.3
					c0.5-0.6,1.2-1.1,1.9-1.4c0.8-0.3,1.6-0.5,2.5-0.5c0.9,0,1.8,0.2,2.6,0.5c0.8,0.3,1.4,0.8,1.9,1.4c0.5,0.6,0.9,1.4,1.2,2.3
					c0.3,0.9,0.4,2,0.4,3.2c0,1.2-0.1,2.2-0.4,3.2c-0.3,0.9-0.7,1.7-1.2,2.3c-0.5,0.6-1.2,1.1-1.9,1.4c-0.8,0.3-1.6,0.5-2.6,0.5
					C294.5,176.7,293.2,176.2,292.1,175.4z M293.8,172.5c0.4,1.1,1.1,1.6,2.2,1.6c0.6,0,1-0.1,1.4-0.4c0.3-0.3,0.6-0.6,0.8-1.1
					c0.2-0.4,0.3-0.9,0.4-1.4c0.1-0.5,0.1-1.1,0.1-1.6c0-0.5,0-1-0.1-1.6c0-0.6-0.1-1.1-0.3-1.7c-0.2-0.5-0.4-0.9-0.8-1.3
					c-0.4-0.3-0.9-0.5-1.6-0.5c-0.7,0-1.2,0.2-1.5,0.5c-0.3,0.3-0.6,0.8-0.8,1.2c-0.2,0.5-0.3,1-0.3,1.6c0,0.6-0.1,1-0.1,1.5
					c0,0.6,0,1.2,0.1,1.7C293.5,171.5,293.6,172,293.8,172.5z"/>
				<path class="st7" d="M322.3,175.4c-1.5-1.2-2.2-3.2-2.2-6c0-1.2,0.1-2.3,0.4-3.2c0.3-0.9,0.7-1.7,1.2-2.3
					c0.5-0.6,1.2-1.1,1.9-1.4c0.8-0.3,1.6-0.5,2.5-0.5c0.9,0,1.8,0.2,2.6,0.5c0.8,0.3,1.4,0.8,1.9,1.4c0.5,0.6,0.9,1.4,1.2,2.3
					c0.3,0.9,0.4,2,0.4,3.2c0,1.2-0.1,2.2-0.4,3.2c-0.3,0.9-0.7,1.7-1.2,2.3c-0.5,0.6-1.2,1.1-1.9,1.4c-0.8,0.3-1.6,0.5-2.6,0.5
					C324.6,176.7,323.3,176.2,322.3,175.4z M324,172.5c0.4,1.1,1.1,1.6,2.2,1.6c0.6,0,1-0.1,1.4-0.4c0.3-0.3,0.6-0.6,0.8-1.1
					c0.2-0.4,0.3-0.9,0.4-1.4c0.1-0.5,0.1-1.1,0.1-1.6c0-0.5,0-1-0.1-1.6c0-0.6-0.1-1.1-0.3-1.7c-0.2-0.5-0.4-0.9-0.8-1.3
					c-0.4-0.3-0.9-0.5-1.6-0.5c-0.7,0-1.2,0.2-1.5,0.5c-0.3,0.3-0.6,0.8-0.8,1.2c-0.2,0.5-0.3,1-0.3,1.6c0,0.6-0.1,1-0.1,1.5
					c0,0.6,0,1.2,0.1,1.7C323.7,171.5,323.8,172,324,172.5z"/>
				<path class="st7" d="M360.1,175.5c-0.4,0.4-1,0.6-1.7,0.8c-0.7,0.2-1.5,0.2-2.4,0.2c-0.4,0-1,0-1.8,0c-0.8,0-1.8,0-3-0.1
					l-0.1-0.1v-13.8l0.1-0.1c0.8,0,1.6,0,2.5-0.1s1.8,0,2.7,0c1.2,0,2.1,0.2,2.9,0.6c0.8,0.4,1.4,0.9,1.9,1.5s0.8,1.4,1,2.3
					c0.2,0.9,0.3,1.8,0.3,2.8c0,1.4-0.2,2.6-0.5,3.6C361.6,173.9,361,174.8,360.1,175.5z M356.4,173.9c1.8,0,2.7-1.5,2.7-4.5
					c0-3-0.9-4.6-2.7-4.6c-0.4,0-0.8,0-1.2,0c-0.3,0-0.6,0-0.9,0v9.2c0.2,0,0.5,0,0.9,0C355.6,173.9,355.9,173.9,356.4,173.9z"/>
			</g>
		</g>
		<rect x="463.2" y="47" class="st8" width="4.2" height="142"/>
		<g>
			<g>
				<g>
					<path class="st9" d="M679,76.2c0-7.4,5.4-12.5,12.2-12.5c2.4,0,4.4,0.6,6,1.4l1.5-1.6h0.3v8.1h-0.4c-1.8-4.7-4.2-7.3-7.8-7.3
						c-4,0-7.3,3.6-7.3,11.5c0,7.8,4.2,10.9,8.2,10.9c3.8,0,6.5-2.4,8-5.6l0.6,0.3c-1.4,3.3-4.4,6.6-9.7,6.6
						C683.6,88.1,679,83.4,679,76.2"/>
					<path class="st9" d="M711.8,84.3v-5c-4.4,0.9-5.4,1.8-5.4,4.1c0,1.6,0.8,2.7,2.5,2.7C710,86.2,711.1,85.2,711.8,84.3 M702.6,84
						c0-1.3,0.6-2.6,2-3.4c2.5-1.4,6.4-1.6,7.1-1.9v-2.4c0-2.5-0.7-3.7-2.7-3.7c-1.1,0-2.2,0.4-2.8,1c0.6,0.5,0.9,1.1,0.9,1.8
						c0,1.2-0.7,2-2,2c-1.2,0-1.9-0.9-1.9-2c0-2,2.4-3.4,6.2-3.4c3.8,0,5.8,1.5,5.8,4.9v7.8c0,1.6,0.6,2.3,2.5,1.5l0.1,0.3
						c-1.2,0.7-2,1.1-3.2,1.1c-1.9,0-2.6-0.8-2.8-2.6h-0.1c-1.3,1.5-2.8,2.6-4.9,2.6C703.9,87.7,702.6,85.9,702.6,84"/>
					<path class="st9" d="M718.4,87.1c1.9,0,2.4-0.3,2.4-1.3V65.9c0-1.1-0.3-1.6-2.7-1.7v-0.4l6.2-0.2v22.2c0,1,0.4,1.2,2.4,1.3v0.4
						h-8.3V87.1z"/>
					<path class="st9" d="M730.1,67c0-1.4,0.9-2.3,2.2-2.3c1.3,0,2.2,0.9,2.2,2.2c0,1.3-0.9,2.3-2.2,2.3
						C730.9,69.2,730.1,68.4,730.1,67 M728.2,87.1c1.9,0,2.4-0.3,2.4-1.3V74.4c0-1-0.5-1.6-2.4-1.7v-0.4l5.9-0.2v13.8
						c0,1,0.4,1.2,2.4,1.3v0.4h-8.4V87.1z"/>
					<path class="st9" d="M738.1,87.1c1.9,0,2.4-0.3,2.4-1.3V73.3h-2.9v-0.4l2.9-0.7v-1.3c0-2.8,0.7-4.6,1.9-5.8
						c1.1-1.1,2.6-1.7,4.3-1.7c2.9,0,4.3,1.3,4.3,2.7c0,1.2-0.7,2-1.9,2c-1,0-2-0.6-2-2.1c0-0.4,0.3-1.2,0.5-1.5
						c-0.3-0.3-0.7-0.5-1.2-0.5c-0.6,0-1,0.2-1.4,0.6c-0.6,0.6-0.9,1.7-0.9,4.3v3.4h4.2v1H744v12.5c0,1,0.7,1.2,3.2,1.3v0.4h-9V87.1
						z"/>
					<path class="st9" d="M760.8,79.8c0-5.2-1.5-7.3-4-7.3c-2.5,0-3.8,2.1-3.8,7.3c0,5.2,1.5,7.3,4.1,7.3
						C759.5,87.1,760.8,85,760.8,79.8 M749.1,79.9c0-4.7,3.5-8,7.8-8c4.4,0,7.8,3.1,7.8,7.9c0,4.8-3.5,8-7.8,8
						C752.5,87.8,749.1,84.6,749.1,79.9"/>
					<path class="st9" d="M766.5,87.1c1.9,0,2.4-0.3,2.4-1.3V74.4c0-1-0.5-1.6-2.4-1.7v-0.4l5.8-0.2v3.4c1.2-2.2,2.8-3.5,4.5-3.5
						c1.8,0,2.7,1.1,2.7,2.4c0,1.3-0.8,2.2-2,2.2c-1.2,0-2.1-0.9-2.1-2.1c0-0.3,0.1-0.8,0.2-1c-1.3,0.2-2.2,1.1-3.2,2.8v9.6
						c0,1,0.6,1.2,2.9,1.3v0.4h-8.8V87.1z"/>
					<path class="st9" d="M780.3,87.1c1.9,0,2.4-0.3,2.4-1.3V74.4c0-1-0.5-1.6-2.4-1.7v-0.4l5.8-0.2v3.6c1.5-2.4,3.5-3.7,5.8-3.7
						c2.6,0,4.1,1.6,4.1,4.7v9.2c0,1,0.4,1.2,2.4,1.3v0.4h-7.9v-0.4c1.5,0,2-0.3,2-1.3v-8.6c0-2.4-0.7-3.6-2.7-3.6
						c-1.4,0-2.7,1.1-3.6,2.8v9.4c0,1,0.5,1.2,2,1.3v0.4h-7.8V87.1z"/>
					<path class="st9" d="M801.2,67c0-1.4,0.9-2.3,2.2-2.3c1.3,0,2.2,0.9,2.2,2.2c0,1.3-0.9,2.3-2.2,2.3
						C802,69.2,801.2,68.4,801.2,67 M799.3,87.1c1.9,0,2.4-0.3,2.4-1.3V74.4c0-1-0.5-1.6-2.4-1.7v-0.4l5.9-0.2v13.8
						c0,1,0.4,1.2,2.4,1.3v0.4h-8.4V87.1z"/>
					<path class="st9" d="M818.7,84.3v-5c-4.4,0.9-5.4,1.8-5.4,4.1c0,1.6,0.8,2.7,2.5,2.7C816.9,86.2,818,85.2,818.7,84.3 M809.5,84
						c0-1.3,0.6-2.6,2-3.4c2.5-1.4,6.4-1.6,7.1-1.9v-2.4c0-2.5-0.7-3.7-2.7-3.7c-1.1,0-2.2,0.4-2.8,1c0.6,0.5,0.9,1.1,0.9,1.8
						c0,1.2-0.7,2-2,2c-1.2,0-1.9-0.9-1.9-2c0-2,2.4-3.4,6.2-3.4s5.8,1.5,5.8,4.9v7.8c0,1.6,0.6,2.3,2.5,1.5l0.1,0.3
						c-1.2,0.7-2,1.1-3.2,1.1c-1.9,0-2.6-0.8-2.8-2.6h-0.1c-1.3,1.5-2.8,2.6-4.9,2.6C810.8,87.7,809.5,85.9,809.5,84"/>
					<path class="st9" d="M830.6,79.8h0.5c2,4.4,4.4,7.5,7.9,7.5c3.3,0,4.9-2.2,4.9-4.3c0-2.9-2-4.1-6.1-5.5
						c-3.3-1.2-6.8-2.2-6.8-6.5c0-4.4,3.4-7.1,7.9-7.1c2,0,3.8,0.6,5,1.1l1.2-1.3h0.4V71H845c-1.8-4.4-4-6.6-6.7-6.6
						c-2.3,0-4.3,1.5-4.3,4.1c0,2.9,2.2,3.9,6,5.2c3.2,1.1,6.6,2.2,6.6,6.6c0,3.7-2.2,7.7-7.9,7.7c-1.9,0-4.1-0.7-5.6-1.5l-2,1.6
						h-0.4V79.8z"/>
					<path class="st9" d="M851.3,83.4V73.3h-3.1v-0.4l3.1-0.7v-4.2l3.5-1.3v5.6h4.7v1h-4.7v10.4c0,2,0.6,2.8,1.9,2.8
						c1,0,1.9-0.7,2.8-2.2l0.4,0.3c-1.1,2.2-2.5,3.3-4.6,3.3C852.7,87.8,851.3,86.5,851.3,83.4"/>
					<path class="st9" d="M870.3,84.3v-5c-4.4,0.9-5.4,1.8-5.4,4.1c0,1.6,0.8,2.7,2.5,2.7C868.6,86.2,869.6,85.2,870.3,84.3
						 M861.2,84c0-1.3,0.6-2.6,2-3.4c2.5-1.4,6.4-1.6,7.1-1.9v-2.4c0-2.5-0.7-3.7-2.7-3.7c-1.1,0-2.2,0.4-2.8,1
						c0.6,0.5,0.9,1.1,0.9,1.8c0,1.2-0.7,2-2,2c-1.2,0-1.9-0.9-1.9-2c0-2,2.4-3.4,6.2-3.4s5.8,1.5,5.8,4.9v7.8
						c0,1.6,0.6,2.3,2.5,1.5l0.1,0.3c-1.2,0.7-2,1.1-3.2,1.1c-1.9,0-2.6-0.8-2.8-2.6h-0.1c-1.3,1.5-2.8,2.6-4.9,2.6
						C862.5,87.7,861.2,85.9,861.2,84"/>
					<path class="st9" d="M879.4,83.4V73.3h-3.1v-0.4l3.1-0.7v-4.2l3.5-1.3v5.6h4.7v1h-4.7v10.4c0,2,0.6,2.8,1.9,2.8
						c1,0,1.9-0.7,2.8-2.2l0.4,0.3c-1.1,2.2-2.5,3.3-4.6,3.3C880.8,87.8,879.4,86.5,879.4,83.4"/>
					<path class="st9" d="M892.8,78.4h6.5c0.3-3.7-0.5-5.9-3-5.9C894.3,72.5,893,74.5,892.8,78.4 M889,80c0-4.8,3.5-8.1,7.5-8.1
						c4.5,0,6.8,3.1,6.5,7.1h-10.2v0.8v0.1c0,3.9,1.7,6.6,5.2,6.6c2.1,0,3.3-1.1,4.7-2.8l0.4,0.3c-1.3,2.2-3.2,3.9-6.6,3.9
						C892,87.8,889,84.6,889,80"/>
					<path class="st9" d="M911.3,80.7V66.9c0-1.3-0.8-2.1-3.6-2.2v-0.4h10.9v0.4c-2.8,0.1-3.4,0.8-3.4,2.2v13.5c0,5,3,6.6,6.8,6.6
						c1.7,0,3.2-0.5,4.3-1.5c1.2-1.2,1.9-2.9,1.9-5.4V69.8c0-3.3-1.1-4.7-4.5-5.1v-0.4h9.2v0.4c-3.1,0.5-3.9,1.9-3.9,5.1v10.5
						c0,4.7-2.6,7.8-8.6,7.8C914.6,88.1,911.3,85.6,911.3,80.7"/>
					<path class="st9" d="M932.4,87.1c1.9,0,2.4-0.3,2.4-1.3V74.4c0-1-0.5-1.6-2.4-1.7v-0.4l5.8-0.2v3.6c1.5-2.4,3.5-3.7,5.8-3.7
						c2.6,0,4.1,1.6,4.1,4.7v9.2c0,1,0.4,1.2,2.4,1.3v0.4h-7.9v-0.4c1.5,0,2-0.3,2-1.3v-8.6c0-2.4-0.7-3.6-2.7-3.6
						c-1.4,0-2.7,1.1-3.6,2.8v9.4c0,1,0.5,1.2,2,1.3v0.4h-7.8V87.1z"/>
					<path class="st9" d="M953.3,67c0-1.4,0.9-2.3,2.2-2.3c1.3,0,2.2,0.9,2.2,2.2c0,1.3-0.9,2.3-2.2,2.3
						C954.2,69.2,953.3,68.4,953.3,67 M951.5,87.1c1.9,0,2.4-0.3,2.4-1.3V74.4c0-1-0.5-1.6-2.4-1.7v-0.4l5.9-0.2v13.8
						c0,1,0.4,1.2,2.4,1.3v0.4h-8.4V87.1z"/>
					<path class="st9" d="M962.5,75c-0.7-1.7-1.3-2.3-2.9-2.5v-0.4h8.2v0.4c-1.4,0.1-2,0.5-2,1.2c0,0.3,0.1,0.5,0.2,0.9l3.6,9.4h0.1
						l3-7.7c0.3-0.9,0.6-1.6,0.6-2.1c0-1-0.8-1.5-2.4-1.7v-0.4h6.1v0.4c-1.2,0.2-2.2,1.1-3,2.9l-5.2,12.3h-1.3L962.5,75z"/>
					<path class="st9" d="M980.8,78.4h6.5c0.3-3.7-0.5-5.9-3-5.9C982.2,72.5,981,74.5,980.8,78.4 M976.9,80c0-4.8,3.5-8.1,7.5-8.1
						c4.5,0,6.8,3.1,6.5,7.1h-10.2v0.8v0.1c0,3.9,1.7,6.6,5.2,6.6c2.1,0,3.3-1.1,4.7-2.8l0.4,0.3c-1.3,2.2-3.2,3.9-6.6,3.9
						C980,87.8,976.9,84.6,976.9,80"/>
					<path class="st9" d="M992.7,87.1c1.9,0,2.4-0.3,2.4-1.3V74.4c0-1-0.5-1.6-2.4-1.7v-0.4l5.8-0.2v3.4c1.2-2.2,2.8-3.5,4.5-3.5
						c1.8,0,2.7,1.1,2.7,2.4c0,1.3-0.8,2.2-2,2.2c-1.2,0-2.1-0.9-2.1-2.1c0-0.3,0.1-0.8,0.2-1c-1.3,0.2-2.2,1.1-3.2,2.8v9.6
						c0,1,0.6,1.2,2.9,1.3v0.4h-8.8V87.1z"/>
					<path class="st9" d="M1007.1,82.2h0.5c2.1,3.7,3.4,4.9,5.8,4.9c1.9,0,2.9-1.3,2.9-2.6c0-1.5-0.9-2.4-4.2-3.3
						c-3.4-1-4.8-2-4.8-4.5c0-2.9,2.2-4.9,5.6-4.9c1.5,0,2.9,0.5,3.8,1l0.8-1h0.4v5h-0.5c-1.9-3.1-2.9-4.3-4.9-4.3
						c-1.5,0-2.7,1-2.7,2.6c0,1.4,1.3,2.2,3.9,2.8c3.4,0.9,5,2.1,5,4.7c0,2.8-2,5.1-5.6,5.1c-1.2,0-3.4-0.5-4.4-1.2l-1.1,1.2h-0.4
						V82.2z"/>
					<path class="st9" d="M1022.4,67c0-1.4,0.9-2.3,2.2-2.3c1.3,0,2.2,0.9,2.2,2.2c0,1.3-0.9,2.3-2.2,2.3
						C1023.3,69.2,1022.4,68.4,1022.4,67 M1020.6,87.1c1.9,0,2.4-0.3,2.4-1.3V74.4c0-1-0.5-1.6-2.4-1.7v-0.4l5.9-0.2v13.8
						c0,1,0.4,1.2,2.4,1.3v0.4h-8.4V87.1z"/>
					<path class="st9" d="M1032.6,83.4V73.3h-3.1v-0.4l3.1-0.7v-4.2l3.5-1.3v5.6h7.3v1h-7.3v10.4c0,2,0.6,2.8,1.9,2.8
						c1,0,1.9-0.7,2.8-2.2l0.4,0.3c-1.1,2.2-2.5,3.3-4.6,3.3C1034,87.8,1032.6,86.5,1032.6,83.4"/>
					<path class="st9" d="M1043.6,75.2c-0.8-1.7-1.4-2.3-3-2.5v-0.4h8.3v0.4c-2,0.2-2.2,0.9-1.7,2.1l3.9,9.2l3-7.6
						c1-2.7,0.6-3.3-1.8-3.7v-0.4h6v0.4c-1.2,0.2-2.2,1-3,2.7l-5.5,13.3c-1.8,4.3-3.4,5.5-5.3,5.5c-1.6,0-2.6-1.1-2.6-2.4
						c0-1,0.6-2,1.9-2c1,0,1.9,0.9,1.9,2c0,0.7-0.3,1.3-0.7,1.7c1.3-0.2,2.6-1.1,4.2-5.1l0.2-0.5L1043.6,75.2z"/>
					<path class="st8" d="M1061.7,76.3c0-7.9,5.8-12.6,12.6-12.6c2.5,0,4.7,0.7,6.2,1.6l1.6-1.7h0.4v9.1h-0.5
						c-2.4-5.1-4.4-8.3-8.2-8.3c-3.7,0-6,4.1-6,11.2c0,7.3,3.1,11.1,7.4,11.1c3.4,0,5.8-1.5,7.5-5.2l0.6,0.3
						c-1.4,3.3-4.2,6.3-10,6.3C1066,88.1,1061.7,83.7,1061.7,76.3"/>
					<path class="st8" d="M1085.1,87.1c1.9,0,2.2-0.4,2.2-1.2V66c0-1-0.3-1.6-2.4-1.6V64l7.5-0.4v11.5c1.4-2,3.6-3.3,5.8-3.3
						c3,0,4.3,1.8,4.3,5v9.1c0,0.8,0.3,1.1,2.3,1.2v0.4h-9.1v-0.4c1.2,0,1.7-0.4,1.7-1.2v-9.1c0-1.7-0.7-2.8-2.2-2.8
						c-1,0-1.8,0.7-2.7,1.7v10.1c0,0.8,0.5,1.1,1.7,1.2v0.4h-9V87.1z"/>
					<path class="st8" d="M1107.5,66.8c0-1.8,1.2-3,3-3c1.8,0,3,1.1,3,2.9c0,1.8-1.2,3-3,3C1108.7,69.7,1107.5,68.7,1107.5,66.8
						 M1105.6,87.1c1.9,0,2.4-0.4,2.4-1.2V74.4c0-1-0.5-1.6-2.4-1.6v-0.4l7.5-0.4v14c0,0.8,0.3,1.1,2.2,1.2v0.4h-9.8V87.1z"/>
					<path class="st8" d="M1116.6,80c0-5.2,3.6-8.2,8.5-8.2c4.8,0,6.5,2.1,6.5,3.8c0,1.6-0.9,2.7-2.6,2.7c-1.9,0-2.8-1.2-2.8-2.5
						c0-1.1,0.7-1.9,1.3-2.2c-0.3-0.6-1.1-1.1-2.3-1.1c-2.1,0-3.2,2.9-3.2,7.3c0,3.4,1.3,6.7,4.5,6.7c1.7,0,3.6-1,4.9-2.7l0.4,0.2
						c-1.6,2.4-3.7,3.9-7,3.9C1119.7,87.8,1116.6,84.9,1116.6,80"/>
					<path class="st8" d="M1144.6,79.7c0-4.5-0.7-7.3-3-7.3c-2.2,0-2.7,2.8-2.7,7.3c0,4.5,0.7,7.4,3,7.4
						C1144.1,87.1,1144.6,84.2,1144.6,79.7 M1133.4,79.8c0-5,3.2-8,8.3-8c5.2,0,8.3,2.9,8.3,7.9c0,5-3.2,8.1-8.3,8.1
						C1136.4,87.8,1133.4,84.8,1133.4,79.8"/>
				</g>
				<g>
					<g>
						<path class="st9" d="M678.9,116.8L678.9,116.8c0-8.2,6.1-14.9,14.8-14.9c5.3,0,8.5,1.8,11.2,4.5l-3.2,3.7
							c-2.3-2.1-4.8-3.6-8-3.6c-5.4,0-9.5,4.5-9.5,10.1v0.1c0,5.6,4,10.2,9.5,10.2c3.5,0,5.8-1.4,8.2-3.7l3.2,3.3
							c-3,3.1-6.3,5.1-11.6,5.1C685.1,131.5,678.9,125,678.9,116.8z"/>
						<path class="st9" d="M708.2,120.3L708.2,120.3c0-6.3,4.4-11.3,10.6-11.3c6.9,0,10.4,5.4,10.4,11.6c0,0.5,0,0.9-0.1,1.4h-15.9
							c0.5,3.5,3,5.5,6.2,5.5c2.4,0,4.1-0.9,5.9-2.6l2.9,2.6c-2,2.5-4.9,4.1-8.8,4.1C713,131.5,708.2,127,708.2,120.3z M724.2,118.7
							c-0.3-3.2-2.2-5.7-5.5-5.7c-3,0-5.2,2.3-5.6,5.7H724.2z"/>
						<path class="st9" d="M734.1,109.4h5v3.3c1.4-2,3.4-3.8,6.8-3.8c4.9,0,7.7,3.3,7.7,8.3v13.8h-5v-12.3c0-3.4-1.7-5.3-4.6-5.3
							c-2.9,0-4.9,2-4.9,5.4v12.2h-5V109.4z"/>
						<path class="st9" d="M760.6,125.1v-11.4h-2.7v-4.3h2.7v-5.9h5v5.9h5.8v4.3h-5.8v10.6c0,1.9,1,2.7,2.7,2.7
							c1.1,0,2.1-0.2,3.1-0.7v4.1c-1.2,0.7-2.6,1.1-4.5,1.1C763.2,131.4,760.6,129.8,760.6,125.1z"/>
						<path class="st9" d="M774.6,120.3L774.6,120.3c0-6.3,4.4-11.3,10.6-11.3c6.9,0,10.4,5.4,10.4,11.6c0,0.5,0,0.9-0.1,1.4h-15.9
							c0.5,3.5,3,5.5,6.2,5.5c2.4,0,4.1-0.9,5.9-2.6l2.9,2.6c-2,2.5-4.9,4.1-8.8,4.1C779.4,131.5,774.6,127,774.6,120.3z
							 M790.6,118.7c-0.3-3.2-2.2-5.7-5.5-5.7c-3,0-5.2,2.3-5.6,5.7H790.6z"/>
						<path class="st9" d="M800.5,109.4h5v4.9c1.4-3.2,3.9-5.4,7.7-5.3v5.2h-0.3c-4.3,0-7.4,2.8-7.4,8.6v8.2h-5V109.4z"/>
						<path class="st9" d="M830.8,113.7h-2.7v-4.1h2.7v-1.6c0-2.4,0.6-4.2,1.8-5.3c1.1-1.1,2.7-1.7,4.9-1.7c1.7,0,2.9,0.2,4,0.6v4.2
							c-1-0.3-1.8-0.5-2.9-0.5c-1.9,0-2.9,1-2.9,3.3v1.2h5.7v4.1h-5.7v17.4h-5V113.7z"/>
						<path class="st9" d="M843.5,120.4L843.5,120.4c0-6.3,4.9-11.4,11.6-11.4c6.6,0,11.5,5,11.5,11.2v0.1c0,6.1-4.9,11.3-11.6,11.3
							C848.4,131.5,843.5,126.5,843.5,120.4z M861.7,120.4L861.7,120.4c0-3.9-2.7-7-6.6-7c-4,0-6.5,3.1-6.5,6.9v0.1
							c0,3.8,2.7,6.9,6.6,6.9C859.1,127.2,861.7,124.1,861.7,120.4z"/>
						<path class="st9" d="M871.7,109.4h5v4.9c1.4-3.2,3.9-5.4,7.7-5.3v5.2H884c-4.3,0-7.4,2.8-7.4,8.6v8.2h-5V109.4z"/>
						<path class="st9" d="M901.4,102.4h5v11.9h13.7v-11.9h5v28.7h-5V119h-13.7v12.1h-5V102.4z"/>
						<path class="st9" d="M930.8,120.3L930.8,120.3c0-6.3,4.4-11.3,10.6-11.3c6.9,0,10.4,5.4,10.4,11.6c0,0.5,0,0.9-0.1,1.4h-15.9
							c0.5,3.5,3,5.5,6.2,5.5c2.4,0,4.1-0.9,5.9-2.6l2.9,2.6c-2,2.5-4.9,4.1-8.8,4.1C935.7,131.5,930.8,127,930.8,120.3z
							 M946.8,118.7c-0.3-3.2-2.2-5.7-5.5-5.7c-3,0-5.2,2.3-5.6,5.7H946.8z"/>
						<path class="st9" d="M955.3,124.8L955.3,124.8c0-4.8,3.6-7,8.9-7c2.4,0,4.1,0.4,5.8,0.9v-0.5c0-3.1-1.9-4.7-5.4-4.7
							c-2.4,0-4.2,0.5-6.2,1.4l-1.3-3.9c2.4-1.1,4.7-1.8,8.2-1.8c3.2,0,5.7,0.9,7.2,2.4c1.6,1.6,2.3,3.9,2.3,6.7v12.8H970v-2.7
							c-1.5,1.8-3.7,3.2-7,3.2C958.9,131.5,955.3,129.2,955.3,124.8z M970.2,123.3v-1.5c-1.3-0.5-2.9-0.9-4.9-0.9
							c-3.2,0-5.1,1.4-5.1,3.6v0.1c0,2.1,1.8,3.3,4.2,3.3C967.7,127.9,970.2,126,970.2,123.3z"/>
						<path class="st9" d="M981.1,101.1h5v29.9h-5V101.1z"/>
						<path class="st9" d="M993.6,125.1v-11.4h-2.7v-4.3h2.7v-5.9h5v5.9h5.8v4.3h-5.8v10.6c0,1.9,1,2.7,2.7,2.7
							c1.1,0,2.1-0.2,3.1-0.7v4.1c-1.2,0.7-2.6,1.1-4.5,1.1C996.1,131.4,993.6,129.8,993.6,125.1z"/>
						<path class="st9" d="M1009.4,101.1h5v11.6c1.4-2,3.4-3.8,6.8-3.8c4.9,0,7.7,3.3,7.7,8.3v13.8h-5v-12.3c0-3.4-1.7-5.3-4.6-5.3
							c-2.9,0-4.9,2-4.9,5.4v12.2h-5V101.1z"/>
						<path class="st9" d="M1049.2,109.4h5.2l-8.6,22.2c-1.7,4.4-3.6,6.1-7.1,6.1c-2,0-3.6-0.5-5.1-1.3l1.7-3.7
							c0.9,0.5,1.9,0.8,2.9,0.8c1.4,0,2.3-0.6,3.1-2.5l-9-21.7h5.3l6.1,16.1L1049.2,109.4z"/>
						<path class="st9" d="M678.9,157.9L678.9,157.9c0-8.2,6.1-14.9,14.8-14.9c5.3,0,8.5,1.8,11.2,4.5l-3.2,3.7
							c-2.3-2.1-4.8-3.6-8-3.6c-5.4,0-9.5,4.5-9.5,10.1v0.1c0,5.6,4,10.2,9.5,10.2c3.5,0,5.8-1.4,8.2-3.7l3.2,3.3
							c-3,3.1-6.3,5.1-11.6,5.1C685.1,172.6,678.9,166.1,678.9,157.9z"/>
						<path class="st9" d="M708.2,161.4L708.2,161.4c0-6.3,4.9-11.4,11.6-11.4c6.6,0,11.5,5,11.5,11.2v0.1c0,6.1-4.9,11.3-11.6,11.3
							C713.1,172.6,708.2,167.6,708.2,161.4z M726.3,161.4L726.3,161.4c0-3.9-2.7-7-6.6-7c-4,0-6.5,3.1-6.5,6.9v0.1
							c0,3.8,2.7,6.9,6.6,6.9C723.8,168.3,726.3,165.2,726.3,161.4z"/>
						<path class="st9" d="M736.3,150.5h5v3.3c1.4-1.9,3.3-3.7,6.6-3.7c3.1,0,5.3,1.5,6.5,3.8c1.7-2.3,4-3.8,7.3-3.8
							c4.7,0,7.6,3,7.6,8.3v13.8h-5v-12.3c0-3.4-1.6-5.3-4.4-5.3c-2.7,0-4.6,1.9-4.6,5.4v12.2h-5v-12.3c0-3.4-1.6-5.2-4.4-5.2
							s-4.6,2-4.6,5.4v12.2h-5V150.5z"/>
						<path class="st9" d="M775.2,150.5h5v3.3c1.4-1.9,3.3-3.7,6.6-3.7c3.1,0,5.3,1.5,6.5,3.8c1.7-2.3,4-3.8,7.3-3.8
							c4.7,0,7.6,3,7.6,8.3v13.8h-5v-12.3c0-3.4-1.6-5.3-4.4-5.3c-2.7,0-4.6,1.9-4.6,5.4v12.2h-5v-12.3c0-3.4-1.6-5.2-4.4-5.2
							c-2.7,0-4.6,2-4.6,5.4v12.2h-5V150.5z"/>
						<path class="st9" d="M813.9,164.3v-13.8h5v12.3c0,3.4,1.7,5.2,4.6,5.2c2.9,0,4.9-2,4.9-5.3v-12.2h5v21.6h-5v-3.4
							c-1.4,2-3.4,3.8-6.8,3.8C816.8,172.6,813.9,169.3,813.9,164.3z"/>
						<path class="st9" d="M839.6,150.5h5v3.3c1.4-2,3.4-3.8,6.8-3.8c4.9,0,7.7,3.3,7.7,8.3v13.8h-5v-12.3c0-3.4-1.7-5.3-4.6-5.3
							c-2.9,0-4.9,2-4.9,5.4v12.2h-5V150.5z"/>
						<path class="st9" d="M865.1,142.5h5.3v4.7h-5.3V142.5z M865.3,150.5h5v21.6h-5V150.5z"/>
						<path class="st9" d="M877.7,166.1v-11.4H875v-4.3h2.7v-5.9h5v5.9h5.8v4.3h-5.8v10.6c0,1.9,1,2.7,2.7,2.7
							c1.1,0,2.1-0.2,3.1-0.7v4.1c-1.2,0.7-2.6,1.1-4.5,1.1C880.3,172.5,877.7,170.9,877.7,166.1z"/>
						<path class="st9" d="M893.6,142.5h5.3v4.7h-5.3V142.5z M893.8,150.5h5v21.6h-5V150.5z"/>
						<path class="st9" d="M904.1,161.4L904.1,161.4c0-6.3,4.4-11.3,10.6-11.3c6.9,0,10.4,5.4,10.4,11.6c0,0.5,0,0.9-0.1,1.4H909
							c0.5,3.5,3,5.5,6.2,5.5c2.4,0,4.1-0.9,5.9-2.6l2.9,2.6c-2,2.5-4.9,4.1-8.8,4.1C908.9,172.6,904.1,168.1,904.1,161.4z
							 M920.1,159.8c-0.3-3.2-2.2-5.7-5.5-5.7c-3,0-5.2,2.3-5.6,5.7H920.1z"/>
						<path class="st9" d="M928.2,169.3l2.2-3.4c2.4,1.8,4.9,2.7,7.1,2.7c2.1,0,3.4-0.9,3.4-2.3v-0.1c0-1.7-2.3-2.3-4.8-3
							c-3.2-0.9-6.8-2.2-6.8-6.3v-0.1c0-4.1,3.4-6.6,7.7-6.6c2.7,0,5.7,0.9,7.9,2.5l-2,3.5c-2.1-1.3-4.3-2-6.1-2c-1.9,0-3,0.9-3,2.1
							v0.1c0,1.6,2.3,2.3,4.9,3.1c3.2,1,6.7,2.4,6.7,6.3v0.1c0,4.5-3.5,6.8-8,6.8C934.4,172.5,931,171.4,928.2,169.3z"/>
					</g>
				</g>
			</g>
			<g>
				<circle class="st7" cx="594.5" cy="118" r="71"/>
				<path class="st8" d="M594.7,47c-39.2-0.1-71.1,31.5-71.2,70.8c-0.1,39.2,31.5,71.1,70.8,71.2c2.3,0,4.7-0.1,7-0.3
					c24.6-3.7,49.5-28.2,3.7-42.9c-5.9-2.2-12-4.5-16.6-7.8c-3.3-2.3-5.8-5.4-8.1-8.3c-4.8-6-9.4-11.6-20.5-12.4
					c-0.2,0-0.4-0.2-0.4-0.5c0-0.2,0.2-0.4,0.4-0.4c11.5-0.2,16.9,5.2,22.1,10.4c0.7,0.7,1.3,1.4,2,2c-4.3-9.3-3.8-20.3-3.3-30.9
					c0.5-10,1-20.4-2.6-29.2c-0.1-0.2,0-0.5,0.2-0.6c0.2-0.1,0.5,0,0.6,0.2c4.6,8.8,5.4,18.6,5.8,29.7c2.8-6.8,6.5-16.4,4-22.4
					c-0.9-2.2-2.5-3.7-4.9-4.7c-0.2-0.1-0.3-0.3-0.3-0.6c0.1-0.2,0.3-0.3,0.5-0.3c2.7,0.7,4.7,2.2,5.9,4.5
					c2.5,4.5,1.7,10.8,0.5,15.3c-0.4,1.4-0.7,2.8-1.1,4.2c-2.6,9.6-5,18.7-2.9,27c2.3,9.5,8.8,16.3,19.9,20.7c1.5,0.6,3,1.2,4.6,1.8
					c8.5,3.2,17.3,6.5,22.3,12.4c-0.9-10.8-4.6-19.4-11.2-26.2c-2.4-2.5-5-5-7.5-7.4c-1.3-1.3-2.6-2.5-3.9-3.8
					c-2.8-2.7-6.6-6.4-4.2-11.3c0.1-0.2,0.4-0.3,0.6-0.2c0.2,0.1,0.3,0.4,0.2,0.6c-1.7,4.2,2.7,7.8,6.2,10.6c0.6,0.5,1.3,1,1.8,1.5
					c1.9,1.6,6.4,4.8,6.4,4.8s-0.6-1.9-0.3-4.7c0.6-6.6,3.6-8.6,6.1-10.6c0.8-0.7,1.2-0.2,0.6,0.4c-2.1,2.1-4.3,4.9-4.3,8.9
					c-1.4,12.6,7.7,12.6,14,30.1c6.2,20.1,18,7,23.1-5c3.1-7.9,4.8-16.5,4.8-25.5C665.6,79,633.9,47.1,594.7,47z M566.8,126.5
					c-2,1.3-3.9,2.7-6.1,3.6c-3.3,1.2-7.2,0.1-9.9-2.3c2.1,0.2,4.3-0.1,6.2-0.8c2.9-1.1,5.5-2.8,8.6-3.3c2.2-0.4,4.6,0.1,6.7,0.8
					C570.2,124.5,568.4,125.5,566.8,126.5z M563.3,120.8c1.7,0.4,3.3,1.2,4.7,2.2c-4-0.6-7.4,2-10.9,3.3c-4.4,1.7-8.3,0.2-8.3,0.2
					c0.4-0.1,0.9-0.1,1.3-0.2c0.7-0.2,1.2-0.6,1.8-1c0.6-0.5,1.1-1,1.7-1.5c0.6-0.5,1.1-1,1.7-1.4
					C557.7,120.8,560.4,120,563.3,120.8z M567.4,73.3c0.4,0.2,0.8,0.3,1.2,0.3c0.5,0,0.9,0,1.4,0.1c0.4,0,0.9,0,1.3,0.1
					c1.7,0.3,3.2,1.1,4.2,2.6c0.5,0.9,1,1.9,1.2,2.9c-1.5-1.9-4.1-2.2-6.2-3.1c-2.6-1.1-3.8-3.4-3.8-3.4
					C567,73,567.2,73.2,567.4,73.3z M577.9,81.7c-0.9-0.8-2.1-1.2-3.2-1.4c-1.4-0.2-2.8-0.4-4.2-1c-2-0.8-3.2-2.9-3.4-5.1
					c0.8,1,1.9,1.7,3.1,2.2c1.7,0.7,3.6,1.1,5.2,2.1C576.4,79.3,577.3,80.6,577.9,81.7z M562,98.2c0.6,0.3,1.2,0.4,1.9,0.4
					c0.7,0,1.4,0,2.1,0c0.7,0,1.4,0,2.1,0.1c2.7,0.4,5,1.5,6.6,3.8c0.9,1.3,1.6,2.9,2,4.5c-2.5-2.9-6.4-3.2-9.7-4.4
					c-4.2-1.5-6-5-6-5C561.3,97.8,561.7,98,562,98.2z M578.7,110.6c-1.4-1.2-3.3-1.7-5.1-1.9c-2.2-0.3-4.4-0.5-6.6-1.3
					c-3.1-1.2-5.2-4.4-5.6-7.7c1.3,1.4,3.1,2.6,4.9,3.3c2.7,1,5.6,1.4,8.1,3C576.3,107,577.7,108.8,578.7,110.6z M595.6,68.5
					c1.3-0.8,2.7-1.1,4.2-1.5c1.1-0.3,2.3-0.8,3.1-1.8c-0.5,1.3-1.2,2.6-2.3,3.5c-1.5,1.3-3.3,1.8-5,2.8c-1.1,0.6-2.1,1.6-2.8,2.7
					C592.6,71.9,593.7,69.6,595.6,68.5z M596,71.7c2-1.2,4.6-1.7,5.9-3.9c-0.1,1.1-0.4,2.2-0.8,3.1c-0.8,1.7-2.2,2.7-3.9,3.2
					c-0.4,0.1-0.9,0.2-1.4,0.3c-0.5,0.1-0.9,0.1-1.4,0.2c-0.4,0.1-0.8,0.2-1.2,0.5c-0.2,0.2-0.4,0.3-0.6,0.5
					C592.6,75.6,593.4,73.1,596,71.7z M594.8,92.8c1.7-0.9,3.5-1.3,5.3-1.8c1.4-0.4,3-1,4-2.2c-0.7,1.6-1.6,3.3-3,4.4
					c-1.9,1.6-4.3,2.3-6.4,3.4c-1.4,0.8-2.7,2-3.7,3.3C591,97.1,592.4,94.2,594.8,92.8z M594.9,100.3c-0.6,0.1-1.2,0.1-1.8,0.3
					c-0.5,0.1-1.1,0.2-1.5,0.6c-0.3,0.2-0.6,0.4-0.8,0.6c0,0,1.2-3.1,4.4-4.9c2.6-1.4,5.8-2.1,7.6-4.8c-0.2,1.4-0.5,2.7-1.1,4
					c-1,2.1-2.9,3.4-5.1,4C596.1,100.2,595.5,100.3,594.9,100.3z M616.6,126.8c-1.6-0.3-3.2,0.3-4.7,0.9c-1.8,0.8-3.5,1.7-5.5,2.1
					c-2.8,0.6-5.9-0.9-7.7-3.2c1.7,0.4,3.5,0.5,5.1,0.2c2.5-0.5,4.8-1.5,7.4-1.6C613.1,125.2,615,125.9,616.6,126.8z M609.8,122.6
					c1.3,0.6,2.5,1.4,3.5,2.4c-3.2-1-6.2,0.6-9.3,1.2c-3.8,0.8-6.8-0.9-6.8-0.9c0.4,0,0.7,0,1.1,0c0.6-0.1,1.1-0.3,1.6-0.6
					c0.5-0.3,1.1-0.6,1.6-1c0.5-0.3,1-0.6,1.6-0.9C605.3,121.8,607.6,121.6,609.8,122.6z M609.8,105.3c0.8-1.3,2-2.3,3.1-3.4
					c0.9-0.9,1.7-1.9,2-3.2c0.2,1.4,0.2,3-0.4,4.3c-0.8,1.9-2.2,3.3-3.2,5c-0.7,1.1-1.2,2.5-1.3,3.8
					C608.8,109.8,608.6,107.2,609.8,105.3z M614,109.7c-0.3,0.3-0.7,0.6-1.1,0.9c-0.4,0.3-0.8,0.6-1.2,0.9c-0.3,0.3-0.7,0.6-0.9,1
					c-0.1,0.3-0.2,0.5-0.3,0.8c0,0-0.4-2.7,1.2-5.2c1.3-2,3.3-3.8,3.5-6.4c0.4,1,0.7,2.2,0.8,3.3C616.1,106.8,615.3,108.4,614,109.7
					z M635.7,115.2c-1.2,1.7-2.9,2.5-4.9,2.8c-0.5,0.1-1,0.1-1.5,0.1c-0.5,0-1,0-1.6,0c-0.5,0-1,0.1-1.4,0.3
					c-0.3,0.1-0.5,0.3-0.8,0.5c0,0,1.4-2.5,4.5-3.7c2.5-0.9,5.3-1.1,7.2-3.2C636.9,113.1,636.4,114.2,635.7,115.2z M635.6,112.7
					c-1.9,1.1-4,1.4-6,2.1c-1.3,0.5-2.6,1.3-3.6,2.4c0.3-2.5,1.9-4.8,4.1-5.7c1.6-0.6,3.2-0.7,4.8-0.9c1.3-0.2,2.7-0.5,3.7-1.4
					C637.9,110.5,636.9,111.9,635.6,112.7z"/>
			</g>
		</g>
	</g>
	<g>
		<path d="M71,238.6V225h-5.1v-1.8h12.2v1.8H73v13.6H71z"/>
		<path d="M80,238.6v-15.4h1.9v5.5c0.9-1,2-1.5,3.3-1.5c0.8,0,1.5,0.2,2.2,0.5s1,0.8,1.3,1.4c0.3,0.6,0.4,1.4,0.4,2.5v7.1h-1.9v-7.1
			c0-0.9-0.2-1.6-0.6-2.1s-1-0.6-1.7-0.6c-0.6,0-1.1,0.1-1.6,0.4s-0.8,0.7-1.1,1.2c-0.2,0.5-0.3,1.2-0.3,2.1v6.1H80z"/>
		<path d="M99.6,235l2,0.2c-0.3,1.1-0.9,2-1.7,2.7c-0.8,0.6-1.9,0.9-3.2,0.9c-1.6,0-2.9-0.5-3.9-1.5s-1.4-2.4-1.4-4.2
			c0-1.9,0.5-3.3,1.5-4.4c1-1,2.2-1.6,3.8-1.6c1.5,0,2.7,0.5,3.7,1.5c0.9,1,1.4,2.4,1.4,4.3c0,0.1,0,0.3,0,0.5h-8.3
			c0.1,1.2,0.4,2.2,1,2.8s1.4,1,2.3,1c0.7,0,1.3-0.2,1.8-0.5S99.3,235.8,99.6,235z M93.4,231.9h6.2c-0.1-0.9-0.3-1.6-0.7-2.1
			c-0.6-0.7-1.4-1.1-2.3-1.1c-0.9,0-1.6,0.3-2.2,0.9S93.4,231,93.4,231.9z"/>
		<path d="M121.2,233.2l2,0.5c-0.4,1.7-1.2,3-2.3,3.8c-1.1,0.9-2.5,1.3-4.1,1.3c-1.7,0-3-0.3-4.1-1c-1-0.7-1.8-1.7-2.4-2.9
			c-0.5-1.3-0.8-2.7-0.8-4.1c0-1.6,0.3-3,0.9-4.2c0.6-1.2,1.5-2.1,2.6-2.7c1.1-0.6,2.4-0.9,3.7-0.9c1.5,0,2.8,0.4,3.9,1.2
			c1.1,0.8,1.8,1.9,2.2,3.3l-2,0.5c-0.4-1.1-0.9-1.9-1.6-2.5c-0.7-0.5-1.5-0.8-2.6-0.8c-1.2,0-2.2,0.3-3,0.9s-1.4,1.3-1.7,2.3
			s-0.5,1.9-0.5,3c0,1.3,0.2,2.5,0.6,3.4c0.4,1,1,1.7,1.8,2.2s1.7,0.7,2.6,0.7c1.1,0,2.1-0.3,2.9-1
			C120.3,235.5,120.9,234.5,121.2,233.2z"/>
		<path d="M132.8,237.2c-0.7,0.6-1.4,1-2,1.3c-0.6,0.2-1.3,0.4-2.1,0.4c-1.2,0-2.2-0.3-2.8-0.9s-1-1.4-1-2.3c0-0.5,0.1-1,0.4-1.5
			c0.2-0.5,0.6-0.8,1-1.1c0.4-0.3,0.9-0.5,1.4-0.6c0.4-0.1,0.9-0.2,1.7-0.3c1.5-0.2,2.7-0.4,3.4-0.7c0-0.3,0-0.4,0-0.5
			c0-0.8-0.2-1.3-0.5-1.6c-0.5-0.4-1.2-0.6-2.2-0.6c-0.9,0-1.5,0.2-2,0.5s-0.7,0.9-0.9,1.7l-1.9-0.3c0.2-0.8,0.4-1.4,0.8-1.9
			c0.4-0.5,0.9-0.9,1.7-1.1c0.7-0.3,1.6-0.4,2.5-0.4c1,0,1.7,0.1,2.3,0.3c0.6,0.2,1,0.5,1.3,0.8c0.3,0.3,0.5,0.8,0.6,1.3
			c0.1,0.3,0.1,0.9,0.1,1.7v2.5c0,1.8,0,2.9,0.1,3.3c0.1,0.5,0.2,0.9,0.5,1.3h-2C132.9,238.2,132.8,237.7,132.8,237.2z M132.6,233
			c-0.7,0.3-1.7,0.5-3.1,0.7c-0.8,0.1-1.3,0.2-1.7,0.4c-0.3,0.1-0.6,0.3-0.7,0.6s-0.3,0.6-0.3,0.9c0,0.5,0.2,0.9,0.6,1.3
			c0.4,0.3,0.9,0.5,1.7,0.5c0.7,0,1.4-0.2,1.9-0.5c0.6-0.3,1-0.8,1.3-1.3c0.2-0.4,0.3-1.1,0.3-1.9V233z"/>
		<path d="M137.4,238.6v-15.4h1.9v15.4H137.4z"/>
		<path d="M142.6,238.6v-15.4H153v1.8h-8.4v4.8h7.2v1.8h-7.2v7H142.6z"/>
		<path d="M155.4,238.6v-11.2h1.7v1.7c0.4-0.8,0.8-1.3,1.2-1.6s0.8-0.4,1.2-0.4c0.6,0,1.3,0.2,1.9,0.6l-0.7,1.8
			c-0.5-0.3-0.9-0.4-1.4-0.4c-0.4,0-0.8,0.1-1.1,0.4s-0.6,0.6-0.7,1c-0.2,0.7-0.3,1.4-0.3,2.2v5.8H155.4z"/>
		<path d="M170.2,235l2,0.2c-0.3,1.1-0.9,2-1.7,2.7c-0.8,0.6-1.9,0.9-3.2,0.9c-1.6,0-2.9-0.5-3.9-1.5s-1.4-2.4-1.4-4.2
			c0-1.9,0.5-3.3,1.5-4.4c1-1,2.2-1.6,3.8-1.6c1.5,0,2.7,0.5,3.7,1.5c0.9,1,1.4,2.4,1.4,4.3c0,0.1,0,0.3,0,0.5h-8.3
			c0.1,1.2,0.4,2.2,1,2.8c0.6,0.7,1.4,1,2.3,1c0.7,0,1.3-0.2,1.8-0.5C169.5,236.4,169.9,235.8,170.2,235z M164,231.9h6.2
			c-0.1-0.9-0.3-1.6-0.7-2.1c-0.6-0.7-1.4-1.1-2.3-1.1c-0.9,0-1.6,0.3-2.2,0.9S164.1,231,164,231.9z"/>
		<path d="M173.8,235.3l1.9-0.3c0.1,0.8,0.4,1.3,0.9,1.7c0.5,0.4,1.2,0.6,2,0.6c0.9,0,1.5-0.2,1.9-0.5c0.4-0.4,0.6-0.8,0.6-1.2
			c0-0.4-0.2-0.8-0.6-1c-0.3-0.2-0.9-0.4-1.9-0.6c-1.4-0.4-2.4-0.7-2.9-0.9c-0.5-0.3-0.9-0.6-1.2-1.1s-0.4-1-0.4-1.5
			c0-0.5,0.1-1,0.3-1.4c0.2-0.4,0.5-0.8,0.9-1.1c0.3-0.2,0.7-0.4,1.2-0.6c0.5-0.2,1.1-0.2,1.6-0.2c0.9,0,1.6,0.1,2.3,0.4
			c0.7,0.3,1.2,0.6,1.5,1s0.5,1,0.7,1.7l-1.9,0.3c-0.1-0.6-0.3-1-0.7-1.3c-0.4-0.3-1-0.5-1.7-0.5c-0.9,0-1.5,0.1-1.9,0.4
			c-0.4,0.3-0.6,0.6-0.6,1c0,0.2,0.1,0.5,0.2,0.7c0.2,0.2,0.4,0.4,0.7,0.5c0.2,0.1,0.7,0.2,1.7,0.5c1.3,0.4,2.3,0.7,2.8,0.9
			s0.9,0.6,1.2,1c0.3,0.4,0.5,1,0.5,1.6c0,0.6-0.2,1.2-0.6,1.8c-0.4,0.6-0.9,1-1.6,1.3s-1.5,0.5-2.4,0.5c-1.5,0-2.6-0.3-3.3-0.9
			S174,236.4,173.8,235.3z"/>
		<path d="M185.3,238.6v-15.4h1.9v5.5c0.9-1,2-1.5,3.3-1.5c0.8,0,1.5,0.2,2.2,0.5c0.6,0.3,1,0.8,1.3,1.4c0.3,0.6,0.4,1.4,0.4,2.5
			v7.1h-1.9v-7.1c0-0.9-0.2-1.6-0.6-2.1s-1-0.6-1.7-0.6c-0.6,0-1.1,0.1-1.6,0.4c-0.5,0.3-0.8,0.7-1.1,1.2c-0.2,0.5-0.3,1.2-0.3,2.1
			v6.1H185.3z"/>
		<path d="M203.6,238.6v-15.4h10.4v1.8h-8.4v4.8h7.2v1.8h-7.2v7H203.6z"/>
		<path d="M215.8,233c0-2.1,0.6-3.6,1.7-4.6c1-0.8,2.1-1.2,3.5-1.2c1.5,0,2.8,0.5,3.8,1.5s1.5,2.4,1.5,4.2c0,1.4-0.2,2.6-0.6,3.4
			c-0.4,0.8-1.1,1.5-1.9,1.9c-0.8,0.5-1.7,0.7-2.7,0.7c-1.6,0-2.8-0.5-3.8-1.5S215.8,234.9,215.8,233z M217.7,233
			c0,1.4,0.3,2.5,0.9,3.2c0.6,0.7,1.4,1.1,2.4,1.1c0.9,0,1.7-0.4,2.3-1.1c0.6-0.7,0.9-1.8,0.9-3.3c0-1.4-0.3-2.4-0.9-3.1
			c-0.6-0.7-1.4-1.1-2.3-1.1c-0.9,0-1.7,0.4-2.4,1.1C218,230.5,217.7,231.6,217.7,233z"/>
		<path d="M227.7,233c0-2.1,0.6-3.6,1.7-4.6c1-0.8,2.1-1.2,3.5-1.2c1.5,0,2.8,0.5,3.8,1.5c1,1,1.5,2.4,1.5,4.2
			c0,1.4-0.2,2.6-0.6,3.4c-0.4,0.8-1.1,1.5-1.9,1.9c-0.8,0.5-1.7,0.7-2.7,0.7c-1.6,0-2.8-0.5-3.8-1.5
			C228.2,236.3,227.7,234.9,227.7,233z M229.7,233c0,1.4,0.3,2.5,0.9,3.2c0.6,0.7,1.4,1.1,2.4,1.1c0.9,0,1.7-0.4,2.3-1.1
			s0.9-1.8,0.9-3.3c0-1.4-0.3-2.4-0.9-3.1c-0.6-0.7-1.4-1.1-2.3-1.1c-0.9,0-1.7,0.4-2.4,1.1C230,230.5,229.7,231.6,229.7,233z"/>
		<path d="M247.7,238.6v-1.4c-0.7,1.1-1.7,1.7-3.1,1.7c-0.9,0-1.7-0.2-2.5-0.7c-0.7-0.5-1.3-1.2-1.7-2.1c-0.4-0.9-0.6-1.9-0.6-3
			c0-1.1,0.2-2.1,0.6-3c0.4-0.9,0.9-1.6,1.7-2.1s1.6-0.7,2.5-0.7c0.7,0,1.3,0.1,1.8,0.4c0.5,0.3,1,0.7,1.3,1.1v-5.5h1.9v15.4H247.7z
			 M241.7,233c0,1.4,0.3,2.5,0.9,3.2c0.6,0.7,1.3,1.1,2.1,1.1c0.8,0,1.5-0.3,2.1-1c0.6-0.7,0.9-1.7,0.9-3.1c0-1.5-0.3-2.7-0.9-3.4
			c-0.6-0.7-1.3-1.1-2.2-1.1c-0.8,0-1.5,0.3-2.1,1C242,230.5,241.7,231.5,241.7,233z"/>
		<path d="M257.6,235.3l1.9-0.3c0.1,0.8,0.4,1.3,0.9,1.7c0.5,0.4,1.2,0.6,2,0.6c0.9,0,1.5-0.2,1.9-0.5s0.6-0.8,0.6-1.2
			c0-0.4-0.2-0.8-0.6-1c-0.3-0.2-0.9-0.4-1.9-0.6c-1.4-0.4-2.4-0.7-2.9-0.9s-0.9-0.6-1.2-1.1c-0.3-0.5-0.4-1-0.4-1.5
			c0-0.5,0.1-1,0.3-1.4c0.2-0.4,0.5-0.8,0.9-1.1c0.3-0.2,0.7-0.4,1.2-0.6c0.5-0.2,1.1-0.2,1.6-0.2c0.9,0,1.6,0.1,2.3,0.4
			s1.2,0.6,1.5,1c0.3,0.4,0.5,1,0.7,1.7l-1.9,0.3c-0.1-0.6-0.3-1-0.7-1.3c-0.4-0.3-1-0.5-1.7-0.5c-0.9,0-1.5,0.1-1.9,0.4
			c-0.4,0.3-0.6,0.6-0.6,1c0,0.2,0.1,0.5,0.2,0.7c0.2,0.2,0.4,0.4,0.7,0.5c0.2,0.1,0.7,0.2,1.7,0.5c1.3,0.4,2.3,0.7,2.8,0.9
			s0.9,0.6,1.2,1c0.3,0.4,0.5,1,0.5,1.6c0,0.6-0.2,1.2-0.6,1.8c-0.4,0.6-0.9,1-1.6,1.3s-1.5,0.5-2.4,0.5c-1.5,0-2.6-0.3-3.3-0.9
			C258.3,237.3,257.8,236.4,257.6,235.3z"/>
		<path d="M276.8,235l2,0.2c-0.3,1.1-0.9,2-1.7,2.7c-0.8,0.6-1.9,0.9-3.2,0.9c-1.6,0-2.9-0.5-3.9-1.5c-1-1-1.4-2.4-1.4-4.2
			c0-1.9,0.5-3.3,1.5-4.4c1-1,2.2-1.6,3.8-1.6c1.5,0,2.7,0.5,3.7,1.5c0.9,1,1.4,2.4,1.4,4.3c0,0.1,0,0.3,0,0.5h-8.3
			c0.1,1.2,0.4,2.2,1,2.8s1.4,1,2.3,1c0.7,0,1.3-0.2,1.8-0.5C276.1,236.4,276.5,235.8,276.8,235z M270.6,231.9h6.2
			c-0.1-0.9-0.3-1.6-0.7-2.1c-0.6-0.7-1.4-1.1-2.3-1.1c-0.9,0-1.6,0.3-2.2,0.9S270.7,231,270.6,231.9z"/>
		<path d="M288.4,234.5l1.9,0.2c-0.2,1.3-0.7,2.3-1.6,3c-0.8,0.7-1.9,1.1-3.1,1.1c-1.5,0-2.8-0.5-3.7-1.5c-0.9-1-1.4-2.4-1.4-4.3
			c0-1.2,0.2-2.3,0.6-3.2c0.4-0.9,1-1.6,1.8-2c0.8-0.5,1.7-0.7,2.7-0.7c1.2,0,2.2,0.3,3,0.9c0.8,0.6,1.3,1.5,1.5,2.6l-1.8,0.3
			c-0.2-0.8-0.5-1.3-0.9-1.7c-0.4-0.4-1-0.6-1.6-0.6c-1,0-1.7,0.3-2.3,1c-0.6,0.7-0.9,1.8-0.9,3.2c0,1.5,0.3,2.6,0.9,3.3
			c0.6,0.7,1.3,1,2.3,1c0.7,0,1.4-0.2,1.9-0.7C288,236.2,288.3,235.5,288.4,234.5z"/>
		<path d="M296.1,236.9l0.3,1.7c-0.5,0.1-1,0.2-1.4,0.2c-0.7,0-1.2-0.1-1.6-0.3c-0.4-0.2-0.6-0.5-0.8-0.9c-0.2-0.4-0.2-1.1-0.2-2.2
			v-6.4h-1.4v-1.5h1.4v-2.8l1.9-1.1v3.9h1.9v1.5h-1.9v6.5c0,0.5,0,0.9,0.1,1c0.1,0.2,0.2,0.3,0.3,0.4s0.4,0.1,0.6,0.1
			C295.4,237,295.7,237,296.1,236.9z"/>
		<path d="M297.9,225.4v-2.2h1.9v2.2H297.9z M297.9,238.6v-11.2h1.9v11.2H297.9z"/>
		<path d="M302,233c0-2.1,0.6-3.6,1.7-4.6c1-0.8,2.1-1.2,3.5-1.2c1.5,0,2.8,0.5,3.8,1.5s1.5,2.4,1.5,4.2c0,1.4-0.2,2.6-0.6,3.4
			c-0.4,0.8-1.1,1.5-1.9,1.9c-0.8,0.5-1.7,0.7-2.7,0.7c-1.6,0-2.8-0.5-3.8-1.5S302,234.9,302,233z M303.9,233c0,1.4,0.3,2.5,0.9,3.2
			c0.6,0.7,1.4,1.1,2.4,1.1c0.9,0,1.7-0.4,2.3-1.1s0.9-1.8,0.9-3.3c0-1.4-0.3-2.4-0.9-3.1c-0.6-0.7-1.4-1.1-2.3-1.1
			c-0.9,0-1.7,0.4-2.4,1.1C304.3,230.5,303.9,231.6,303.9,233z"/>
		<path d="M314.7,238.6v-11.2h1.7v1.6c0.8-1.2,2-1.8,3.6-1.8c0.7,0,1.3,0.1,1.9,0.4c0.6,0.2,1,0.6,1.3,1c0.3,0.4,0.5,0.9,0.6,1.4
			c0.1,0.4,0.1,1,0.1,1.8v6.9h-1.9v-6.8c0-0.8-0.1-1.3-0.2-1.7c-0.1-0.4-0.4-0.7-0.8-0.9s-0.8-0.3-1.3-0.3c-0.8,0-1.5,0.3-2.1,0.8
			s-0.9,1.5-0.9,2.9v6.1H314.7z"/>
		<path d="M331.9,233c0-2.1,0.6-3.6,1.7-4.6c1-0.8,2.1-1.2,3.5-1.2c1.5,0,2.8,0.5,3.8,1.5s1.5,2.4,1.5,4.2c0,1.4-0.2,2.6-0.6,3.4
			c-0.4,0.8-1.1,1.5-1.9,1.9c-0.8,0.5-1.7,0.7-2.7,0.7c-1.6,0-2.8-0.5-3.8-1.5S331.9,234.9,331.9,233z M333.9,233
			c0,1.4,0.3,2.5,0.9,3.2c0.6,0.7,1.4,1.1,2.4,1.1c0.9,0,1.7-0.4,2.3-1.1c0.6-0.7,0.9-1.8,0.9-3.3c0-1.4-0.3-2.4-0.9-3.1
			c-0.6-0.7-1.4-1.1-2.3-1.1c-0.9,0-1.7,0.4-2.4,1.1C334.2,230.5,333.9,231.6,333.9,233z"/>
		<path d="M345.1,238.6v-9.7h-1.7v-1.5h1.7v-1.2c0-0.8,0.1-1.3,0.2-1.7c0.2-0.5,0.5-0.9,1-1.2s1.1-0.5,1.9-0.5
			c0.5,0,1.1,0.1,1.8,0.2l-0.3,1.7c-0.4-0.1-0.8-0.1-1.1-0.1c-0.6,0-1,0.1-1.2,0.4c-0.2,0.2-0.4,0.7-0.4,1.4v1h2.2v1.5H347v9.7
			H345.1z"/>
		<path d="M360.7,236.9l0.3,1.7c-0.5,0.1-1,0.2-1.4,0.2c-0.7,0-1.2-0.1-1.6-0.3c-0.4-0.2-0.6-0.5-0.8-0.9c-0.2-0.4-0.2-1.1-0.2-2.2
			v-6.4h-1.4v-1.5h1.4v-2.8l1.9-1.1v3.9h1.9v1.5h-1.9v6.5c0,0.5,0,0.9,0.1,1s0.2,0.3,0.3,0.4c0.2,0.1,0.4,0.1,0.6,0.1
			C360.1,237,360.4,237,360.7,236.9z"/>
		<path d="M362.6,238.6v-15.4h1.9v5.5c0.9-1,2-1.5,3.3-1.5c0.8,0,1.5,0.2,2.2,0.5c0.6,0.3,1,0.8,1.3,1.4c0.3,0.6,0.4,1.4,0.4,2.5
			v7.1h-1.9v-7.1c0-0.9-0.2-1.6-0.6-2.1c-0.4-0.4-1-0.6-1.7-0.6c-0.6,0-1.1,0.1-1.6,0.4c-0.5,0.3-0.8,0.7-1.1,1.2
			c-0.2,0.5-0.3,1.2-0.3,2.1v6.1H362.6z"/>
		<path d="M374.6,225.4v-2.2h1.9v2.2H374.6z M374.6,238.6v-11.2h1.9v11.2H374.6z"/>
		<path d="M378.6,235.3l1.9-0.3c0.1,0.8,0.4,1.3,0.9,1.7c0.5,0.4,1.2,0.6,2,0.6c0.9,0,1.5-0.2,1.9-0.5s0.6-0.8,0.6-1.2
			c0-0.4-0.2-0.8-0.6-1c-0.3-0.2-0.9-0.4-1.9-0.6c-1.4-0.4-2.4-0.7-2.9-0.9s-0.9-0.6-1.2-1.1s-0.4-1-0.4-1.5c0-0.5,0.1-1,0.3-1.4
			c0.2-0.4,0.5-0.8,0.9-1.1c0.3-0.2,0.7-0.4,1.2-0.6c0.5-0.2,1.1-0.2,1.6-0.2c0.9,0,1.6,0.1,2.3,0.4s1.2,0.6,1.5,1s0.5,1,0.7,1.7
			l-1.9,0.3c-0.1-0.6-0.3-1-0.7-1.3c-0.4-0.3-1-0.5-1.7-0.5c-0.9,0-1.5,0.1-1.9,0.4c-0.4,0.3-0.6,0.6-0.6,1c0,0.2,0.1,0.5,0.2,0.7
			c0.2,0.2,0.4,0.4,0.7,0.5c0.2,0.1,0.7,0.2,1.7,0.5c1.3,0.4,2.3,0.7,2.8,0.9c0.5,0.2,0.9,0.6,1.2,1s0.5,1,0.5,1.6
			c0,0.6-0.2,1.2-0.6,1.8c-0.4,0.6-0.9,1-1.6,1.3s-1.5,0.5-2.4,0.5c-1.5,0-2.6-0.3-3.3-0.9C379.3,237.3,378.8,236.4,378.6,235.3z"/>
		<path d="M398.2,238.6l-3.4-11.2h2l1.8,6.4l0.7,2.4c0-0.1,0.2-0.9,0.6-2.3l1.8-6.5h1.9l1.7,6.5l0.6,2.1l0.6-2.2l1.9-6.5h1.8
			l-3.5,11.2h-2l-1.8-6.7l-0.4-1.9l-2.3,8.6H398.2z"/>
		<path d="M419.3,235l2,0.2c-0.3,1.1-0.9,2-1.7,2.7c-0.8,0.6-1.9,0.9-3.2,0.9c-1.6,0-2.9-0.5-3.9-1.5s-1.4-2.4-1.4-4.2
			c0-1.9,0.5-3.3,1.5-4.4c1-1,2.2-1.6,3.8-1.6c1.5,0,2.7,0.5,3.7,1.5c0.9,1,1.4,2.4,1.4,4.3c0,0.1,0,0.3,0,0.5H413
			c0.1,1.2,0.4,2.2,1,2.8s1.4,1,2.3,1c0.7,0,1.3-0.2,1.8-0.5S419,235.8,419.3,235z M413.1,231.9h6.2c-0.1-0.9-0.3-1.6-0.7-2.1
			c-0.6-0.7-1.4-1.1-2.3-1.1c-0.9,0-1.6,0.3-2.2,0.9C413.5,230.2,413.2,231,413.1,231.9z"/>
		<path d="M425.4,238.6h-1.8v-15.4h1.9v5.5c0.8-1,1.8-1.5,3.1-1.5c0.7,0,1.3,0.1,2,0.4c0.6,0.3,1.1,0.7,1.5,1.2
			c0.4,0.5,0.7,1.1,0.9,1.8c0.2,0.7,0.3,1.5,0.3,2.3c0,1.9-0.5,3.4-1.4,4.4c-0.9,1-2.1,1.6-3.4,1.6c-1.3,0-2.4-0.6-3.1-1.7V238.6z
			 M425.4,232.9c0,1.3,0.2,2.3,0.5,2.9c0.6,1,1.4,1.5,2.4,1.5c0.8,0,1.5-0.4,2.1-1.1c0.6-0.7,0.9-1.8,0.9-3.2c0-1.5-0.3-2.5-0.9-3.2
			s-1.3-1-2.1-1c-0.8,0-1.5,0.4-2.1,1.1C425.7,230.5,425.4,231.6,425.4,232.9z"/>
		<path d="M434.9,235.3l1.9-0.3c0.1,0.8,0.4,1.3,0.9,1.7c0.5,0.4,1.2,0.6,2,0.6c0.9,0,1.5-0.2,1.9-0.5s0.6-0.8,0.6-1.2
			c0-0.4-0.2-0.8-0.6-1c-0.3-0.2-0.9-0.4-1.9-0.6c-1.4-0.4-2.4-0.7-2.9-0.9s-0.9-0.6-1.2-1.1s-0.4-1-0.4-1.5c0-0.5,0.1-1,0.3-1.4
			c0.2-0.4,0.5-0.8,0.9-1.1c0.3-0.2,0.7-0.4,1.2-0.6c0.5-0.2,1.1-0.2,1.6-0.2c0.9,0,1.6,0.1,2.3,0.4s1.2,0.6,1.5,1
			c0.3,0.4,0.5,1,0.7,1.7l-1.9,0.3c-0.1-0.6-0.3-1-0.7-1.3c-0.4-0.3-1-0.5-1.7-0.5c-0.9,0-1.5,0.1-1.9,0.4c-0.4,0.3-0.6,0.6-0.6,1
			c0,0.2,0.1,0.5,0.2,0.7c0.2,0.2,0.4,0.4,0.7,0.5c0.2,0.1,0.7,0.2,1.7,0.5c1.3,0.4,2.3,0.7,2.8,0.9c0.5,0.2,0.9,0.6,1.2,1
			c0.3,0.4,0.5,1,0.5,1.6c0,0.6-0.2,1.2-0.6,1.8c-0.4,0.6-0.9,1-1.6,1.3s-1.5,0.5-2.4,0.5c-1.5,0-2.6-0.3-3.3-0.9
			S435.1,236.4,434.9,235.3z"/>
		<path d="M446.4,225.4v-2.2h1.9v2.2H446.4z M446.4,238.6v-11.2h1.9v11.2H446.4z"/>
		<path d="M455.3,236.9l0.3,1.7c-0.5,0.1-1,0.2-1.4,0.2c-0.7,0-1.2-0.1-1.6-0.3c-0.4-0.2-0.6-0.5-0.8-0.9c-0.2-0.4-0.2-1.1-0.2-2.2
			v-6.4h-1.4v-1.5h1.4v-2.8l1.9-1.1v3.9h1.9v1.5h-1.9v6.5c0,0.5,0,0.9,0.1,1s0.2,0.3,0.3,0.4c0.2,0.1,0.4,0.1,0.6,0.1
			C454.7,237,455,237,455.3,236.9z"/>
		<path d="M464.8,235l2,0.2c-0.3,1.1-0.9,2-1.7,2.7c-0.8,0.6-1.9,0.9-3.2,0.9c-1.6,0-2.9-0.5-3.9-1.5s-1.4-2.4-1.4-4.2
			c0-1.9,0.5-3.3,1.5-4.4c1-1,2.2-1.6,3.8-1.6c1.5,0,2.7,0.5,3.7,1.5c0.9,1,1.4,2.4,1.4,4.3c0,0.1,0,0.3,0,0.5h-8.3
			c0.1,1.2,0.4,2.2,1,2.8s1.4,1,2.3,1c0.7,0,1.3-0.2,1.8-0.5C464.2,236.4,464.5,235.8,464.8,235z M458.6,231.9h6.2
			c-0.1-0.9-0.3-1.6-0.7-2.1c-0.6-0.7-1.4-1.1-2.3-1.1c-0.9,0-1.6,0.3-2.2,0.9C459,230.2,458.7,231,458.6,231.9z"/>
		<path d="M477.2,238.6l-3.4-11.2h2l1.8,6.4l0.7,2.4c0-0.1,0.2-0.9,0.6-2.3l1.8-6.5h1.9l1.7,6.5l0.6,2.1l0.6-2.2l1.9-6.5h1.8
			l-3.5,11.2h-2l-1.8-6.7l-0.4-1.9l-2.3,8.6H477.2z"/>
		<path d="M498,237.2c-0.7,0.6-1.4,1-2,1.3c-0.6,0.2-1.3,0.4-2.1,0.4c-1.2,0-2.2-0.3-2.8-0.9s-1-1.4-1-2.3c0-0.5,0.1-1,0.4-1.5
			c0.2-0.5,0.6-0.8,1-1.1c0.4-0.3,0.9-0.5,1.4-0.6c0.4-0.1,0.9-0.2,1.7-0.3c1.5-0.2,2.7-0.4,3.4-0.7c0-0.3,0-0.4,0-0.5
			c0-0.8-0.2-1.3-0.5-1.6c-0.5-0.4-1.2-0.6-2.2-0.6c-0.9,0-1.5,0.2-2,0.5s-0.7,0.9-0.9,1.7l-1.9-0.3c0.2-0.8,0.4-1.4,0.8-1.9
			s0.9-0.9,1.7-1.1c0.7-0.3,1.6-0.4,2.5-0.4c1,0,1.7,0.1,2.3,0.3c0.6,0.2,1,0.5,1.3,0.8c0.3,0.3,0.5,0.8,0.6,1.3
			c0.1,0.3,0.1,0.9,0.1,1.7v2.5c0,1.8,0,2.9,0.1,3.3s0.2,0.9,0.5,1.3h-2C498.2,238.2,498.1,237.7,498,237.2z M497.8,233
			c-0.7,0.3-1.7,0.5-3.1,0.7c-0.8,0.1-1.3,0.2-1.7,0.4c-0.3,0.1-0.6,0.3-0.7,0.6c-0.2,0.3-0.3,0.6-0.3,0.9c0,0.5,0.2,0.9,0.6,1.3
			c0.4,0.3,0.9,0.5,1.7,0.5c0.7,0,1.4-0.2,1.9-0.5c0.6-0.3,1-0.8,1.3-1.3c0.2-0.4,0.3-1.1,0.3-1.9V233z"/>
		<path d="M501.9,235.3l1.9-0.3c0.1,0.8,0.4,1.3,0.9,1.7c0.5,0.4,1.2,0.6,2,0.6c0.9,0,1.5-0.2,1.9-0.5s0.6-0.8,0.6-1.2
			c0-0.4-0.2-0.8-0.6-1c-0.3-0.2-0.9-0.4-1.9-0.6c-1.4-0.4-2.4-0.7-2.9-0.9s-0.9-0.6-1.2-1.1c-0.3-0.5-0.4-1-0.4-1.5
			c0-0.5,0.1-1,0.3-1.4c0.2-0.4,0.5-0.8,0.9-1.1c0.3-0.2,0.7-0.4,1.2-0.6c0.5-0.2,1.1-0.2,1.6-0.2c0.9,0,1.6,0.1,2.3,0.4
			s1.2,0.6,1.5,1c0.3,0.4,0.5,1,0.7,1.7l-1.9,0.3c-0.1-0.6-0.3-1-0.7-1.3c-0.4-0.3-1-0.5-1.7-0.5c-0.9,0-1.5,0.1-1.9,0.4
			c-0.4,0.3-0.6,0.6-0.6,1c0,0.2,0.1,0.5,0.2,0.7c0.2,0.2,0.4,0.4,0.7,0.5c0.2,0.1,0.7,0.2,1.7,0.5c1.3,0.4,2.3,0.7,2.8,0.9
			s0.9,0.6,1.2,1c0.3,0.4,0.5,1,0.5,1.6c0,0.6-0.2,1.2-0.6,1.8c-0.4,0.6-0.9,1-1.6,1.3s-1.5,0.5-2.4,0.5c-1.5,0-2.6-0.3-3.3-0.9
			C502.6,237.3,502.2,236.4,501.9,235.3z"/>
		<path d="M519.5,242.9v-15.5h1.7v1.5c0.4-0.6,0.9-1,1.4-1.3c0.5-0.3,1.1-0.4,1.9-0.4c1,0,1.8,0.2,2.5,0.7c0.7,0.5,1.3,1.2,1.7,2.1
			s0.6,1.9,0.6,2.9c0,1.1-0.2,2.2-0.6,3.1c-0.4,0.9-1,1.6-1.8,2.1s-1.6,0.7-2.5,0.7c-0.6,0-1.2-0.1-1.7-0.4s-0.9-0.6-1.2-1v5.4
			H519.5z M521.2,233.1c0,1.4,0.3,2.5,0.9,3.2c0.6,0.7,1.3,1,2.1,1c0.8,0,1.6-0.4,2.2-1.1c0.6-0.7,0.9-1.8,0.9-3.3
			c0-1.4-0.3-2.5-0.9-3.2c-0.6-0.7-1.3-1.1-2.1-1.1c-0.8,0-1.5,0.4-2.1,1.1C521.5,230.5,521.2,231.6,521.2,233.1z"/>
		<path d="M538.7,237.2c-0.7,0.6-1.4,1-2,1.3c-0.6,0.2-1.3,0.4-2.1,0.4c-1.2,0-2.2-0.3-2.8-0.9c-0.7-0.6-1-1.4-1-2.3
			c0-0.5,0.1-1,0.4-1.5c0.2-0.5,0.6-0.8,1-1.1c0.4-0.3,0.9-0.5,1.4-0.6c0.4-0.1,0.9-0.2,1.7-0.3c1.5-0.2,2.7-0.4,3.4-0.7
			c0-0.3,0-0.4,0-0.5c0-0.8-0.2-1.3-0.5-1.6c-0.5-0.4-1.2-0.6-2.2-0.6c-0.9,0-1.5,0.2-2,0.5s-0.7,0.9-0.9,1.7l-1.9-0.3
			c0.2-0.8,0.4-1.4,0.8-1.9s0.9-0.9,1.7-1.1c0.7-0.3,1.6-0.4,2.5-0.4c1,0,1.7,0.1,2.3,0.3c0.6,0.2,1,0.5,1.3,0.8
			c0.3,0.3,0.5,0.8,0.6,1.3c0.1,0.3,0.1,0.9,0.1,1.7v2.5c0,1.8,0,2.9,0.1,3.3c0.1,0.5,0.2,0.9,0.5,1.3h-2
			C538.9,238.2,538.8,237.7,538.7,237.2z M538.6,233c-0.7,0.3-1.7,0.5-3.1,0.7c-0.8,0.1-1.3,0.2-1.7,0.4s-0.6,0.3-0.7,0.6
			s-0.3,0.6-0.3,0.9c0,0.5,0.2,0.9,0.6,1.3c0.4,0.3,0.9,0.5,1.7,0.5c0.7,0,1.4-0.2,1.9-0.5c0.6-0.3,1-0.8,1.3-1.3
			c0.2-0.4,0.3-1.1,0.3-1.9V233z"/>
		<path d="M543.4,238.6v-11.2h1.7v1.7c0.4-0.8,0.8-1.3,1.2-1.6c0.4-0.3,0.8-0.4,1.2-0.4c0.6,0,1.3,0.2,1.9,0.6l-0.7,1.8
			c-0.5-0.3-0.9-0.4-1.4-0.4c-0.4,0-0.8,0.1-1.1,0.4c-0.3,0.2-0.6,0.6-0.7,1c-0.2,0.7-0.3,1.4-0.3,2.2v5.8H543.4z"/>
		<path d="M554.7,236.9l0.3,1.7c-0.5,0.1-1,0.2-1.4,0.2c-0.7,0-1.2-0.1-1.6-0.3c-0.4-0.2-0.6-0.5-0.8-0.9c-0.2-0.4-0.2-1.1-0.2-2.2
			v-6.4h-1.4v-1.5h1.4v-2.8l1.9-1.1v3.9h1.9v1.5h-1.9v6.5c0,0.5,0,0.9,0.1,1c0.1,0.2,0.2,0.3,0.3,0.4s0.4,0.1,0.6,0.1
			C554.1,237,554.4,237,554.7,236.9z"/>
		<path d="M556.6,225.4v-2.2h1.9v2.2H556.6z M556.6,238.6v-11.2h1.9v11.2H556.6z"/>
		<path d="M568.7,237.2c-0.7,0.6-1.4,1-2,1.3c-0.6,0.2-1.3,0.4-2.1,0.4c-1.2,0-2.2-0.3-2.8-0.9c-0.7-0.6-1-1.4-1-2.3
			c0-0.5,0.1-1,0.4-1.5c0.2-0.5,0.6-0.8,1-1.1c0.4-0.3,0.9-0.5,1.4-0.6c0.4-0.1,0.9-0.2,1.7-0.3c1.5-0.2,2.7-0.4,3.4-0.7
			c0-0.3,0-0.4,0-0.5c0-0.8-0.2-1.3-0.5-1.6c-0.5-0.4-1.2-0.6-2.2-0.6c-0.9,0-1.5,0.2-2,0.5s-0.7,0.9-0.9,1.7l-1.9-0.3
			c0.2-0.8,0.4-1.4,0.8-1.9s0.9-0.9,1.7-1.1c0.7-0.3,1.6-0.4,2.5-0.4c1,0,1.7,0.1,2.3,0.3c0.6,0.2,1,0.5,1.3,0.8
			c0.3,0.3,0.5,0.8,0.6,1.3c0.1,0.3,0.1,0.9,0.1,1.7v2.5c0,1.8,0,2.9,0.1,3.3c0.1,0.5,0.2,0.9,0.5,1.3h-2
			C568.8,238.2,568.7,237.7,568.7,237.2z M568.5,233c-0.7,0.3-1.7,0.5-3.1,0.7c-0.8,0.1-1.3,0.2-1.7,0.4s-0.6,0.3-0.7,0.6
			s-0.3,0.6-0.3,0.9c0,0.5,0.2,0.9,0.6,1.3c0.4,0.3,0.9,0.5,1.7,0.5c0.7,0,1.4-0.2,1.9-0.5c0.6-0.3,1-0.8,1.3-1.3
			c0.2-0.4,0.3-1.1,0.3-1.9V233z"/>
		<path d="M573.3,238.6v-15.4h1.9v15.4H573.3z"/>
		<path d="M578.1,238.6v-15.4h1.9v15.4H578.1z"/>
		<path d="M582.8,242.9l-0.2-1.8c0.4,0.1,0.8,0.2,1.1,0.2c0.4,0,0.8-0.1,1-0.2c0.3-0.1,0.5-0.3,0.6-0.6c0.1-0.2,0.3-0.7,0.6-1.4
			c0-0.1,0.1-0.3,0.2-0.5l-4.2-11.2h2l2.3,6.5c0.3,0.8,0.6,1.7,0.8,2.6c0.2-0.9,0.5-1.7,0.8-2.5l2.4-6.5h1.9l-4.2,11.4
			c-0.5,1.2-0.8,2.1-1.1,2.5c-0.3,0.6-0.7,1.1-1.2,1.4c-0.4,0.3-1,0.4-1.6,0.4C583.7,243.1,583.3,243.1,582.8,242.9z"/>
		<path d="M600.1,238.6v-9.7h-1.7v-1.5h1.7v-1.2c0-0.8,0.1-1.3,0.2-1.7c0.2-0.5,0.5-0.9,1-1.2c0.5-0.3,1.1-0.5,1.9-0.5
			c0.5,0,1.1,0.1,1.8,0.2l-0.3,1.7c-0.4-0.1-0.8-0.1-1.1-0.1c-0.6,0-1,0.1-1.2,0.4c-0.2,0.2-0.4,0.7-0.4,1.4v1h2.2v1.5H602v9.7
			H600.1z"/>
		<path d="M613,238.6V237c-0.9,1.3-2.1,1.9-3.5,1.9c-0.7,0-1.3-0.1-1.8-0.4s-1-0.6-1.3-1s-0.5-0.9-0.6-1.4c-0.1-0.4-0.1-1-0.1-1.8
			v-6.9h1.9v6.2c0,1,0,1.7,0.1,2c0.1,0.5,0.4,0.9,0.8,1.2c0.4,0.3,0.9,0.4,1.4,0.4s1.1-0.1,1.6-0.4c0.5-0.3,0.9-0.7,1.1-1.2
			s0.3-1.2,0.3-2.2v-6h1.9v11.2H613z"/>
		<path d="M617.7,238.6v-11.2h1.7v1.6c0.8-1.2,2-1.8,3.6-1.8c0.7,0,1.3,0.1,1.9,0.4c0.6,0.2,1,0.6,1.3,1c0.3,0.4,0.5,0.9,0.6,1.4
			c0.1,0.4,0.1,1,0.1,1.8v6.9h-1.9v-6.8c0-0.8-0.1-1.3-0.2-1.7c-0.1-0.4-0.4-0.7-0.8-0.9c-0.4-0.2-0.8-0.3-1.3-0.3
			c-0.8,0-1.5,0.3-2.1,0.8s-0.9,1.5-0.9,2.9v6.1H617.7z"/>
		<path d="M636.9,238.6v-1.4c-0.7,1.1-1.7,1.7-3.1,1.7c-0.9,0-1.7-0.2-2.5-0.7c-0.7-0.5-1.3-1.2-1.7-2.1c-0.4-0.9-0.6-1.9-0.6-3
			c0-1.1,0.2-2.1,0.6-3s0.9-1.6,1.7-2.1c0.7-0.5,1.6-0.7,2.5-0.7c0.7,0,1.3,0.1,1.8,0.4c0.5,0.3,1,0.7,1.3,1.1v-5.5h1.9v15.4H636.9z
			 M630.9,233c0,1.4,0.3,2.5,0.9,3.2c0.6,0.7,1.3,1.1,2.1,1.1c0.8,0,1.5-0.3,2.1-1s0.9-1.7,0.9-3.1c0-1.5-0.3-2.7-0.9-3.4
			c-0.6-0.7-1.3-1.1-2.2-1.1c-0.8,0-1.5,0.3-2.1,1C631.2,230.5,630.9,231.5,630.9,233z"/>
		<path d="M649.3,235l2,0.2c-0.3,1.1-0.9,2-1.7,2.7c-0.8,0.6-1.9,0.9-3.2,0.9c-1.6,0-2.9-0.5-3.9-1.5s-1.4-2.4-1.4-4.2
			c0-1.9,0.5-3.3,1.5-4.4c1-1,2.2-1.6,3.8-1.6c1.5,0,2.7,0.5,3.7,1.5c0.9,1,1.4,2.4,1.4,4.3c0,0.1,0,0.3,0,0.5h-8.3
			c0.1,1.2,0.4,2.2,1,2.8s1.4,1,2.3,1c0.7,0,1.3-0.2,1.8-0.5C648.6,236.4,649,235.8,649.3,235z M643,231.9h6.2
			c-0.1-0.9-0.3-1.6-0.7-2.1c-0.6-0.7-1.4-1.1-2.3-1.1c-0.9,0-1.6,0.3-2.2,0.9S643.1,231,643,231.9z"/>
		<path d="M660.8,238.6v-1.4c-0.7,1.1-1.7,1.7-3.1,1.7c-0.9,0-1.7-0.2-2.5-0.7c-0.7-0.5-1.3-1.2-1.7-2.1c-0.4-0.9-0.6-1.9-0.6-3
			c0-1.1,0.2-2.1,0.6-3s0.9-1.6,1.7-2.1s1.6-0.7,2.5-0.7c0.7,0,1.3,0.1,1.8,0.4c0.5,0.3,1,0.7,1.3,1.1v-5.5h1.9v15.4H660.8z
			 M654.9,233c0,1.4,0.3,2.5,0.9,3.2c0.6,0.7,1.3,1.1,2.1,1.1c0.8,0,1.5-0.3,2.1-1s0.9-1.7,0.9-3.1c0-1.5-0.3-2.7-0.9-3.4
			s-1.3-1.1-2.2-1.1c-0.8,0-1.5,0.3-2.1,1C655.1,230.5,654.9,231.5,654.9,233z"/>
		<path d="M673.3,238.6h-1.8v-15.4h1.9v5.5c0.8-1,1.8-1.5,3.1-1.5c0.7,0,1.3,0.1,2,0.4c0.6,0.3,1.1,0.7,1.5,1.2
			c0.4,0.5,0.7,1.1,0.9,1.8c0.2,0.7,0.3,1.5,0.3,2.3c0,1.9-0.5,3.4-1.4,4.4s-2.1,1.6-3.4,1.6c-1.3,0-2.4-0.6-3.1-1.7V238.6z
			 M673.3,232.9c0,1.3,0.2,2.3,0.5,2.9c0.6,1,1.4,1.5,2.4,1.5c0.8,0,1.5-0.4,2.1-1.1s0.9-1.8,0.9-3.2c0-1.5-0.3-2.5-0.9-3.2
			s-1.3-1-2.1-1c-0.8,0-1.5,0.4-2.1,1.1S673.3,231.6,673.3,232.9z"/>
		<path d="M683.5,242.9l-0.2-1.8c0.4,0.1,0.8,0.2,1.1,0.2c0.4,0,0.8-0.1,1-0.2c0.3-0.1,0.5-0.3,0.6-0.6c0.1-0.2,0.3-0.7,0.6-1.4
			c0-0.1,0.1-0.3,0.2-0.5l-4.2-11.2h2l2.3,6.5c0.3,0.8,0.6,1.7,0.8,2.6c0.2-0.9,0.5-1.7,0.8-2.5l2.4-6.5h1.9l-4.3,11.4
			c-0.5,1.2-0.8,2.1-1.1,2.5c-0.3,0.6-0.7,1.1-1.2,1.4c-0.4,0.3-1,0.4-1.6,0.4C684.3,243.1,683.9,243.1,683.5,242.9z"/>
		<path d="M710.7,223.2h2v8.9c0,1.5-0.2,2.8-0.5,3.7s-1,1.7-1.9,2.2c-0.9,0.6-2.1,0.9-3.6,0.9c-1.4,0-2.6-0.2-3.5-0.7
			c-0.9-0.5-1.6-1.2-2-2.2c-0.4-0.9-0.6-2.2-0.6-3.9v-8.9h2v8.9c0,1.3,0.1,2.3,0.4,3c0.2,0.6,0.7,1.1,1.3,1.5s1.3,0.5,2.2,0.5
			c1.5,0,2.6-0.3,3.2-1c0.6-0.7,1-2,1-3.9V223.2z"/>
		<path d="M715.4,233.6l1.9-0.2c0.1,0.8,0.3,1.4,0.6,1.9c0.3,0.5,0.9,0.9,1.6,1.2c0.7,0.3,1.5,0.5,2.4,0.5c0.8,0,1.5-0.1,2.1-0.3
			c0.6-0.2,1-0.5,1.3-1s0.4-0.8,0.4-1.3c0-0.5-0.1-0.9-0.4-1.3c-0.3-0.4-0.7-0.7-1.4-0.9c-0.4-0.2-1.3-0.4-2.7-0.8
			c-1.4-0.3-2.4-0.7-3-1c-0.7-0.4-1.3-0.9-1.6-1.4c-0.4-0.6-0.5-1.2-0.5-1.9c0-0.8,0.2-1.5,0.7-2.2c0.4-0.7,1.1-1.2,1.9-1.5
			s1.8-0.5,2.8-0.5c1.1,0,2.2,0.2,3,0.6s1.5,0.9,2,1.6c0.5,0.7,0.7,1.5,0.8,2.4l-2,0.1c-0.1-1-0.5-1.7-1.1-2.2
			c-0.6-0.5-1.5-0.7-2.7-0.7c-1.2,0-2.1,0.2-2.7,0.7s-0.8,1-0.8,1.6c0,0.6,0.2,1,0.6,1.4c0.4,0.4,1.4,0.7,3.1,1.1
			c1.7,0.4,2.8,0.7,3.4,1c0.9,0.4,1.6,0.9,2,1.6c0.4,0.6,0.6,1.4,0.6,2.2c0,0.8-0.2,1.6-0.7,2.3c-0.5,0.7-1.1,1.3-2,1.7
			c-0.9,0.4-1.9,0.6-3,0.6c-1.4,0-2.6-0.2-3.5-0.6s-1.7-1-2.2-1.8C715.7,235.6,715.4,234.7,715.4,233.6z"/>
		<path d="M730.5,238.6v-15.4h5.3c1.2,0,2.1,0.1,2.7,0.2c0.9,0.2,1.6,0.6,2.3,1.1c0.8,0.7,1.4,1.6,1.8,2.6c0.4,1.1,0.6,2.3,0.6,3.7
			c0,1.2-0.1,2.2-0.4,3.1c-0.3,0.9-0.6,1.7-1.1,2.2c-0.4,0.6-0.9,1.1-1.4,1.4c-0.5,0.3-1.1,0.6-1.8,0.8c-0.7,0.2-1.5,0.3-2.5,0.3
			H730.5z M732.5,236.8h3.3c1,0,1.8-0.1,2.4-0.3s1-0.5,1.4-0.8c0.5-0.5,0.9-1.1,1.1-2c0.3-0.8,0.4-1.8,0.4-3c0-1.6-0.3-2.9-0.8-3.7
			c-0.5-0.9-1.2-1.4-1.9-1.7c-0.5-0.2-1.4-0.3-2.6-0.3h-3.2V236.8z"/>
		<path d="M744.3,238.6l5.9-15.4h2.2l6.3,15.4h-2.3l-1.8-4.7h-6.4l-1.7,4.7H744.3z M748.8,232.3h5.2l-1.6-4.3
			c-0.5-1.3-0.9-2.4-1.1-3.2c-0.2,1-0.5,2-0.8,2.9L748.8,232.3z"/>
		<path d="M764.5,233.6l1.9-0.2c0.1,0.8,0.3,1.4,0.6,1.9c0.3,0.5,0.9,0.9,1.6,1.2c0.7,0.3,1.5,0.5,2.4,0.5c0.8,0,1.5-0.1,2.1-0.3
			c0.6-0.2,1-0.5,1.3-1c0.3-0.4,0.4-0.8,0.4-1.3c0-0.5-0.1-0.9-0.4-1.3c-0.3-0.4-0.7-0.7-1.4-0.9c-0.4-0.2-1.3-0.4-2.7-0.8
			c-1.4-0.3-2.4-0.7-3-1c-0.7-0.4-1.3-0.9-1.6-1.4c-0.4-0.6-0.5-1.2-0.5-1.9c0-0.8,0.2-1.5,0.7-2.2s1.1-1.2,1.9-1.5s1.8-0.5,2.8-0.5
			c1.1,0,2.2,0.2,3,0.6s1.5,0.9,2,1.6c0.5,0.7,0.7,1.5,0.8,2.4l-2,0.1c-0.1-1-0.5-1.7-1.1-2.2c-0.6-0.5-1.5-0.7-2.7-0.7
			c-1.2,0-2.1,0.2-2.7,0.7c-0.6,0.5-0.8,1-0.8,1.6c0,0.6,0.2,1,0.6,1.4c0.4,0.4,1.4,0.7,3.1,1.1c1.7,0.4,2.8,0.7,3.4,1
			c0.9,0.4,1.6,0.9,2,1.6c0.4,0.6,0.6,1.4,0.6,2.2c0,0.8-0.2,1.6-0.7,2.3c-0.5,0.7-1.1,1.3-2,1.7c-0.9,0.4-1.9,0.6-3,0.6
			c-1.4,0-2.6-0.2-3.5-0.6s-1.7-1-2.2-1.8S764.5,234.7,764.5,233.6z"/>
		<path d="M779.6,238.6v-15.4h2.1l8.1,12.1v-12.1h2v15.4h-2.1l-8.1-12.1v12.1H779.6z"/>
		<path d="M793.4,238.6l5.9-15.4h2.2l6.3,15.4h-2.3l-1.8-4.7h-6.4l-1.7,4.7H793.4z M797.9,232.3h5.2l-1.6-4.3
			c-0.5-1.3-0.9-2.4-1.1-3.2c-0.2,1-0.5,2-0.8,2.9L797.9,232.3z"/>
		<path d="M809.5,238.6v-15.4h5.8c1,0,1.8,0,2.3,0.1c0.8,0.1,1.4,0.4,1.9,0.7c0.5,0.4,0.9,0.9,1.2,1.5s0.5,1.3,0.5,2.1
			c0,1.3-0.4,2.4-1.3,3.3s-2.3,1.4-4.5,1.4h-4v6.3H809.5z M811.6,230.5h4c1.3,0,2.3-0.2,2.8-0.7c0.6-0.5,0.8-1.2,0.8-2.1
			c0-0.6-0.2-1.2-0.5-1.7c-0.3-0.5-0.8-0.8-1.3-0.9c-0.3-0.1-1-0.1-1.9-0.1h-3.9V230.5z"/>
		<path d="M821.4,238.6v-2.2h2.2v2.2c0,0.8-0.1,1.4-0.4,1.9s-0.7,0.9-1.3,1.1l-0.5-0.8c0.4-0.2,0.7-0.4,0.9-0.8
			c0.2-0.3,0.3-0.8,0.3-1.5H821.4z"/>
		<path d="M832.8,238.6v-15.4h1.9v8.8l4.5-4.5h2.5l-4.3,4.1l4.7,7h-2.3l-3.7-5.7l-1.3,1.3v4.4H832.8z"/>
		<path d="M843.6,238.6v-11.2h1.7v1.6c0.8-1.2,2-1.8,3.6-1.8c0.7,0,1.3,0.1,1.9,0.4c0.6,0.2,1,0.6,1.3,1c0.3,0.4,0.5,0.9,0.6,1.4
			c0.1,0.4,0.1,1,0.1,1.8v6.9h-1.9v-6.8c0-0.8-0.1-1.3-0.2-1.7c-0.1-0.4-0.4-0.7-0.8-0.9c-0.4-0.2-0.8-0.3-1.3-0.3
			c-0.8,0-1.5,0.3-2.1,0.8s-0.9,1.5-0.9,2.9v6.1H843.6z"/>
		<path d="M854.9,233c0-2.1,0.6-3.6,1.7-4.6c1-0.8,2.1-1.2,3.5-1.2c1.5,0,2.8,0.5,3.8,1.5c1,1,1.5,2.4,1.5,4.2
			c0,1.4-0.2,2.6-0.6,3.4c-0.4,0.8-1.1,1.5-1.9,1.9c-0.8,0.5-1.7,0.7-2.7,0.7c-1.6,0-2.8-0.5-3.8-1.5S854.9,234.9,854.9,233z
			 M856.8,233c0,1.4,0.3,2.5,0.9,3.2c0.6,0.7,1.4,1.1,2.4,1.1c0.9,0,1.7-0.4,2.3-1.1s0.9-1.8,0.9-3.3c0-1.4-0.3-2.4-0.9-3.1
			c-0.6-0.7-1.4-1.1-2.3-1.1c-0.9,0-1.7,0.4-2.4,1.1C857.1,230.5,856.8,231.6,856.8,233z"/>
		<path d="M869.6,238.6l-3.4-11.2h2l1.8,6.4l0.7,2.4c0-0.1,0.2-0.9,0.6-2.3l1.8-6.5h1.9l1.7,6.5l0.6,2.1l0.6-2.2l1.9-6.5h1.8
			l-3.5,11.2h-2l-1.8-6.7l-0.4-1.9l-2.3,8.6H869.6z"/>
		<path d="M883.1,238.6v-11.2h1.7v1.6c0.8-1.2,2-1.8,3.6-1.8c0.7,0,1.3,0.1,1.9,0.4c0.6,0.2,1,0.6,1.3,1c0.3,0.4,0.5,0.9,0.6,1.4
			c0.1,0.4,0.1,1,0.1,1.8v6.9h-1.9v-6.8c0-0.8-0.1-1.3-0.2-1.7c-0.1-0.4-0.4-0.7-0.8-0.9s-0.8-0.3-1.3-0.3c-0.8,0-1.5,0.3-2.1,0.8
			s-0.9,1.5-0.9,2.9v6.1H883.1z"/>
		<path d="M901.1,225.4v-2.2h1.9v2.2H901.1z M901.1,238.6v-11.2h1.9v11.2H901.1z"/>
		<path d="M905.9,238.6v-11.2h1.7v1.6c0.8-1.2,2-1.8,3.6-1.8c0.7,0,1.3,0.1,1.9,0.4c0.6,0.2,1,0.6,1.3,1c0.3,0.4,0.5,0.9,0.6,1.4
			c0.1,0.4,0.1,1,0.1,1.8v6.9h-1.9v-6.8c0-0.8-0.1-1.3-0.2-1.7c-0.1-0.4-0.4-0.7-0.8-0.9s-0.8-0.3-1.3-0.3c-0.8,0-1.5,0.3-2.1,0.8
			s-0.9,1.5-0.9,2.9v6.1H905.9z"/>
		<path d="M935.1,233.2l2,0.5c-0.4,1.7-1.2,3-2.3,3.8c-1.1,0.9-2.5,1.3-4.1,1.3c-1.7,0-3-0.3-4.1-1s-1.8-1.7-2.4-2.9
			c-0.5-1.3-0.8-2.7-0.8-4.1c0-1.6,0.3-3,0.9-4.2c0.6-1.2,1.5-2.1,2.6-2.7s2.4-0.9,3.7-0.9c1.5,0,2.8,0.4,3.9,1.2
			c1.1,0.8,1.8,1.9,2.2,3.3l-2,0.5c-0.4-1.1-0.9-1.9-1.6-2.5c-0.7-0.5-1.5-0.8-2.6-0.8c-1.2,0-2.2,0.3-3,0.9
			c-0.8,0.6-1.4,1.3-1.7,2.3s-0.5,1.9-0.5,3c0,1.3,0.2,2.5,0.6,3.4c0.4,1,1,1.7,1.8,2.2s1.7,0.7,2.6,0.7c1.1,0,2.1-0.3,2.9-1
			C934.3,235.5,934.8,234.5,935.1,233.2z"/>
		<path d="M946.7,237.2c-0.7,0.6-1.4,1-2,1.3c-0.6,0.2-1.3,0.4-2.1,0.4c-1.2,0-2.2-0.3-2.8-0.9c-0.7-0.6-1-1.4-1-2.3
			c0-0.5,0.1-1,0.4-1.5c0.2-0.5,0.6-0.8,1-1.1c0.4-0.3,0.9-0.5,1.4-0.6c0.4-0.1,0.9-0.2,1.7-0.3c1.5-0.2,2.7-0.4,3.4-0.7
			c0-0.3,0-0.4,0-0.5c0-0.8-0.2-1.3-0.5-1.6c-0.5-0.4-1.2-0.6-2.2-0.6c-0.9,0-1.5,0.2-2,0.5s-0.7,0.9-0.9,1.7l-1.9-0.3
			c0.2-0.8,0.4-1.4,0.8-1.9s0.9-0.9,1.7-1.1c0.7-0.3,1.6-0.4,2.5-0.4c1,0,1.7,0.1,2.3,0.3c0.6,0.2,1,0.5,1.3,0.8
			c0.3,0.3,0.5,0.8,0.6,1.3c0.1,0.3,0.1,0.9,0.1,1.7v2.5c0,1.8,0,2.9,0.1,3.3c0.1,0.5,0.2,0.9,0.5,1.3h-2
			C946.9,238.2,946.8,237.7,946.7,237.2z M946.5,233c-0.7,0.3-1.7,0.5-3.1,0.7c-0.8,0.1-1.3,0.2-1.7,0.4s-0.6,0.3-0.7,0.6
			c-0.2,0.3-0.3,0.6-0.3,0.9c0,0.5,0.2,0.9,0.6,1.3c0.4,0.3,0.9,0.5,1.7,0.5c0.7,0,1.4-0.2,1.9-0.5c0.6-0.3,1-0.8,1.3-1.3
			c0.2-0.4,0.3-1.1,0.3-1.9V233z"/>
		<path d="M951.4,238.6v-15.4h1.9v15.4H951.4z"/>
		<path d="M956.2,225.4v-2.2h1.9v2.2H956.2z M956.2,238.6v-11.2h1.9v11.2H956.2z"/>
		<path d="M961.4,238.6v-9.7h-1.7v-1.5h1.7v-1.2c0-0.8,0.1-1.3,0.2-1.7c0.2-0.5,0.5-0.9,1-1.2c0.5-0.3,1.1-0.5,1.9-0.5
			c0.5,0,1.1,0.1,1.8,0.2l-0.3,1.7c-0.4-0.1-0.8-0.1-1.1-0.1c-0.6,0-1,0.1-1.2,0.4c-0.2,0.2-0.4,0.7-0.4,1.4v1h2.2v1.5h-2.2v9.7
			H961.4z"/>
		<path d="M966.3,233c0-2.1,0.6-3.6,1.7-4.6c1-0.8,2.1-1.2,3.5-1.2c1.5,0,2.8,0.5,3.8,1.5c1,1,1.5,2.4,1.5,4.2
			c0,1.4-0.2,2.6-0.6,3.4c-0.4,0.8-1.1,1.5-1.9,1.9c-0.8,0.5-1.7,0.7-2.7,0.7c-1.6,0-2.8-0.5-3.8-1.5S966.3,234.9,966.3,233z
			 M968.2,233c0,1.4,0.3,2.5,0.9,3.2c0.6,0.7,1.4,1.1,2.4,1.1c0.9,0,1.7-0.4,2.3-1.1s0.9-1.8,0.9-3.3c0-1.4-0.3-2.4-0.9-3.1
			c-0.6-0.7-1.4-1.1-2.3-1.1c-0.9,0-1.7,0.4-2.4,1.1C968.5,230.5,968.2,231.6,968.2,233z"/>
		<path d="M978.9,238.6v-11.2h1.7v1.7c0.4-0.8,0.8-1.3,1.2-1.6s0.8-0.4,1.2-0.4c0.6,0,1.3,0.2,1.9,0.6l-0.7,1.8
			c-0.5-0.3-0.9-0.4-1.4-0.4c-0.4,0-0.8,0.1-1.1,0.4s-0.6,0.6-0.7,1c-0.2,0.7-0.3,1.4-0.3,2.2v5.8H978.9z"/>
		<path d="M986.1,238.6v-11.2h1.7v1.6c0.8-1.2,2-1.8,3.6-1.8c0.7,0,1.3,0.1,1.9,0.4c0.6,0.2,1,0.6,1.3,1c0.3,0.4,0.5,0.9,0.6,1.4
			c0.1,0.4,0.1,1,0.1,1.8v6.9h-1.9v-6.8c0-0.8-0.1-1.3-0.2-1.7c-0.1-0.4-0.4-0.7-0.8-0.9c-0.4-0.2-0.8-0.3-1.3-0.3
			c-0.8,0-1.5,0.3-2.1,0.8s-0.9,1.5-0.9,2.9v6.1H986.1z"/>
		<path d="M998.1,225.4v-2.2h1.9v2.2H998.1z M998.1,238.6v-11.2h1.9v11.2H998.1z"/>
		<path d="M1010.2,237.2c-0.7,0.6-1.4,1-2,1.3c-0.6,0.2-1.3,0.4-2.1,0.4c-1.2,0-2.2-0.3-2.8-0.9c-0.7-0.6-1-1.4-1-2.3
			c0-0.5,0.1-1,0.4-1.5c0.2-0.5,0.6-0.8,1-1.1c0.4-0.3,0.9-0.5,1.4-0.6c0.4-0.1,0.9-0.2,1.7-0.3c1.5-0.2,2.7-0.4,3.4-0.7
			c0-0.3,0-0.4,0-0.5c0-0.8-0.2-1.3-0.5-1.6c-0.5-0.4-1.2-0.6-2.2-0.6c-0.9,0-1.5,0.2-2,0.5s-0.7,0.9-0.9,1.7l-1.9-0.3
			c0.2-0.8,0.4-1.4,0.8-1.9s0.9-0.9,1.7-1.1c0.7-0.3,1.6-0.4,2.5-0.4c1,0,1.7,0.1,2.3,0.3c0.6,0.2,1,0.5,1.3,0.8
			c0.3,0.3,0.5,0.8,0.6,1.3c0.1,0.3,0.1,0.9,0.1,1.7v2.5c0,1.8,0,2.9,0.1,3.3c0.1,0.5,0.2,0.9,0.5,1.3h-2
			C1010.4,238.2,1010.2,237.7,1010.2,237.2z M1010,233c-0.7,0.3-1.7,0.5-3.1,0.7c-0.8,0.1-1.3,0.2-1.7,0.4s-0.6,0.3-0.7,0.6
			s-0.3,0.6-0.3,0.9c0,0.5,0.2,0.9,0.6,1.3c0.4,0.3,0.9,0.5,1.7,0.5c0.7,0,1.4-0.2,1.9-0.5c0.6-0.3,1-0.8,1.3-1.3
			c0.2-0.4,0.3-1.1,0.3-1.9V233z"/>
		<path d="M1028.1,237.2c-0.7,0.6-1.4,1-2,1.3c-0.6,0.2-1.3,0.4-2.1,0.4c-1.2,0-2.2-0.3-2.8-0.9c-0.7-0.6-1-1.4-1-2.3
			c0-0.5,0.1-1,0.4-1.5c0.2-0.5,0.6-0.8,1-1.1c0.4-0.3,0.9-0.5,1.4-0.6c0.4-0.1,0.9-0.2,1.7-0.3c1.5-0.2,2.7-0.4,3.4-0.7
			c0-0.3,0-0.4,0-0.5c0-0.8-0.2-1.3-0.5-1.6c-0.5-0.4-1.2-0.6-2.2-0.6c-0.9,0-1.5,0.2-2,0.5c-0.4,0.3-0.7,0.9-0.9,1.7l-1.9-0.3
			c0.2-0.8,0.4-1.4,0.8-1.9c0.4-0.5,0.9-0.9,1.7-1.1c0.7-0.3,1.6-0.4,2.5-0.4c1,0,1.7,0.1,2.3,0.3c0.6,0.2,1,0.5,1.3,0.8
			c0.3,0.3,0.5,0.8,0.6,1.3c0.1,0.3,0.1,0.9,0.1,1.7v2.5c0,1.8,0,2.9,0.1,3.3s0.2,0.9,0.5,1.3h-2
			C1028.3,238.2,1028.2,237.7,1028.1,237.2z M1028,233c-0.7,0.3-1.7,0.5-3.1,0.7c-0.8,0.1-1.3,0.2-1.7,0.4c-0.3,0.1-0.6,0.3-0.7,0.6
			c-0.2,0.3-0.3,0.6-0.3,0.9c0,0.5,0.2,0.9,0.6,1.3c0.4,0.3,0.9,0.5,1.7,0.5c0.7,0,1.4-0.2,1.9-0.5c0.6-0.3,1-0.8,1.3-1.3
			c0.2-0.4,0.3-1.1,0.3-1.9V233z"/>
		<path d="M1032.1,235.3l1.9-0.3c0.1,0.8,0.4,1.3,0.9,1.7c0.5,0.4,1.2,0.6,2,0.6c0.9,0,1.5-0.2,1.9-0.5s0.6-0.8,0.6-1.2
			c0-0.4-0.2-0.8-0.6-1c-0.3-0.2-0.9-0.4-1.9-0.6c-1.4-0.4-2.4-0.7-2.9-0.9c-0.5-0.3-0.9-0.6-1.2-1.1c-0.3-0.5-0.4-1-0.4-1.5
			c0-0.5,0.1-1,0.3-1.4c0.2-0.4,0.5-0.8,0.9-1.1c0.3-0.2,0.7-0.4,1.2-0.6c0.5-0.2,1.1-0.2,1.6-0.2c0.9,0,1.6,0.1,2.3,0.4
			c0.7,0.3,1.2,0.6,1.5,1c0.3,0.4,0.5,1,0.7,1.7l-1.9,0.3c-0.1-0.6-0.3-1-0.7-1.3c-0.4-0.3-1-0.5-1.7-0.5c-0.9,0-1.5,0.1-1.9,0.4
			c-0.4,0.3-0.6,0.6-0.6,1c0,0.2,0.1,0.5,0.2,0.7c0.2,0.2,0.4,0.4,0.7,0.5c0.2,0.1,0.7,0.2,1.7,0.5c1.3,0.4,2.3,0.7,2.8,0.9
			s0.9,0.6,1.2,1c0.3,0.4,0.5,1,0.5,1.6c0,0.6-0.2,1.2-0.6,1.8c-0.4,0.6-0.9,1-1.6,1.3s-1.5,0.5-2.4,0.5c-1.5,0-2.6-0.3-3.3-0.9
			S1032.3,236.4,1032.1,235.3z"/>
		<path d="M1060.8,233.2l2,0.5c-0.4,1.7-1.2,3-2.3,3.8c-1.1,0.9-2.5,1.3-4.1,1.3c-1.7,0-3-0.3-4.1-1s-1.8-1.7-2.4-2.9
			c-0.5-1.3-0.8-2.7-0.8-4.1c0-1.6,0.3-3,0.9-4.2c0.6-1.2,1.5-2.1,2.6-2.7c1.1-0.6,2.4-0.9,3.7-0.9c1.5,0,2.8,0.4,3.9,1.2
			c1.1,0.8,1.8,1.9,2.2,3.3l-2,0.5c-0.4-1.1-0.9-1.9-1.6-2.5c-0.7-0.5-1.5-0.8-2.6-0.8c-1.2,0-2.2,0.3-3,0.9s-1.4,1.3-1.7,2.3
			s-0.5,1.9-0.5,3c0,1.3,0.2,2.5,0.6,3.4c0.4,1,1,1.7,1.8,2.2c0.8,0.5,1.7,0.7,2.6,0.7c1.1,0,2.1-0.3,2.9-1
			S1060.6,234.5,1060.8,233.2z"/>
		<path d="M1072.4,237.2c-0.7,0.6-1.4,1-2,1.3c-0.6,0.2-1.3,0.4-2.1,0.4c-1.2,0-2.2-0.3-2.8-0.9c-0.7-0.6-1-1.4-1-2.3
			c0-0.5,0.1-1,0.4-1.5c0.2-0.5,0.6-0.8,1-1.1c0.4-0.3,0.9-0.5,1.4-0.6c0.4-0.1,0.9-0.2,1.7-0.3c1.5-0.2,2.7-0.4,3.4-0.7
			c0-0.3,0-0.4,0-0.5c0-0.8-0.2-1.3-0.5-1.6c-0.5-0.4-1.2-0.6-2.2-0.6c-0.9,0-1.5,0.2-2,0.5s-0.7,0.9-0.9,1.7l-1.9-0.3
			c0.2-0.8,0.4-1.4,0.8-1.9s0.9-0.9,1.7-1.1c0.7-0.3,1.6-0.4,2.5-0.4c1,0,1.7,0.1,2.3,0.3c0.6,0.2,1,0.5,1.3,0.8
			c0.3,0.3,0.5,0.8,0.6,1.3c0.1,0.3,0.1,0.9,0.1,1.7v2.5c0,1.8,0,2.9,0.1,3.3c0.1,0.5,0.2,0.9,0.5,1.3h-2
			C1072.6,238.2,1072.5,237.7,1072.4,237.2z M1072.3,233c-0.7,0.3-1.7,0.5-3.1,0.7c-0.8,0.1-1.3,0.2-1.7,0.4s-0.6,0.3-0.7,0.6
			s-0.3,0.6-0.3,0.9c0,0.5,0.2,0.9,0.6,1.3c0.4,0.3,0.9,0.5,1.7,0.5c0.7,0,1.4-0.2,1.9-0.5c0.6-0.3,1-0.8,1.3-1.3
			c0.2-0.4,0.3-1.1,0.3-1.9V233z"/>
		<path d="M1077.1,238.6v-15.4h1.9v15.4H1077.1z"/>
		<path d="M1082.3,238.6v-15.4h10.4v1.8h-8.4v4.8h7.2v1.8h-7.2v7H1082.3z"/>
		<path d="M1095.1,238.6v-11.2h1.7v1.7c0.4-0.8,0.8-1.3,1.2-1.6s0.8-0.4,1.2-0.4c0.6,0,1.3,0.2,1.9,0.6l-0.7,1.8
			c-0.5-0.3-0.9-0.4-1.4-0.4c-0.4,0-0.8,0.1-1.1,0.4c-0.3,0.2-0.6,0.6-0.7,1c-0.2,0.7-0.3,1.4-0.3,2.2v5.8H1095.1z"/>
		<path d="M1109.9,235l2,0.2c-0.3,1.1-0.9,2-1.7,2.7c-0.8,0.6-1.9,0.9-3.2,0.9c-1.6,0-2.9-0.5-3.9-1.5c-1-1-1.4-2.4-1.4-4.2
			c0-1.9,0.5-3.3,1.5-4.4c1-1,2.2-1.6,3.8-1.6c1.5,0,2.7,0.5,3.7,1.5c0.9,1,1.4,2.4,1.4,4.3c0,0.1,0,0.3,0,0.5h-8.3
			c0.1,1.2,0.4,2.2,1,2.8c0.6,0.7,1.4,1,2.3,1c0.7,0,1.3-0.2,1.8-0.5C1109.2,236.4,1109.6,235.8,1109.9,235z M1103.7,231.9h6.2
			c-0.1-0.9-0.3-1.6-0.7-2.1c-0.6-0.7-1.4-1.1-2.3-1.1c-0.9,0-1.6,0.3-2.2,0.9S1103.8,231,1103.7,231.9z"/>
		<path d="M1113.5,235.3l1.9-0.3c0.1,0.8,0.4,1.3,0.9,1.7c0.5,0.4,1.2,0.6,2,0.6c0.9,0,1.5-0.2,1.9-0.5s0.6-0.8,0.6-1.2
			c0-0.4-0.2-0.8-0.6-1c-0.3-0.2-0.9-0.4-1.9-0.6c-1.4-0.4-2.4-0.7-2.9-0.9c-0.5-0.3-0.9-0.6-1.2-1.1c-0.3-0.5-0.4-1-0.4-1.5
			c0-0.5,0.1-1,0.3-1.4c0.2-0.4,0.5-0.8,0.9-1.1c0.3-0.2,0.7-0.4,1.2-0.6c0.5-0.2,1.1-0.2,1.6-0.2c0.9,0,1.6,0.1,2.3,0.4
			c0.7,0.3,1.2,0.6,1.5,1c0.3,0.4,0.5,1,0.7,1.7l-1.9,0.3c-0.1-0.6-0.3-1-0.7-1.3c-0.4-0.3-1-0.5-1.7-0.5c-0.9,0-1.5,0.1-1.9,0.4
			c-0.4,0.3-0.6,0.6-0.6,1c0,0.2,0.1,0.5,0.2,0.7c0.2,0.2,0.4,0.4,0.7,0.5c0.2,0.1,0.7,0.2,1.7,0.5c1.3,0.4,2.3,0.7,2.8,0.9
			s0.9,0.6,1.2,1c0.3,0.4,0.5,1,0.5,1.6c0,0.6-0.2,1.2-0.6,1.8c-0.4,0.6-0.9,1-1.6,1.3s-1.5,0.5-2.4,0.5c-1.5,0-2.6-0.3-3.3-0.9
			S1113.7,236.4,1113.5,235.3z"/>
		<path d="M1125,238.6v-15.4h1.9v5.5c0.9-1,2-1.5,3.3-1.5c0.8,0,1.5,0.2,2.2,0.5c0.6,0.3,1,0.8,1.3,1.4c0.3,0.6,0.4,1.4,0.4,2.5v7.1
			h-1.9v-7.1c0-0.9-0.2-1.6-0.6-2.1s-1-0.6-1.7-0.6c-0.6,0-1.1,0.1-1.6,0.4s-0.8,0.7-1.1,1.2c-0.2,0.5-0.3,1.2-0.3,2.1v6.1H1125z"/>
		<path d="M123.2,264.5V249h10.4v1.8h-8.4v4.8h7.2v1.8h-7.2v7H123.2z"/>
		<path d="M135.3,258.9c0-2.1,0.6-3.6,1.7-4.6c1-0.8,2.1-1.2,3.5-1.2c1.5,0,2.8,0.5,3.8,1.5c1,1,1.5,2.4,1.5,4.2
			c0,1.4-0.2,2.6-0.6,3.4c-0.4,0.8-1.1,1.5-1.9,1.9c-0.8,0.5-1.7,0.7-2.7,0.7c-1.6,0-2.8-0.5-3.8-1.5S135.3,260.8,135.3,258.9z
			 M137.2,258.9c0,1.4,0.3,2.5,0.9,3.2c0.6,0.7,1.4,1.1,2.4,1.1c0.9,0,1.7-0.4,2.3-1.1c0.6-0.7,0.9-1.8,0.9-3.3
			c0-1.4-0.3-2.4-0.9-3.1c-0.6-0.7-1.4-1.1-2.3-1.1c-0.9,0-1.7,0.4-2.4,1.1S137.2,257.4,137.2,258.9z"/>
		<path d="M147.3,258.9c0-2.1,0.6-3.6,1.7-4.6c1-0.8,2.1-1.2,3.5-1.2c1.5,0,2.8,0.5,3.8,1.5s1.5,2.4,1.5,4.2c0,1.4-0.2,2.6-0.6,3.4
			s-1.1,1.5-1.9,1.9s-1.7,0.7-2.7,0.7c-1.6,0-2.8-0.5-3.8-1.5C147.8,262.2,147.3,260.8,147.3,258.9z M149.2,258.9
			c0,1.4,0.3,2.5,0.9,3.2c0.6,0.7,1.4,1.1,2.4,1.1c0.9,0,1.7-0.4,2.3-1.1c0.6-0.7,0.9-1.8,0.9-3.3c0-1.4-0.3-2.4-0.9-3.1
			c-0.6-0.7-1.4-1.1-2.3-1.1c-0.9,0-1.7,0.4-2.4,1.1C149.5,256.4,149.2,257.4,149.2,258.9z"/>
		<path d="M167.2,264.5V263c-0.7,1.1-1.7,1.7-3.1,1.7c-0.9,0-1.7-0.2-2.5-0.7c-0.7-0.5-1.3-1.2-1.7-2.1s-0.6-1.9-0.6-3
			c0-1.1,0.2-2.1,0.6-3s0.9-1.6,1.7-2.1c0.7-0.5,1.6-0.7,2.5-0.7c0.7,0,1.3,0.1,1.8,0.4s1,0.7,1.3,1.1V249h1.9v15.4H167.2z
			 M161.2,258.9c0,1.4,0.3,2.5,0.9,3.2c0.6,0.7,1.3,1.1,2.1,1.1c0.8,0,1.5-0.3,2.1-1c0.6-0.7,0.9-1.7,0.9-3.1c0-1.5-0.3-2.7-0.9-3.4
			c-0.6-0.7-1.3-1.1-2.2-1.1c-0.8,0-1.5,0.3-2.1,1C161.5,256.3,161.2,257.4,161.2,258.9z"/>
		<path d="M172.4,264.5v-2.2h2.2v2.2c0,0.8-0.1,1.4-0.4,1.9c-0.3,0.5-0.7,0.9-1.3,1.1l-0.5-0.8c0.4-0.2,0.7-0.4,0.9-0.8
			c0.2-0.3,0.3-0.8,0.3-1.5H172.4z"/>
		<path d="M191.2,263.1c-0.7,0.6-1.4,1-2,1.3c-0.6,0.2-1.3,0.4-2.1,0.4c-1.2,0-2.2-0.3-2.8-0.9c-0.7-0.6-1-1.4-1-2.3
			c0-0.5,0.1-1,0.4-1.5s0.6-0.8,1-1.1s0.9-0.5,1.4-0.6c0.4-0.1,0.9-0.2,1.7-0.3c1.5-0.2,2.7-0.4,3.4-0.7c0-0.3,0-0.4,0-0.5
			c0-0.8-0.2-1.3-0.5-1.6c-0.5-0.4-1.2-0.6-2.2-0.6c-0.9,0-1.5,0.2-2,0.5s-0.7,0.9-0.9,1.7l-1.9-0.3c0.2-0.8,0.4-1.4,0.8-1.9
			c0.4-0.5,0.9-0.9,1.7-1.1c0.7-0.3,1.6-0.4,2.5-0.4c1,0,1.7,0.1,2.3,0.3c0.6,0.2,1,0.5,1.3,0.8c0.3,0.3,0.5,0.8,0.6,1.3
			c0.1,0.3,0.1,0.9,0.1,1.7v2.5c0,1.8,0,2.9,0.1,3.3s0.2,0.9,0.5,1.3h-2C191.4,264.1,191.3,263.6,191.2,263.1z M191.1,258.8
			c-0.7,0.3-1.7,0.5-3.1,0.7c-0.8,0.1-1.3,0.2-1.7,0.4c-0.3,0.1-0.6,0.3-0.7,0.6s-0.3,0.6-0.3,0.9c0,0.5,0.2,0.9,0.6,1.3
			c0.4,0.3,0.9,0.5,1.7,0.5c0.7,0,1.4-0.2,1.9-0.5c0.6-0.3,1-0.8,1.3-1.3c0.2-0.4,0.3-1.1,0.3-1.9V258.8z"/>
		<path d="M195.9,264.5v-11.2h1.7v1.6c0.8-1.2,2-1.8,3.6-1.8c0.7,0,1.3,0.1,1.9,0.4c0.6,0.2,1,0.6,1.3,1c0.3,0.4,0.5,0.9,0.6,1.4
			c0.1,0.4,0.1,1,0.1,1.8v6.9h-1.9v-6.8c0-0.8-0.1-1.3-0.2-1.7c-0.1-0.4-0.4-0.7-0.8-0.9c-0.4-0.2-0.8-0.3-1.3-0.3
			c-0.8,0-1.5,0.3-2.1,0.8c-0.6,0.5-0.9,1.5-0.9,2.9v6.1H195.9z"/>
		<path d="M221.5,260.9l2,0.2c-0.3,1.1-0.9,2-1.7,2.7s-1.9,0.9-3.2,0.9c-1.6,0-2.9-0.5-3.9-1.5c-1-1-1.4-2.4-1.4-4.2
			c0-1.9,0.5-3.3,1.5-4.4c1-1,2.2-1.6,3.8-1.6c1.5,0,2.7,0.5,3.7,1.5c0.9,1,1.4,2.4,1.4,4.3c0,0.1,0,0.3,0,0.5h-8.3
			c0.1,1.2,0.4,2.2,1,2.8s1.4,1,2.3,1c0.7,0,1.3-0.2,1.8-0.5C220.8,262.2,221.2,261.7,221.5,260.9z M215.3,257.8h6.2
			c-0.1-0.9-0.3-1.6-0.7-2.1c-0.6-0.7-1.4-1.1-2.3-1.1c-0.9,0-1.6,0.3-2.2,0.9C215.7,256,215.4,256.8,215.3,257.8z"/>
		<path d="M233,268.7v-5.5c-0.3,0.4-0.7,0.8-1.2,1c-0.5,0.3-1.1,0.4-1.7,0.4c-1.3,0-2.5-0.5-3.4-1.6c-1-1.1-1.4-2.5-1.4-4.4
			c0-1.1,0.2-2.1,0.6-3c0.4-0.9,1-1.6,1.7-2c0.7-0.5,1.6-0.7,2.4-0.7c1.4,0,2.5,0.6,3.3,1.7v-1.5h1.7v15.5H233z M227.1,258.8
			c0,1.4,0.3,2.5,0.9,3.2c0.6,0.7,1.3,1.1,2.2,1.1c0.8,0,1.5-0.3,2.1-1c0.6-0.7,0.9-1.7,0.9-3.1c0-1.5-0.3-2.6-0.9-3.4
			c-0.6-0.8-1.3-1.1-2.2-1.1c-0.8,0-1.5,0.3-2.1,1C227.4,256.3,227.1,257.4,227.1,258.8z"/>
		<path d="M245.2,264.5v-1.6c-0.9,1.3-2.1,1.9-3.5,1.9c-0.7,0-1.3-0.1-1.8-0.4c-0.6-0.3-1-0.6-1.3-1c-0.3-0.4-0.5-0.9-0.6-1.4
			c-0.1-0.4-0.1-1-0.1-1.8v-6.9h1.9v6.2c0,1,0,1.7,0.1,2c0.1,0.5,0.4,0.9,0.8,1.2s0.9,0.4,1.4,0.4c0.6,0,1.1-0.1,1.6-0.4
			c0.5-0.3,0.9-0.7,1.1-1.2c0.2-0.5,0.3-1.2,0.3-2.2v-6h1.9v11.2H245.2z"/>
		<path d="M257.1,263.1c-0.7,0.6-1.4,1-2,1.3c-0.6,0.2-1.3,0.4-2.1,0.4c-1.2,0-2.2-0.3-2.8-0.9c-0.7-0.6-1-1.4-1-2.3
			c0-0.5,0.1-1,0.4-1.5s0.6-0.8,1-1.1c0.4-0.3,0.9-0.5,1.4-0.6c0.4-0.1,0.9-0.2,1.7-0.3c1.5-0.2,2.7-0.4,3.4-0.7c0-0.3,0-0.4,0-0.5
			c0-0.8-0.2-1.3-0.5-1.6c-0.5-0.4-1.2-0.6-2.2-0.6c-0.9,0-1.5,0.2-2,0.5s-0.7,0.9-0.9,1.7l-1.9-0.3c0.2-0.8,0.4-1.4,0.8-1.9
			c0.4-0.5,0.9-0.9,1.7-1.1c0.7-0.3,1.6-0.4,2.5-0.4c1,0,1.7,0.1,2.3,0.3c0.6,0.2,1,0.5,1.3,0.8c0.3,0.3,0.5,0.8,0.6,1.3
			c0.1,0.3,0.1,0.9,0.1,1.7v2.5c0,1.8,0,2.9,0.1,3.3s0.2,0.9,0.5,1.3h-2C257.3,264.1,257.2,263.6,257.1,263.1z M256.9,258.8
			c-0.7,0.3-1.7,0.5-3.1,0.7c-0.8,0.1-1.3,0.2-1.7,0.4c-0.3,0.1-0.6,0.3-0.7,0.6s-0.3,0.6-0.3,0.9c0,0.5,0.2,0.9,0.6,1.3
			c0.4,0.3,0.9,0.5,1.7,0.5c0.7,0,1.4-0.2,1.9-0.5c0.6-0.3,1-0.8,1.3-1.3c0.2-0.4,0.3-1.1,0.3-1.9V258.8z"/>
		<path d="M261.8,264.5V249h1.9v15.4H261.8z"/>
		<path d="M271.9,258.9c0-2.1,0.6-3.6,1.7-4.6c1-0.8,2.1-1.2,3.5-1.2c1.5,0,2.8,0.5,3.8,1.5c1,1,1.5,2.4,1.5,4.2
			c0,1.4-0.2,2.6-0.6,3.4s-1.1,1.5-1.9,1.9c-0.8,0.5-1.7,0.7-2.7,0.7c-1.6,0-2.8-0.5-3.8-1.5S271.9,260.8,271.9,258.9z M273.8,258.9
			c0,1.4,0.3,2.5,0.9,3.2c0.6,0.7,1.4,1.1,2.4,1.1c0.9,0,1.7-0.4,2.3-1.1c0.6-0.7,0.9-1.8,0.9-3.3c0-1.4-0.3-2.4-0.9-3.1
			c-0.6-0.7-1.4-1.1-2.3-1.1c-0.9,0-1.7,0.4-2.4,1.1S273.8,257.4,273.8,258.9z"/>
		<path d="M284.6,268.7v-15.5h1.7v1.5c0.4-0.6,0.9-1,1.4-1.3s1.1-0.4,1.9-0.4c1,0,1.8,0.2,2.5,0.7c0.7,0.5,1.3,1.2,1.7,2.1
			c0.4,0.9,0.6,1.9,0.6,2.9c0,1.1-0.2,2.2-0.6,3.1c-0.4,0.9-1,1.6-1.8,2.1c-0.8,0.5-1.6,0.7-2.5,0.7c-0.6,0-1.2-0.1-1.7-0.4
			c-0.5-0.3-0.9-0.6-1.2-1v5.4H284.6z M286.3,258.9c0,1.4,0.3,2.5,0.9,3.2c0.6,0.7,1.3,1,2.1,1c0.8,0,1.6-0.4,2.2-1.1
			c0.6-0.7,0.9-1.8,0.9-3.3c0-1.4-0.3-2.5-0.9-3.2s-1.3-1.1-2.1-1.1c-0.8,0-1.5,0.4-2.1,1.1S286.3,257.5,286.3,258.9z"/>
		<path d="M296.5,268.7v-15.5h1.7v1.5c0.4-0.6,0.9-1,1.4-1.3s1.1-0.4,1.9-0.4c1,0,1.8,0.2,2.5,0.7s1.3,1.2,1.7,2.1
			c0.4,0.9,0.6,1.9,0.6,2.9c0,1.1-0.2,2.2-0.6,3.1c-0.4,0.9-1,1.6-1.8,2.1c-0.8,0.5-1.6,0.7-2.5,0.7c-0.6,0-1.2-0.1-1.7-0.4
			s-0.9-0.6-1.2-1v5.4H296.5z M298.3,258.9c0,1.4,0.3,2.5,0.9,3.2c0.6,0.7,1.3,1,2.1,1c0.8,0,1.6-0.4,2.2-1.1
			c0.6-0.7,0.9-1.8,0.9-3.3c0-1.4-0.3-2.5-0.9-3.2s-1.3-1.1-2.1-1.1c-0.8,0-1.5,0.4-2.1,1.1S298.3,257.5,298.3,258.9z"/>
		<path d="M307.8,258.9c0-2.1,0.6-3.6,1.7-4.6c1-0.8,2.1-1.2,3.5-1.2c1.5,0,2.8,0.5,3.8,1.5s1.5,2.4,1.5,4.2c0,1.4-0.2,2.6-0.6,3.4
			s-1.1,1.5-1.9,1.9s-1.7,0.7-2.7,0.7c-1.6,0-2.8-0.5-3.8-1.5C308.3,262.2,307.8,260.8,307.8,258.9z M309.8,258.9
			c0,1.4,0.3,2.5,0.9,3.2c0.6,0.7,1.4,1.1,2.4,1.1c0.9,0,1.7-0.4,2.3-1.1c0.6-0.7,0.9-1.8,0.9-3.3c0-1.4-0.3-2.4-0.9-3.1
			c-0.6-0.7-1.4-1.1-2.3-1.1c-0.9,0-1.7,0.4-2.4,1.1S309.8,257.4,309.8,258.9z"/>
		<path d="M320.5,264.5v-11.2h1.7v1.7c0.4-0.8,0.8-1.3,1.2-1.6c0.4-0.3,0.8-0.4,1.2-0.4c0.6,0,1.3,0.2,1.9,0.6l-0.7,1.8
			c-0.5-0.3-0.9-0.4-1.4-0.4c-0.4,0-0.8,0.1-1.1,0.4c-0.3,0.2-0.6,0.6-0.7,1c-0.2,0.7-0.3,1.4-0.3,2.2v5.8H320.5z"/>
		<path d="M331.8,262.8l0.3,1.7c-0.5,0.1-1,0.2-1.4,0.2c-0.7,0-1.2-0.1-1.6-0.3c-0.4-0.2-0.6-0.5-0.8-0.9s-0.2-1.1-0.2-2.2v-6.4
			h-1.4v-1.5h1.4v-2.8l1.9-1.1v3.9h1.9v1.5h-1.9v6.5c0,0.5,0,0.9,0.1,1s0.2,0.3,0.3,0.4c0.2,0.1,0.4,0.1,0.6,0.1
			C331.2,262.8,331.5,262.8,331.8,262.8z"/>
		<path d="M341,264.5v-1.6c-0.9,1.3-2.1,1.9-3.5,1.9c-0.7,0-1.3-0.1-1.8-0.4c-0.6-0.3-1-0.6-1.3-1s-0.5-0.9-0.6-1.4
			c-0.1-0.4-0.1-1-0.1-1.8v-6.9h1.9v6.2c0,1,0,1.7,0.1,2c0.1,0.5,0.4,0.9,0.8,1.2s0.9,0.4,1.4,0.4s1.1-0.1,1.6-0.4
			c0.5-0.3,0.9-0.7,1.1-1.2s0.3-1.2,0.3-2.2v-6h1.9v11.2H341z"/>
		<path d="M345.6,264.5v-11.2h1.7v1.6c0.8-1.2,2-1.8,3.6-1.8c0.7,0,1.3,0.1,1.9,0.4c0.6,0.2,1,0.6,1.3,1s0.5,0.9,0.6,1.4
			c0.1,0.4,0.1,1,0.1,1.8v6.9h-1.9v-6.8c0-0.8-0.1-1.3-0.2-1.7c-0.1-0.4-0.4-0.7-0.8-0.9c-0.4-0.2-0.8-0.3-1.3-0.3
			c-0.8,0-1.5,0.3-2.1,0.8c-0.6,0.5-0.9,1.5-0.9,2.9v6.1H345.6z"/>
		<path d="M357.6,251.2V249h1.9v2.2H357.6z M357.6,264.5v-11.2h1.9v11.2H357.6z"/>
		<path d="M366.5,262.8l0.3,1.7c-0.5,0.1-1,0.2-1.4,0.2c-0.7,0-1.2-0.1-1.6-0.3c-0.4-0.2-0.6-0.5-0.8-0.9s-0.2-1.1-0.2-2.2v-6.4
			h-1.4v-1.5h1.4v-2.8l1.9-1.1v3.9h1.9v1.5h-1.9v6.5c0,0.5,0,0.9,0.1,1c0.1,0.2,0.2,0.3,0.3,0.4c0.2,0.1,0.4,0.1,0.6,0.1
			C365.9,262.8,366.2,262.8,366.5,262.8z"/>
		<path d="M368.3,268.8l-0.2-1.8c0.4,0.1,0.8,0.2,1.1,0.2c0.4,0,0.8-0.1,1-0.2c0.3-0.1,0.5-0.3,0.6-0.6c0.1-0.2,0.3-0.7,0.6-1.4
			c0-0.1,0.1-0.3,0.2-0.5l-4.2-11.2h2l2.3,6.5c0.3,0.8,0.6,1.7,0.8,2.6c0.2-0.9,0.5-1.7,0.8-2.5l2.4-6.5h1.9l-4.3,11.4
			c-0.5,1.2-0.8,2.1-1.1,2.5c-0.3,0.6-0.7,1.1-1.2,1.4c-0.4,0.3-1,0.4-1.6,0.4C369.2,269,368.8,268.9,368.3,268.8z"/>
		<path d="M385.2,268.7v-15.5h1.7v1.5c0.4-0.6,0.9-1,1.4-1.3s1.1-0.4,1.9-0.4c1,0,1.8,0.2,2.5,0.7s1.3,1.2,1.7,2.1
			c0.4,0.9,0.6,1.9,0.6,2.9c0,1.1-0.2,2.2-0.6,3.1c-0.4,0.9-1,1.6-1.8,2.1c-0.8,0.5-1.6,0.7-2.5,0.7c-0.6,0-1.2-0.1-1.7-0.4
			s-0.9-0.6-1.2-1v5.4H385.2z M386.9,258.9c0,1.4,0.3,2.5,0.9,3.2c0.6,0.7,1.3,1,2.1,1c0.8,0,1.6-0.4,2.2-1.1
			c0.6-0.7,0.9-1.8,0.9-3.3c0-1.4-0.3-2.5-0.9-3.2s-1.3-1.1-2.1-1.1c-0.8,0-1.5,0.4-2.1,1.1S386.9,257.5,386.9,258.9z"/>
		<path d="M397.1,264.5v-11.2h1.7v1.7c0.4-0.8,0.8-1.3,1.2-1.6c0.4-0.3,0.8-0.4,1.2-0.4c0.6,0,1.3,0.2,1.9,0.6l-0.7,1.8
			c-0.5-0.3-0.9-0.4-1.4-0.4c-0.4,0-0.8,0.1-1.1,0.4c-0.3,0.2-0.6,0.6-0.7,1c-0.2,0.7-0.3,1.4-0.3,2.2v5.8H397.1z"/>
		<path d="M403.6,258.9c0-2.1,0.6-3.6,1.7-4.6c1-0.8,2.1-1.2,3.5-1.2c1.5,0,2.8,0.5,3.8,1.5s1.5,2.4,1.5,4.2c0,1.4-0.2,2.6-0.6,3.4
			s-1.1,1.5-1.9,1.9c-0.8,0.5-1.7,0.7-2.7,0.7c-1.6,0-2.8-0.5-3.8-1.5S403.6,260.8,403.6,258.9z M405.6,258.9c0,1.4,0.3,2.5,0.9,3.2
			c0.6,0.7,1.4,1.1,2.4,1.1c0.9,0,1.7-0.4,2.3-1.1c0.6-0.7,0.9-1.8,0.9-3.3c0-1.4-0.3-2.4-0.9-3.1c-0.6-0.7-1.4-1.1-2.3-1.1
			c-0.9,0-1.7,0.4-2.4,1.1S405.6,257.4,405.6,258.9z"/>
		<path d="M419.4,264.5l-4.3-11.2h2l2.4,6.7c0.3,0.7,0.5,1.5,0.7,2.3c0.2-0.6,0.4-1.3,0.7-2.1l2.5-6.8h1.9l-4.2,11.2H419.4z"/>
		<path d="M427.1,251.2V249h1.9v2.2H427.1z M427.1,264.5v-11.2h1.9v11.2H427.1z"/>
		<path d="M439.1,264.5V263c-0.7,1.1-1.7,1.7-3.1,1.7c-0.9,0-1.7-0.2-2.5-0.7c-0.7-0.5-1.3-1.2-1.7-2.1c-0.4-0.9-0.6-1.9-0.6-3
			c0-1.1,0.2-2.1,0.6-3c0.4-0.9,0.9-1.6,1.7-2.1c0.7-0.5,1.6-0.7,2.5-0.7c0.7,0,1.3,0.1,1.8,0.4s1,0.7,1.3,1.1V249h1.9v15.4H439.1z
			 M433.1,258.9c0,1.4,0.3,2.5,0.9,3.2c0.6,0.7,1.3,1.1,2.1,1.1c0.8,0,1.5-0.3,2.1-1c0.6-0.7,0.9-1.7,0.9-3.1c0-1.5-0.3-2.7-0.9-3.4
			c-0.6-0.7-1.3-1.1-2.2-1.1c-0.8,0-1.5,0.3-2.1,1C433.4,256.3,433.1,257.4,433.1,258.9z"/>
		<path d="M451.5,260.9l2,0.2c-0.3,1.1-0.9,2-1.7,2.7c-0.8,0.6-1.9,0.9-3.2,0.9c-1.6,0-2.9-0.5-3.9-1.5c-1-1-1.4-2.4-1.4-4.2
			c0-1.9,0.5-3.3,1.5-4.4c1-1,2.2-1.6,3.8-1.6c1.5,0,2.7,0.5,3.7,1.5c0.9,1,1.4,2.4,1.4,4.3c0,0.1,0,0.3,0,0.5h-8.3
			c0.1,1.2,0.4,2.2,1,2.8s1.4,1,2.3,1c0.7,0,1.3-0.2,1.8-0.5C450.8,262.2,451.2,261.7,451.5,260.9z M445.3,257.8h6.2
			c-0.1-0.9-0.3-1.6-0.7-2.1c-0.6-0.7-1.4-1.1-2.3-1.1c-0.9,0-1.6,0.3-2.2,0.9S445.3,256.8,445.3,257.8z"/>
		<path d="M455.8,264.5v-11.2h1.7v1.7c0.4-0.8,0.8-1.3,1.2-1.6c0.4-0.3,0.8-0.4,1.2-0.4c0.6,0,1.3,0.2,1.9,0.6l-0.7,1.8
			c-0.5-0.3-0.9-0.4-1.4-0.4c-0.4,0-0.8,0.1-1.1,0.4c-0.3,0.2-0.6,0.6-0.7,1c-0.2,0.7-0.3,1.4-0.3,2.2v5.8H455.8z"/>
		<path d="M476.3,263.1c-0.7,0.6-1.4,1-2,1.3c-0.6,0.2-1.3,0.4-2.1,0.4c-1.2,0-2.2-0.3-2.8-0.9c-0.7-0.6-1-1.4-1-2.3
			c0-0.5,0.1-1,0.4-1.5c0.2-0.5,0.6-0.8,1-1.1c0.4-0.3,0.9-0.5,1.4-0.6c0.4-0.1,0.9-0.2,1.7-0.3c1.5-0.2,2.7-0.4,3.4-0.7
			c0-0.3,0-0.4,0-0.5c0-0.8-0.2-1.3-0.5-1.6c-0.5-0.4-1.2-0.6-2.2-0.6c-0.9,0-1.5,0.2-2,0.5s-0.7,0.9-0.9,1.7l-1.9-0.3
			c0.2-0.8,0.4-1.4,0.8-1.9c0.4-0.5,0.9-0.9,1.7-1.1c0.7-0.3,1.6-0.4,2.5-0.4c1,0,1.7,0.1,2.3,0.3c0.6,0.2,1,0.5,1.3,0.8
			c0.3,0.3,0.5,0.8,0.6,1.3c0.1,0.3,0.1,0.9,0.1,1.7v2.5c0,1.8,0,2.9,0.1,3.3s0.2,0.9,0.5,1.3h-2
			C476.5,264.1,476.3,263.6,476.3,263.1z M476.1,258.8c-0.7,0.3-1.7,0.5-3.1,0.7c-0.8,0.1-1.3,0.2-1.7,0.4c-0.3,0.1-0.6,0.3-0.7,0.6
			c-0.2,0.3-0.3,0.6-0.3,0.9c0,0.5,0.2,0.9,0.6,1.3c0.4,0.3,0.9,0.5,1.7,0.5c0.7,0,1.4-0.2,1.9-0.5c0.6-0.3,1-0.8,1.3-1.3
			c0.2-0.4,0.3-1.1,0.3-1.9V258.8z"/>
		<path d="M481,264.5v-11.2h1.7v1.6c0.8-1.2,2-1.8,3.6-1.8c0.7,0,1.3,0.1,1.9,0.4c0.6,0.2,1,0.6,1.3,1s0.5,0.9,0.6,1.4
			c0.1,0.4,0.1,1,0.1,1.8v6.9h-1.9v-6.8c0-0.8-0.1-1.3-0.2-1.7c-0.1-0.4-0.4-0.7-0.8-0.9c-0.4-0.2-0.8-0.3-1.3-0.3
			c-0.8,0-1.5,0.3-2.1,0.8c-0.6,0.5-0.9,1.5-0.9,2.9v6.1H481z"/>
		<path d="M500.2,264.5V263c-0.7,1.1-1.7,1.7-3.1,1.7c-0.9,0-1.7-0.2-2.5-0.7c-0.7-0.5-1.3-1.2-1.7-2.1c-0.4-0.9-0.6-1.9-0.6-3
			c0-1.1,0.2-2.1,0.6-3c0.4-0.9,0.9-1.6,1.7-2.1c0.7-0.5,1.6-0.7,2.5-0.7c0.7,0,1.3,0.1,1.8,0.4c0.5,0.3,1,0.7,1.3,1.1V249h1.9v15.4
			H500.2z M494.2,258.9c0,1.4,0.3,2.5,0.9,3.2c0.6,0.7,1.3,1.1,2.1,1.1c0.8,0,1.5-0.3,2.1-1c0.6-0.7,0.9-1.7,0.9-3.1
			c0-1.5-0.3-2.7-0.9-3.4s-1.3-1.1-2.2-1.1c-0.8,0-1.5,0.3-2.1,1C494.5,256.3,494.2,257.4,494.2,258.9z"/>
		<path d="M518.6,260.9l2,0.2c-0.3,1.1-0.9,2-1.7,2.7s-1.9,0.9-3.2,0.9c-1.6,0-2.9-0.5-3.9-1.5s-1.4-2.4-1.4-4.2
			c0-1.9,0.5-3.3,1.5-4.4c1-1,2.2-1.6,3.8-1.6c1.5,0,2.7,0.5,3.7,1.5c0.9,1,1.4,2.4,1.4,4.3c0,0.1,0,0.3,0,0.5h-8.3
			c0.1,1.2,0.4,2.2,1,2.8c0.6,0.7,1.4,1,2.3,1c0.7,0,1.3-0.2,1.8-0.5C517.9,262.2,518.3,261.7,518.6,260.9z M512.4,257.8h6.2
			c-0.1-0.9-0.3-1.6-0.7-2.1c-0.6-0.7-1.4-1.1-2.3-1.1c-0.9,0-1.6,0.3-2.2,0.9S512.4,256.8,512.4,257.8z"/>
		<path d="M522.9,264.5v-11.2h1.7v1.6c0.4-0.5,0.8-1,1.4-1.3c0.6-0.3,1.2-0.5,2-0.5c0.8,0,1.5,0.2,2,0.5c0.5,0.3,0.9,0.8,1.1,1.4
			c0.9-1.3,2-2,3.5-2c1.1,0,2,0.3,2.6,0.9c0.6,0.6,0.9,1.6,0.9,2.8v7.7h-1.9v-7c0-0.8-0.1-1.3-0.2-1.6c-0.1-0.3-0.3-0.6-0.7-0.8
			c-0.3-0.2-0.7-0.3-1.1-0.3c-0.8,0-1.4,0.3-2,0.8s-0.8,1.4-0.8,2.5v6.5h-1.9v-7.3c0-0.8-0.2-1.5-0.5-1.9c-0.3-0.4-0.8-0.6-1.5-0.6
			c-0.5,0-1,0.1-1.5,0.4c-0.5,0.3-0.8,0.7-1,1.2c-0.2,0.5-0.3,1.3-0.3,2.3v5.8H522.9z"/>
		<path d="M540.8,268.7v-15.5h1.7v1.5c0.4-0.6,0.9-1,1.4-1.3c0.5-0.3,1.1-0.4,1.9-0.4c1,0,1.8,0.2,2.5,0.7c0.7,0.5,1.3,1.2,1.7,2.1
			c0.4,0.9,0.6,1.9,0.6,2.9c0,1.1-0.2,2.2-0.6,3.1s-1,1.6-1.8,2.1c-0.8,0.5-1.6,0.7-2.5,0.7c-0.6,0-1.2-0.1-1.7-0.4s-0.9-0.6-1.2-1
			v5.4H540.8z M542.6,258.9c0,1.4,0.3,2.5,0.9,3.2c0.6,0.7,1.3,1,2.1,1c0.8,0,1.6-0.4,2.2-1.1c0.6-0.7,0.9-1.8,0.9-3.3
			c0-1.4-0.3-2.5-0.9-3.2s-1.3-1.1-2.1-1.1c-0.8,0-1.5,0.4-2.1,1.1C542.9,256.4,542.6,257.5,542.6,258.9z"/>
		<path d="M552.8,264.5V249h1.9v15.4H552.8z"/>
		<path d="M556.9,258.9c0-2.1,0.6-3.6,1.7-4.6c1-0.8,2.1-1.2,3.5-1.2c1.5,0,2.8,0.5,3.8,1.5c1,1,1.5,2.4,1.5,4.2
			c0,1.4-0.2,2.6-0.6,3.4s-1.1,1.5-1.9,1.9s-1.7,0.7-2.7,0.7c-1.6,0-2.8-0.5-3.8-1.5S556.9,260.8,556.9,258.9z M558.9,258.9
			c0,1.4,0.3,2.5,0.9,3.2c0.6,0.7,1.4,1.1,2.4,1.1c0.9,0,1.7-0.4,2.3-1.1c0.6-0.7,0.9-1.8,0.9-3.3c0-1.4-0.3-2.4-0.9-3.1
			c-0.6-0.7-1.4-1.1-2.3-1.1c-0.9,0-1.7,0.4-2.4,1.1S558.9,257.4,558.9,258.9z"/>
		<path d="M569.5,268.8l-0.2-1.8c0.4,0.1,0.8,0.2,1.1,0.2c0.4,0,0.8-0.1,1-0.2c0.3-0.1,0.5-0.3,0.6-0.6c0.1-0.2,0.3-0.7,0.6-1.4
			c0-0.1,0.1-0.3,0.2-0.5l-4.2-11.2h2l2.3,6.5c0.3,0.8,0.6,1.7,0.8,2.6c0.2-0.9,0.5-1.7,0.8-2.5l2.4-6.5h1.9l-4.3,11.4
			c-0.5,1.2-0.8,2.1-1.1,2.5c-0.3,0.6-0.7,1.1-1.2,1.4c-0.4,0.3-1,0.4-1.6,0.4C570.4,269,570,268.9,569.5,268.8z"/>
		<path d="M588,260.9l2,0.2c-0.3,1.1-0.9,2-1.7,2.7s-1.9,0.9-3.2,0.9c-1.6,0-2.9-0.5-3.9-1.5c-1-1-1.4-2.4-1.4-4.2
			c0-1.9,0.5-3.3,1.5-4.4c1-1,2.2-1.6,3.8-1.6c1.5,0,2.7,0.5,3.7,1.5c0.9,1,1.4,2.4,1.4,4.3c0,0.1,0,0.3,0,0.5h-8.3
			c0.1,1.2,0.4,2.2,1,2.8c0.6,0.7,1.4,1,2.3,1c0.7,0,1.3-0.2,1.8-0.5C587.3,262.2,587.7,261.7,588,260.9z M581.8,257.8h6.2
			c-0.1-0.9-0.3-1.6-0.7-2.1c-0.6-0.7-1.4-1.1-2.3-1.1c-0.9,0-1.6,0.3-2.2,0.9S581.9,256.8,581.8,257.8z"/>
		<path d="M592.3,264.5v-11.2h1.7v1.7c0.4-0.8,0.8-1.3,1.2-1.6s0.8-0.4,1.2-0.4c0.6,0,1.3,0.2,1.9,0.6l-0.7,1.8
			c-0.5-0.3-0.9-0.4-1.4-0.4c-0.4,0-0.8,0.1-1.1,0.4s-0.6,0.6-0.7,1c-0.2,0.7-0.3,1.4-0.3,2.2v5.8H592.3z"/>
		<path d="M598.8,264.5v-2.2h2.2v2.2c0,0.8-0.1,1.4-0.4,1.9c-0.3,0.5-0.7,0.9-1.3,1.1l-0.5-0.8c0.4-0.2,0.7-0.4,0.9-0.8
			c0.2-0.3,0.3-0.8,0.3-1.5H598.8z"/>
		<path d="M617.6,263.1c-0.7,0.6-1.4,1-2,1.3s-1.3,0.4-2.1,0.4c-1.2,0-2.2-0.3-2.8-0.9c-0.7-0.6-1-1.4-1-2.3c0-0.5,0.1-1,0.4-1.5
			c0.2-0.5,0.6-0.8,1-1.1c0.4-0.3,0.9-0.5,1.4-0.6c0.4-0.1,0.9-0.2,1.7-0.3c1.5-0.2,2.7-0.4,3.4-0.7c0-0.3,0-0.4,0-0.5
			c0-0.8-0.2-1.3-0.5-1.6c-0.5-0.4-1.2-0.6-2.2-0.6c-0.9,0-1.5,0.2-2,0.5s-0.7,0.9-0.9,1.7l-1.9-0.3c0.2-0.8,0.4-1.4,0.8-1.9
			c0.4-0.5,0.9-0.9,1.7-1.1c0.7-0.3,1.6-0.4,2.5-0.4c1,0,1.7,0.1,2.3,0.3c0.6,0.2,1,0.5,1.3,0.8c0.3,0.3,0.5,0.8,0.6,1.3
			c0.1,0.3,0.1,0.9,0.1,1.7v2.5c0,1.8,0,2.9,0.1,3.3c0.1,0.5,0.2,0.9,0.5,1.3h-2C617.8,264.1,617.7,263.6,617.6,263.1z M617.4,258.8
			c-0.7,0.3-1.7,0.5-3.1,0.7c-0.8,0.1-1.3,0.2-1.7,0.4c-0.3,0.1-0.6,0.3-0.7,0.6s-0.3,0.6-0.3,0.9c0,0.5,0.2,0.9,0.6,1.3
			c0.4,0.3,0.9,0.5,1.7,0.5c0.7,0,1.4-0.2,1.9-0.5c0.6-0.3,1-0.8,1.3-1.3c0.2-0.4,0.3-1.1,0.3-1.9V258.8z"/>
		<path d="M622.3,264.5v-11.2h1.7v1.6c0.8-1.2,2-1.8,3.6-1.8c0.7,0,1.3,0.1,1.9,0.4c0.6,0.2,1,0.6,1.3,1c0.3,0.4,0.5,0.9,0.6,1.4
			c0.1,0.4,0.1,1,0.1,1.8v6.9h-1.9v-6.8c0-0.8-0.1-1.3-0.2-1.7c-0.1-0.4-0.4-0.7-0.8-0.9c-0.4-0.2-0.8-0.3-1.3-0.3
			c-0.8,0-1.5,0.3-2.1,0.8c-0.6,0.5-0.9,1.5-0.9,2.9v6.1H622.3z"/>
		<path d="M641.5,264.5V263c-0.7,1.1-1.7,1.7-3.1,1.7c-0.9,0-1.7-0.2-2.5-0.7c-0.7-0.5-1.3-1.2-1.7-2.1s-0.6-1.9-0.6-3
			c0-1.1,0.2-2.1,0.6-3s0.9-1.6,1.7-2.1c0.7-0.5,1.6-0.7,2.5-0.7c0.7,0,1.3,0.1,1.8,0.4c0.5,0.3,1,0.7,1.3,1.1V249h1.9v15.4H641.5z
			 M635.5,258.9c0,1.4,0.3,2.5,0.9,3.2s1.3,1.1,2.1,1.1c0.8,0,1.5-0.3,2.1-1c0.6-0.7,0.9-1.7,0.9-3.1c0-1.5-0.3-2.7-0.9-3.4
			c-0.6-0.7-1.3-1.1-2.2-1.1c-0.8,0-1.5,0.3-2.1,1S635.5,257.4,635.5,258.9z"/>
		<path d="M656.4,262.8l0.3,1.7c-0.5,0.1-1,0.2-1.4,0.2c-0.7,0-1.2-0.1-1.6-0.3c-0.4-0.2-0.6-0.5-0.8-0.9s-0.2-1.1-0.2-2.2v-6.4
			h-1.4v-1.5h1.4v-2.8l1.9-1.1v3.9h1.9v1.5h-1.9v6.5c0,0.5,0,0.9,0.1,1c0.1,0.2,0.2,0.3,0.3,0.4c0.2,0.1,0.4,0.1,0.6,0.1
			C655.8,262.8,656,262.8,656.4,262.8z"/>
		<path d="M658.2,264.5V249h1.9v5.5c0.9-1,2-1.5,3.3-1.5c0.8,0,1.5,0.2,2.2,0.5s1,0.8,1.3,1.4c0.3,0.6,0.4,1.4,0.4,2.5v7.1h-1.9
			v-7.1c0-0.9-0.2-1.6-0.6-2.1c-0.4-0.4-1-0.6-1.7-0.6c-0.6,0-1.1,0.1-1.6,0.4s-0.8,0.7-1.1,1.2c-0.2,0.5-0.3,1.2-0.3,2.1v6.1H658.2
			z"/>
		<path d="M677.9,260.9l2,0.2c-0.3,1.1-0.9,2-1.7,2.7c-0.8,0.6-1.9,0.9-3.2,0.9c-1.6,0-2.9-0.5-3.9-1.5s-1.4-2.4-1.4-4.2
			c0-1.9,0.5-3.3,1.5-4.4c1-1,2.2-1.6,3.8-1.6c1.5,0,2.7,0.5,3.7,1.5c0.9,1,1.4,2.4,1.4,4.3c0,0.1,0,0.3,0,0.5h-8.3
			c0.1,1.2,0.4,2.2,1,2.8s1.4,1,2.3,1c0.7,0,1.3-0.2,1.8-0.5C677.2,262.2,677.6,261.7,677.9,260.9z M671.6,257.8h6.2
			c-0.1-0.9-0.3-1.6-0.7-2.1c-0.6-0.7-1.4-1.1-2.3-1.1c-0.9,0-1.6,0.3-2.2,0.9S671.7,256.8,671.6,257.8z"/>
		<path d="M699.4,259l2,0.5c-0.4,1.7-1.2,3-2.3,3.8c-1.1,0.9-2.5,1.3-4.1,1.3c-1.7,0-3-0.3-4.1-1c-1-0.7-1.8-1.7-2.4-2.9
			c-0.5-1.3-0.8-2.7-0.8-4.1c0-1.6,0.3-3,0.9-4.2c0.6-1.2,1.5-2.1,2.6-2.7s2.4-0.9,3.7-0.9c1.5,0,2.8,0.4,3.9,1.2
			c1.1,0.8,1.8,1.9,2.2,3.3l-2,0.5c-0.4-1.1-0.9-1.9-1.6-2.5s-1.5-0.8-2.6-0.8c-1.2,0-2.2,0.3-3,0.9c-0.8,0.6-1.4,1.3-1.7,2.3
			c-0.3,1-0.5,1.9-0.5,3c0,1.3,0.2,2.5,0.6,3.4c0.4,1,1,1.7,1.8,2.2c0.8,0.5,1.7,0.7,2.6,0.7c1.1,0,2.1-0.3,2.9-1
			C698.6,261.3,699.2,260.3,699.4,259z"/>
		<path d="M711,263.1c-0.7,0.6-1.4,1-2,1.3s-1.3,0.4-2.1,0.4c-1.2,0-2.2-0.3-2.8-0.9c-0.7-0.6-1-1.4-1-2.3c0-0.5,0.1-1,0.4-1.5
			c0.2-0.5,0.6-0.8,1-1.1s0.9-0.5,1.4-0.6c0.4-0.1,0.9-0.2,1.7-0.3c1.5-0.2,2.7-0.4,3.4-0.7c0-0.3,0-0.4,0-0.5
			c0-0.8-0.2-1.3-0.5-1.6c-0.5-0.4-1.2-0.6-2.2-0.6c-0.9,0-1.5,0.2-2,0.5s-0.7,0.9-0.9,1.7l-1.9-0.3c0.2-0.8,0.4-1.4,0.8-1.9
			c0.4-0.5,0.9-0.9,1.7-1.1c0.7-0.3,1.6-0.4,2.5-0.4c1,0,1.7,0.1,2.3,0.3c0.6,0.2,1,0.5,1.3,0.8c0.3,0.3,0.5,0.8,0.6,1.3
			c0.1,0.3,0.1,0.9,0.1,1.7v2.5c0,1.8,0,2.9,0.1,3.3c0.1,0.5,0.2,0.9,0.5,1.3h-2C711.2,264.1,711.1,263.6,711,263.1z M710.9,258.8
			c-0.7,0.3-1.7,0.5-3.1,0.7c-0.8,0.1-1.3,0.2-1.7,0.4c-0.3,0.1-0.6,0.3-0.7,0.6c-0.2,0.3-0.3,0.6-0.3,0.9c0,0.5,0.2,0.9,0.6,1.3
			c0.4,0.3,0.9,0.5,1.7,0.5c0.7,0,1.4-0.2,1.9-0.5c0.6-0.3,1-0.8,1.3-1.3c0.2-0.4,0.3-1.1,0.3-1.9V258.8z"/>
		<path d="M715.7,264.5V249h1.9v15.4H715.7z"/>
		<path d="M720.5,251.2V249h1.9v2.2H720.5z M720.5,264.5v-11.2h1.9v11.2H720.5z"/>
		<path d="M725.8,264.5v-9.7h-1.7v-1.5h1.7v-1.2c0-0.8,0.1-1.3,0.2-1.7c0.2-0.5,0.5-0.9,1-1.2c0.5-0.3,1.1-0.5,1.9-0.5
			c0.5,0,1.1,0.1,1.8,0.2l-0.3,1.7c-0.4-0.1-0.8-0.1-1.1-0.1c-0.6,0-1,0.1-1.2,0.4c-0.2,0.2-0.4,0.7-0.4,1.4v1h2.2v1.5h-2.2v9.7
			H725.8z"/>
		<path d="M730.6,258.9c0-2.1,0.6-3.6,1.7-4.6c1-0.8,2.1-1.2,3.5-1.2c1.5,0,2.8,0.5,3.8,1.5c1,1,1.5,2.4,1.5,4.2
			c0,1.4-0.2,2.6-0.6,3.4s-1.1,1.5-1.9,1.9s-1.7,0.7-2.7,0.7c-1.6,0-2.8-0.5-3.8-1.5S730.6,260.8,730.6,258.9z M732.5,258.9
			c0,1.4,0.3,2.5,0.9,3.2c0.6,0.7,1.4,1.1,2.4,1.1c0.9,0,1.7-0.4,2.3-1.1c0.6-0.7,0.9-1.8,0.9-3.3c0-1.4-0.3-2.4-0.9-3.1
			c-0.6-0.7-1.4-1.1-2.3-1.1c-0.9,0-1.7,0.4-2.4,1.1S732.5,257.4,732.5,258.9z"/>
		<path d="M743.2,264.5v-11.2h1.7v1.7c0.4-0.8,0.8-1.3,1.2-1.6s0.8-0.4,1.2-0.4c0.6,0,1.3,0.2,1.9,0.6l-0.7,1.8
			c-0.5-0.3-0.9-0.4-1.4-0.4c-0.4,0-0.8,0.1-1.1,0.4s-0.6,0.6-0.7,1c-0.2,0.7-0.3,1.4-0.3,2.2v5.8H743.2z"/>
		<path d="M750.4,264.5v-11.2h1.7v1.6c0.8-1.2,2-1.8,3.6-1.8c0.7,0,1.3,0.1,1.9,0.4c0.6,0.2,1,0.6,1.3,1c0.3,0.4,0.5,0.9,0.6,1.4
			c0.1,0.4,0.1,1,0.1,1.8v6.9h-1.9v-6.8c0-0.8-0.1-1.3-0.2-1.7c-0.1-0.4-0.4-0.7-0.8-0.9c-0.4-0.2-0.8-0.3-1.3-0.3
			c-0.8,0-1.5,0.3-2.1,0.8c-0.6,0.5-0.9,1.5-0.9,2.9v6.1H750.4z"/>
		<path d="M762.4,251.2V249h1.9v2.2H762.4z M762.4,264.5v-11.2h1.9v11.2H762.4z"/>
		<path d="M774.5,263.1c-0.7,0.6-1.4,1-2,1.3c-0.6,0.2-1.3,0.4-2.1,0.4c-1.2,0-2.2-0.3-2.8-0.9c-0.7-0.6-1-1.4-1-2.3
			c0-0.5,0.1-1,0.4-1.5s0.6-0.8,1-1.1c0.4-0.3,0.9-0.5,1.4-0.6c0.4-0.1,0.9-0.2,1.7-0.3c1.5-0.2,2.7-0.4,3.4-0.7c0-0.3,0-0.4,0-0.5
			c0-0.8-0.2-1.3-0.5-1.6c-0.5-0.4-1.2-0.6-2.2-0.6c-0.9,0-1.5,0.2-2,0.5s-0.7,0.9-0.9,1.7l-1.9-0.3c0.2-0.8,0.4-1.4,0.8-1.9
			c0.4-0.5,0.9-0.9,1.7-1.1c0.7-0.3,1.6-0.4,2.5-0.4c1,0,1.7,0.1,2.3,0.3c0.6,0.2,1,0.5,1.3,0.8c0.3,0.3,0.5,0.8,0.6,1.3
			c0.1,0.3,0.1,0.9,0.1,1.7v2.5c0,1.8,0,2.9,0.1,3.3c0.1,0.5,0.2,0.9,0.5,1.3h-2C774.7,264.1,774.6,263.6,774.5,263.1z M774.3,258.8
			c-0.7,0.3-1.7,0.5-3.1,0.7c-0.8,0.1-1.3,0.2-1.7,0.4c-0.3,0.1-0.6,0.3-0.7,0.6s-0.3,0.6-0.3,0.9c0,0.5,0.2,0.9,0.6,1.3
			c0.4,0.3,0.9,0.5,1.7,0.5c0.7,0,1.4-0.2,1.9-0.5c0.6-0.3,1-0.8,1.3-1.3c0.2-0.4,0.3-1.1,0.3-1.9V258.8z"/>
		<path d="M785.4,264.5V249h5.3c1.2,0,2.1,0.1,2.7,0.2c0.9,0.2,1.6,0.6,2.3,1.1c0.8,0.7,1.4,1.6,1.8,2.6c0.4,1.1,0.6,2.3,0.6,3.7
			c0,1.2-0.1,2.2-0.4,3.1c-0.3,0.9-0.6,1.7-1.1,2.2c-0.4,0.6-0.9,1.1-1.4,1.4s-1.1,0.6-1.8,0.8c-0.7,0.2-1.5,0.3-2.5,0.3H785.4z
			 M787.5,262.6h3.3c1,0,1.8-0.1,2.4-0.3s1-0.5,1.4-0.8c0.5-0.5,0.9-1.1,1.1-2s0.4-1.8,0.4-3c0-1.6-0.3-2.9-0.8-3.7
			c-0.5-0.9-1.2-1.4-1.9-1.7c-0.5-0.2-1.4-0.3-2.6-0.3h-3.2V262.6z"/>
		<path d="M808.4,260.9l2,0.2c-0.3,1.1-0.9,2-1.7,2.7s-1.9,0.9-3.2,0.9c-1.6,0-2.9-0.5-3.9-1.5c-1-1-1.4-2.4-1.4-4.2
			c0-1.9,0.5-3.3,1.5-4.4c1-1,2.2-1.6,3.8-1.6c1.5,0,2.7,0.5,3.7,1.5c0.9,1,1.4,2.4,1.4,4.3c0,0.1,0,0.3,0,0.5h-8.3
			c0.1,1.2,0.4,2.2,1,2.8s1.4,1,2.3,1c0.7,0,1.3-0.2,1.8-0.5C807.7,262.2,808.1,261.7,808.4,260.9z M802.2,257.8h6.2
			c-0.1-0.9-0.3-1.6-0.7-2.1c-0.6-0.7-1.4-1.1-2.3-1.1c-0.9,0-1.6,0.3-2.2,0.9S802.2,256.8,802.2,257.8z"/>
		<path d="M812.7,268.7v-15.5h1.7v1.5c0.4-0.6,0.9-1,1.4-1.3c0.5-0.3,1.1-0.4,1.9-0.4c1,0,1.8,0.2,2.5,0.7c0.7,0.5,1.3,1.2,1.7,2.1
			c0.4,0.9,0.6,1.9,0.6,2.9c0,1.1-0.2,2.2-0.6,3.1c-0.4,0.9-1,1.6-1.8,2.1c-0.8,0.5-1.6,0.7-2.5,0.7c-0.6,0-1.2-0.1-1.7-0.4
			s-0.9-0.6-1.2-1v5.4H812.7z M814.4,258.9c0,1.4,0.3,2.5,0.9,3.2c0.6,0.7,1.3,1,2.1,1c0.8,0,1.6-0.4,2.2-1.1
			c0.6-0.7,0.9-1.8,0.9-3.3c0-1.4-0.3-2.5-0.9-3.2s-1.3-1.1-2.1-1.1c-0.8,0-1.5,0.4-2.1,1.1C814.8,256.4,814.4,257.5,814.4,258.9z"
			/>
		<path d="M832,263.1c-0.7,0.6-1.4,1-2,1.3s-1.3,0.4-2.1,0.4c-1.2,0-2.2-0.3-2.8-0.9c-0.7-0.6-1-1.4-1-2.3c0-0.5,0.1-1,0.4-1.5
			c0.2-0.5,0.6-0.8,1-1.1c0.4-0.3,0.9-0.5,1.4-0.6c0.4-0.1,0.9-0.2,1.7-0.3c1.5-0.2,2.7-0.4,3.4-0.7c0-0.3,0-0.4,0-0.5
			c0-0.8-0.2-1.3-0.5-1.6c-0.5-0.4-1.2-0.6-2.2-0.6c-0.9,0-1.5,0.2-2,0.5s-0.7,0.9-0.9,1.7l-1.9-0.3c0.2-0.8,0.4-1.4,0.8-1.9
			c0.4-0.5,0.9-0.9,1.7-1.1c0.7-0.3,1.6-0.4,2.5-0.4c1,0,1.7,0.1,2.3,0.3c0.6,0.2,1,0.5,1.3,0.8c0.3,0.3,0.5,0.8,0.6,1.3
			c0.1,0.3,0.1,0.9,0.1,1.7v2.5c0,1.8,0,2.9,0.1,3.3c0.1,0.5,0.2,0.9,0.5,1.3h-2C832.2,264.1,832.1,263.6,832,263.1z M831.8,258.8
			c-0.7,0.3-1.7,0.5-3.1,0.7c-0.8,0.1-1.3,0.2-1.7,0.4c-0.3,0.1-0.6,0.3-0.7,0.6c-0.2,0.3-0.3,0.6-0.3,0.9c0,0.5,0.2,0.9,0.6,1.3
			c0.4,0.3,0.9,0.5,1.7,0.5c0.7,0,1.4-0.2,1.9-0.5c0.6-0.3,1-0.8,1.3-1.3c0.2-0.4,0.3-1.1,0.3-1.9V258.8z"/>
		<path d="M836.7,264.5v-11.2h1.7v1.7c0.4-0.8,0.8-1.3,1.2-1.6s0.8-0.4,1.2-0.4c0.6,0,1.3,0.2,1.9,0.6l-0.7,1.8
			c-0.5-0.3-0.9-0.4-1.4-0.4c-0.4,0-0.8,0.1-1.1,0.4s-0.6,0.6-0.7,1c-0.2,0.7-0.3,1.4-0.3,2.2v5.8H836.7z"/>
		<path d="M848,262.8l0.3,1.7c-0.5,0.1-1,0.2-1.4,0.2c-0.7,0-1.2-0.1-1.6-0.3c-0.4-0.2-0.6-0.5-0.8-0.9s-0.2-1.1-0.2-2.2v-6.4h-1.4
			v-1.5h1.4v-2.8l1.9-1.1v3.9h1.9v1.5h-1.9v6.5c0,0.5,0,0.9,0.1,1c0.1,0.2,0.2,0.3,0.3,0.4c0.2,0.1,0.4,0.1,0.6,0.1
			C847.4,262.8,847.7,262.8,848,262.8z"/>
		<path d="M849.9,264.5v-11.2h1.7v1.6c0.4-0.5,0.8-1,1.4-1.3c0.6-0.3,1.2-0.5,2-0.5c0.8,0,1.5,0.2,2,0.5c0.5,0.3,0.9,0.8,1.1,1.4
			c0.9-1.3,2-2,3.5-2c1.1,0,2,0.3,2.6,0.9c0.6,0.6,0.9,1.6,0.9,2.8v7.7h-1.9v-7c0-0.8-0.1-1.3-0.2-1.6c-0.1-0.3-0.3-0.6-0.7-0.8
			c-0.3-0.2-0.7-0.3-1.1-0.3c-0.8,0-1.4,0.3-2,0.8c-0.5,0.5-0.8,1.4-0.8,2.5v6.5h-1.9v-7.3c0-0.8-0.2-1.5-0.5-1.9
			c-0.3-0.4-0.8-0.6-1.5-0.6c-0.5,0-1,0.1-1.5,0.4c-0.5,0.3-0.8,0.7-1,1.2c-0.2,0.5-0.3,1.3-0.3,2.3v5.8H849.9z"/>
		<path d="M875.4,260.9l2,0.2c-0.3,1.1-0.9,2-1.7,2.7s-1.9,0.9-3.2,0.9c-1.6,0-2.9-0.5-3.9-1.5c-1-1-1.4-2.4-1.4-4.2
			c0-1.9,0.5-3.3,1.5-4.4c1-1,2.2-1.6,3.8-1.6c1.5,0,2.7,0.5,3.7,1.5c0.9,1,1.4,2.4,1.4,4.3c0,0.1,0,0.3,0,0.5h-8.3
			c0.1,1.2,0.4,2.2,1,2.8s1.4,1,2.3,1c0.7,0,1.3-0.2,1.8-0.5C874.8,262.2,875.2,261.7,875.4,260.9z M869.2,257.8h6.2
			c-0.1-0.9-0.3-1.6-0.7-2.1c-0.6-0.7-1.4-1.1-2.3-1.1c-0.9,0-1.6,0.3-2.2,0.9S869.3,256.8,869.2,257.8z"/>
		<path d="M879.8,264.5v-11.2h1.7v1.6c0.8-1.2,2-1.8,3.6-1.8c0.7,0,1.3,0.1,1.9,0.4c0.6,0.2,1,0.6,1.3,1c0.3,0.4,0.5,0.9,0.6,1.4
			c0.1,0.4,0.1,1,0.1,1.8v6.9H887v-6.8c0-0.8-0.1-1.3-0.2-1.7c-0.1-0.4-0.4-0.7-0.8-0.9c-0.4-0.2-0.8-0.3-1.3-0.3
			c-0.8,0-1.5,0.3-2.1,0.8c-0.6,0.5-0.9,1.5-0.9,2.9v6.1H879.8z"/>
		<path d="M895.9,262.8l0.3,1.7c-0.5,0.1-1,0.2-1.4,0.2c-0.7,0-1.2-0.1-1.6-0.3c-0.4-0.2-0.6-0.5-0.8-0.9s-0.2-1.1-0.2-2.2v-6.4
			h-1.4v-1.5h1.4v-2.8l1.9-1.1v3.9h1.9v1.5H894v6.5c0,0.5,0,0.9,0.1,1c0.1,0.2,0.2,0.3,0.3,0.4c0.2,0.1,0.4,0.1,0.6,0.1
			C895.3,262.8,895.6,262.8,895.9,262.8z"/>
		<path d="M903,258.9c0-2.1,0.6-3.6,1.7-4.6c1-0.8,2.1-1.2,3.5-1.2c1.5,0,2.8,0.5,3.8,1.5c1,1,1.5,2.4,1.5,4.2
			c0,1.4-0.2,2.6-0.6,3.4s-1.1,1.5-1.9,1.9s-1.7,0.7-2.7,0.7c-1.6,0-2.8-0.5-3.8-1.5S903,260.8,903,258.9z M905,258.9
			c0,1.4,0.3,2.5,0.9,3.2c0.6,0.7,1.4,1.1,2.4,1.1c0.9,0,1.7-0.4,2.3-1.1c0.6-0.7,0.9-1.8,0.9-3.3c0-1.4-0.3-2.4-0.9-3.1
			c-0.6-0.7-1.4-1.1-2.3-1.1c-0.9,0-1.7,0.4-2.4,1.1S905,257.4,905,258.9z"/>
		<path d="M916.2,264.5v-9.7h-1.7v-1.5h1.7v-1.2c0-0.8,0.1-1.3,0.2-1.7c0.2-0.5,0.5-0.9,1-1.2c0.5-0.3,1.1-0.5,1.9-0.5
			c0.5,0,1.1,0.1,1.8,0.2l-0.3,1.7c-0.4-0.1-0.8-0.1-1.1-0.1c-0.6,0-1,0.1-1.2,0.4s-0.4,0.7-0.4,1.4v1h2.2v1.5h-2.2v9.7H916.2z"/>
		<path d="M927.2,259.5l1.9-0.2c0.1,0.8,0.3,1.4,0.6,1.9c0.3,0.5,0.9,0.9,1.6,1.2s1.5,0.5,2.4,0.5c0.8,0,1.5-0.1,2.1-0.3
			c0.6-0.2,1-0.5,1.3-1c0.3-0.4,0.4-0.8,0.4-1.3c0-0.5-0.1-0.9-0.4-1.3c-0.3-0.4-0.7-0.7-1.4-0.9c-0.4-0.2-1.3-0.4-2.7-0.8
			s-2.4-0.7-3-1c-0.7-0.4-1.3-0.9-1.6-1.4c-0.4-0.6-0.5-1.2-0.5-1.9c0-0.8,0.2-1.5,0.7-2.2s1.1-1.2,1.9-1.5s1.8-0.5,2.8-0.5
			c1.1,0,2.2,0.2,3,0.6s1.5,0.9,2,1.6s0.7,1.5,0.8,2.4l-2,0.1c-0.1-1-0.5-1.7-1.1-2.2c-0.6-0.5-1.5-0.7-2.7-0.7
			c-1.2,0-2.1,0.2-2.7,0.7c-0.6,0.5-0.8,1-0.8,1.6c0,0.6,0.2,1,0.6,1.4c0.4,0.4,1.4,0.7,3.1,1.1c1.7,0.4,2.8,0.7,3.4,1
			c0.9,0.4,1.6,0.9,2,1.6c0.4,0.6,0.6,1.4,0.6,2.2c0,0.8-0.2,1.6-0.7,2.3s-1.1,1.3-2,1.7c-0.9,0.4-1.9,0.6-3,0.6
			c-1.4,0-2.6-0.2-3.5-0.6c-0.9-0.4-1.7-1-2.2-1.8S927.3,260.5,927.2,259.5z"/>
		<path d="M941.4,258.9c0-2.1,0.6-3.6,1.7-4.6c1-0.8,2.1-1.2,3.5-1.2c1.5,0,2.8,0.5,3.8,1.5c1,1,1.5,2.4,1.5,4.2
			c0,1.4-0.2,2.6-0.6,3.4s-1.1,1.5-1.9,1.9s-1.7,0.7-2.7,0.7c-1.6,0-2.8-0.5-3.8-1.5S941.4,260.8,941.4,258.9z M943.3,258.9
			c0,1.4,0.3,2.5,0.9,3.2c0.6,0.7,1.4,1.1,2.4,1.1c0.9,0,1.7-0.4,2.3-1.1c0.6-0.7,0.9-1.8,0.9-3.3c0-1.4-0.3-2.4-0.9-3.1
			c-0.6-0.7-1.4-1.1-2.3-1.1c-0.9,0-1.7,0.4-2.4,1.1S943.3,257.4,943.3,258.9z"/>
		<path d="M961.3,260.4l1.9,0.2c-0.2,1.3-0.7,2.3-1.6,3c-0.8,0.7-1.9,1.1-3.1,1.1c-1.5,0-2.8-0.5-3.7-1.5c-0.9-1-1.4-2.4-1.4-4.3
			c0-1.2,0.2-2.3,0.6-3.2s1-1.6,1.8-2s1.7-0.7,2.7-0.7c1.2,0,2.2,0.3,3,0.9c0.8,0.6,1.3,1.5,1.5,2.6l-1.8,0.3
			c-0.2-0.8-0.5-1.3-0.9-1.7c-0.4-0.4-1-0.6-1.6-0.6c-1,0-1.7,0.3-2.3,1c-0.6,0.7-0.9,1.8-0.9,3.2c0,1.5,0.3,2.6,0.9,3.3
			c0.6,0.7,1.3,1,2.3,1c0.7,0,1.4-0.2,1.9-0.7C960.9,262,961.2,261.3,961.3,260.4z"/>
		<path d="M964.8,251.2V249h1.9v2.2H964.8z M964.8,264.5v-11.2h1.9v11.2H964.8z"/>
		<path d="M976.9,263.1c-0.7,0.6-1.4,1-2,1.3s-1.3,0.4-2.1,0.4c-1.2,0-2.2-0.3-2.8-0.9c-0.7-0.6-1-1.4-1-2.3c0-0.5,0.1-1,0.4-1.5
			s0.6-0.8,1-1.1s0.9-0.5,1.4-0.6c0.4-0.1,0.9-0.2,1.7-0.3c1.5-0.2,2.7-0.4,3.4-0.7c0-0.3,0-0.4,0-0.5c0-0.8-0.2-1.3-0.5-1.6
			c-0.5-0.4-1.2-0.6-2.2-0.6c-0.9,0-1.5,0.2-2,0.5s-0.7,0.9-0.9,1.7l-1.9-0.3c0.2-0.8,0.4-1.4,0.8-1.9c0.4-0.5,0.9-0.9,1.7-1.1
			c0.7-0.3,1.6-0.4,2.5-0.4c1,0,1.7,0.1,2.3,0.3c0.6,0.2,1,0.5,1.3,0.8c0.3,0.3,0.5,0.8,0.6,1.3c0.1,0.3,0.1,0.9,0.1,1.7v2.5
			c0,1.8,0,2.9,0.1,3.3c0.1,0.5,0.2,0.9,0.5,1.3h-2C977.1,264.1,977,263.6,976.9,263.1z M976.7,258.8c-0.7,0.3-1.7,0.5-3.1,0.7
			c-0.8,0.1-1.3,0.2-1.7,0.4c-0.3,0.1-0.6,0.3-0.7,0.6s-0.3,0.6-0.3,0.9c0,0.5,0.2,0.9,0.6,1.3c0.4,0.3,0.9,0.5,1.7,0.5
			c0.7,0,1.4-0.2,1.9-0.5c0.6-0.3,1-0.8,1.3-1.3c0.2-0.4,0.3-1.1,0.3-1.9V258.8z"/>
		<path d="M981.5,264.5V249h1.9v15.4H981.5z"/>
		<path d="M991.9,259.5l1.9-0.2c0.1,0.8,0.3,1.4,0.6,1.9c0.3,0.5,0.9,0.9,1.6,1.2s1.5,0.5,2.4,0.5c0.8,0,1.5-0.1,2.1-0.3
			s1-0.5,1.3-1c0.3-0.4,0.4-0.8,0.4-1.3c0-0.5-0.1-0.9-0.4-1.3c-0.3-0.4-0.7-0.7-1.4-0.9c-0.4-0.2-1.3-0.4-2.7-0.8s-2.4-0.7-3-1
			c-0.7-0.4-1.3-0.9-1.6-1.4c-0.4-0.6-0.5-1.2-0.5-1.9c0-0.8,0.2-1.5,0.7-2.2c0.4-0.7,1.1-1.2,1.9-1.5s1.8-0.5,2.8-0.5
			c1.1,0,2.2,0.2,3,0.6s1.5,0.9,2,1.6s0.7,1.5,0.8,2.4l-2,0.1c-0.1-1-0.5-1.7-1.1-2.2c-0.6-0.5-1.5-0.7-2.7-0.7
			c-1.2,0-2.1,0.2-2.7,0.7s-0.8,1-0.8,1.6c0,0.6,0.2,1,0.6,1.4c0.4,0.4,1.4,0.7,3.1,1.1c1.7,0.4,2.8,0.7,3.4,1
			c0.9,0.4,1.6,0.9,2,1.6c0.4,0.6,0.6,1.4,0.6,2.2c0,0.8-0.2,1.6-0.7,2.3s-1.1,1.3-2,1.7c-0.9,0.4-1.9,0.6-3,0.6
			c-1.4,0-2.6-0.2-3.5-0.6c-0.9-0.4-1.7-1-2.2-1.8C992.2,261.5,991.9,260.5,991.9,259.5z"/>
		<path d="M1014.4,260.9l2,0.2c-0.3,1.1-0.9,2-1.7,2.7c-0.8,0.6-1.9,0.9-3.2,0.9c-1.6,0-2.9-0.5-3.9-1.5s-1.4-2.4-1.4-4.2
			c0-1.9,0.5-3.3,1.5-4.4c1-1,2.2-1.6,3.8-1.6c1.5,0,2.7,0.5,3.7,1.5c0.9,1,1.4,2.4,1.4,4.3c0,0.1,0,0.3,0,0.5h-8.3
			c0.1,1.2,0.4,2.2,1,2.8s1.4,1,2.3,1c0.7,0,1.3-0.2,1.8-0.5C1013.7,262.2,1014.1,261.7,1014.4,260.9z M1008.2,257.8h6.2
			c-0.1-0.9-0.3-1.6-0.7-2.1c-0.6-0.7-1.4-1.1-2.3-1.1c-0.9,0-1.6,0.3-2.2,0.9S1008.2,256.8,1008.2,257.8z"/>
		<path d="M1018.7,264.5v-11.2h1.7v1.7c0.4-0.8,0.8-1.3,1.2-1.6c0.4-0.3,0.8-0.4,1.2-0.4c0.6,0,1.3,0.2,1.9,0.6l-0.7,1.8
			c-0.5-0.3-0.9-0.4-1.4-0.4c-0.4,0-0.8,0.1-1.1,0.4c-0.3,0.2-0.6,0.6-0.7,1c-0.2,0.7-0.3,1.4-0.3,2.2v5.8H1018.7z"/>
		<path d="M1029,264.5l-4.3-11.2h2l2.4,6.7c0.3,0.7,0.5,1.5,0.7,2.3c0.2-0.6,0.4-1.3,0.7-2.1l2.5-6.8h1.9l-4.2,11.2H1029z"/>
		<path d="M1036.7,251.2V249h1.9v2.2H1036.7z M1036.7,264.5v-11.2h1.9v11.2H1036.7z"/>
		<path d="M1048.7,260.4l1.9,0.2c-0.2,1.3-0.7,2.3-1.6,3c-0.8,0.7-1.9,1.1-3.1,1.1c-1.5,0-2.8-0.5-3.7-1.5c-0.9-1-1.4-2.4-1.4-4.3
			c0-1.2,0.2-2.3,0.6-3.2s1-1.6,1.8-2s1.7-0.7,2.7-0.7c1.2,0,2.2,0.3,3,0.9c0.8,0.6,1.3,1.5,1.5,2.6l-1.8,0.3
			c-0.2-0.8-0.5-1.3-0.9-1.7c-0.4-0.4-1-0.6-1.6-0.6c-1,0-1.7,0.3-2.3,1c-0.6,0.7-0.9,1.8-0.9,3.2c0,1.5,0.3,2.6,0.9,3.3
			c0.6,0.7,1.3,1,2.3,1c0.7,0,1.4-0.2,1.9-0.7C1048.3,262,1048.6,261.3,1048.7,260.4z"/>
		<path d="M1059.9,260.9l2,0.2c-0.3,1.1-0.9,2-1.7,2.7s-1.9,0.9-3.2,0.9c-1.6,0-2.9-0.5-3.9-1.5c-1-1-1.4-2.4-1.4-4.2
			c0-1.9,0.5-3.3,1.5-4.4c1-1,2.2-1.6,3.8-1.6c1.5,0,2.7,0.5,3.7,1.5c0.9,1,1.4,2.4,1.4,4.3c0,0.1,0,0.3,0,0.5h-8.3
			c0.1,1.2,0.4,2.2,1,2.8c0.6,0.7,1.4,1,2.3,1c0.7,0,1.3-0.2,1.8-0.5C1059.2,262.2,1059.6,261.7,1059.9,260.9z M1053.7,257.8h6.2
			c-0.1-0.9-0.3-1.6-0.7-2.1c-0.6-0.7-1.4-1.1-2.3-1.1c-0.9,0-1.6,0.3-2.2,0.9C1054,256,1053.7,256.8,1053.7,257.8z"/>
		<path d="M1063.4,261.1l1.9-0.3c0.1,0.8,0.4,1.3,0.9,1.7c0.5,0.4,1.2,0.6,2,0.6c0.9,0,1.5-0.2,1.9-0.5s0.6-0.8,0.6-1.2
			c0-0.4-0.2-0.8-0.6-1c-0.3-0.2-0.9-0.4-1.9-0.6c-1.4-0.4-2.4-0.7-2.9-0.9s-0.9-0.6-1.2-1.1c-0.3-0.5-0.4-1-0.4-1.5
			c0-0.5,0.1-1,0.3-1.4c0.2-0.4,0.5-0.8,0.9-1.1c0.3-0.2,0.7-0.4,1.2-0.6c0.5-0.2,1.1-0.2,1.6-0.2c0.9,0,1.6,0.1,2.3,0.4
			c0.7,0.3,1.2,0.6,1.5,1c0.3,0.4,0.5,1,0.7,1.7l-1.9,0.3c-0.1-0.6-0.3-1-0.7-1.3c-0.4-0.3-1-0.5-1.7-0.5c-0.9,0-1.5,0.1-1.9,0.4
			c-0.4,0.3-0.6,0.6-0.6,1c0,0.2,0.1,0.5,0.2,0.7c0.2,0.2,0.4,0.4,0.7,0.5c0.2,0.1,0.7,0.2,1.7,0.5c1.3,0.4,2.3,0.7,2.8,0.9
			c0.5,0.2,0.9,0.6,1.2,1c0.3,0.4,0.5,1,0.5,1.6c0,0.6-0.2,1.2-0.6,1.8c-0.4,0.6-0.9,1-1.6,1.3s-1.5,0.5-2.4,0.5
			c-1.5,0-2.6-0.3-3.3-0.9C1064.1,263.2,1063.7,262.3,1063.4,261.1z"/>
		<path d="M1075.5,264.5v-2.2h2.2v2.2H1075.5z"/>
	</g>
</g>
</svg>
